<?xml version="1.0" encoding="utf-8" ?>
<svg baseProfile="full" height="300mm" version="1.1" viewBox="0,0,200,300" width="200mm" xmlns="http://www.w3.org/2000/svg" xmlns:ev="http://www.w3.org/2001/xml-events" xmlns:xlink="http://www.w3.org/1999/xlink"><defs /><rect fill="#222222" height="300" width="200" x="0" y="0" /><text fill="#FFFFFF" style="font-size:12px; font-family:Arial; font-weight:bold;" x="10" y="20">Over 10km Runs</text><text fill="#FFFFFF" style="font-size:4px; font-family:Arial" x="10" y="280">ATHLETE</text><text fill="#FFFFFF" style="font-size:9px; font-family:Arial" x="10" y="290">miko gao</text><text fill="#FFFFFF" style="font-size:4px; font-family:Arial" x="120" y="280">STATISTICS</text><text fill="#FFFFFF" style="font-size:3px; font-family:Arial" x="120" y="285">Number: 9</text><text fill="#FFFFFF" style="font-size:3px; font-family:Arial" x="120" y="290">Weekly: 1.3</text><text fill="#FFFFFF" style="font-size:3px; font-family:Arial" x="141" y="285">Total: 195.0 km</text><text fill="#FFFFFF" style="font-size:3px; font-family:Arial" x="141" y="290">Avg: 21.7 km</text><text fill="#FFFFFF" style="font-size:3px; font-family:Arial" x="167" y="285">Min: 10.8 km</text><text fill="#FFFFFF" style="font-size:3px; font-family:Arial" x="167" y="290">Max: 34.1 km</text><polyline fill="none" points="18.432993890048238,55.00282478007284 19.107535641553113,54.85955856867804 19.16619144604192,54.83090528883622 19.40081466396805,54.76404758715944 19.459470468456857,54.773598691564985 19.76741344196489,54.687638701747346 19.804073319741292,54.65898534673033 19.877393075381406,54.639883103103784 19.94338085540221,54.62078085394023 19.994704684329918,54.62078085394023 20.236659877817146,54.563474072972895 20.280651731125545,54.544371801486704 20.339307535643457,54.544371801486704 20.65458248471259,54.43930920900311 21.043177189392736,54.37245110791264 21.15315682280925,54.334246448095655 21.21181262729806,54.334246448095655 22.245621181238675,54.15277400990453 22.568228105898015,54.14322281503701 24.474541751522338,53.96174984800018 25.332382892083842,53.913993720569124 25.44969450100325,53.88534002738743 26.006924643588718,53.856686321691086 26.182892057026038,53.80893011769513 26.52016293280758,53.78027637858031 27.15071283094585,53.7516226269654 27.715274949063314,53.637007495199214 28.279837067209883,53.61790495376772 29.320977596740704,53.5223921630386 30.017515274957987,53.50328958819591 30.633401222003158,53.5223921630386 30.65539714868646,53.51284087629756 31.263951120141428,53.5223921630386 31.806517311604694,53.5223921630386 32.00448065169621,53.53194344838266 32.30509164970135,53.5223921630386 32.356415478599956,53.50328958819591 32.40773930752766,53.51284087629756 32.63503054989269,53.5223921630386 34.306720977590885,53.54149473232246 34.58533604888362,53.570148575781786 35.03258655805257,53.560597296040214 35.421181262732716,53.57969985415548 35.57515274948673,53.560597296040214 36.10305498979869,53.54149473232246 36.257026476581814,53.53194344838266 36.31568228104152,53.55104601487983 37.21018329937942,53.42687923314952 37.268839103897335,53.42687923314952 38.082688391034026,53.1689936272669 38.27331975559355,53.13078826599667 38.896537678228924,52.87290149524051 39.615071283100406,52.50039659063623 40.02566191443475,52.232955866456905 40.29694501016638,52.003720091503055 40.678207739285426,51.70762269567058 41.08879837067798,51.34466277278989 41.382077393092914,51.04856239968649 41.484725050919224,50.98170084000594 41.594704684306635,50.943494203849696 41.770672097743955,50.93394254131999 42.452545824839035,50.95304586497514 42.555193482665345,50.92439087742241 43.031771894107806,50.39904721869971 43.149083503027214,50.274874465947505 43.332382892025635,50.1220461396224 43.51568228105316,49.892802981972636 43.68431771892938,49.72087008759263 43.71364562117378,49.67311087020062 43.72830957226688,49.55848860655533 43.68431771892938,48.78478308353806 43.75030549897929,48.57463926552737 43.904276985733304,48.393150880452595 43.918940936855506,48.35494273537188 43.99959266802762,48.30718252265069 44.41751527492306,47.85823482215346 44.7254582484893,47.60032730556122 44.7474541751435,47.55256654294499 45.83258655804093,46.387193150374515 45.89857433809084,46.32987917024002 46.111201629333664,46.11017511533282 46.287169042770984,45.89047032392409 46.441140529554104,45.72807935254241 46.463136456208304,45.68031722555315 46.60977596740122,45.479715912129905 46.68309572301223,45.412848671214306 46.80773930752184,45.21224653910758 47.013034623203566,44.84925064401614 47.174338085518684,44.52446313888504 47.269653767813,44.24743723021675 47.262321792251896,44.209226668142946 47.2916496944963,44.11370016553701 47.37230142563931,43.49277450443333 47.38696537679061,43.13932188518811 47.38696537679061,42.680785916832974 47.430957230128115,42.6521273122853 47.438289205689216,42.59481006558781 47.438289205689216,42.55659853992256 47.38696537679061,42.52793988107442 47.40162932788371,41.91655217312655 47.40896130344481,41.878340252013004 47.438289205689216,41.849681296509516 47.40896130344481,41.67772730048455 47.40896130344481,41.572644080777536 47.65824847249314,41.477113734821614 48.80203665985027,41.477113734821614 48.85336048877798,41.543984991600155 50.525050916476175,41.524878925221856 50.781670061085606,41.524878925221856 51.02362525454373,41.543984991600155 51.280244399182266,41.51532588993723 51.771486761717824,41.50577285324107 51.81547861508443,41.46756069258117 52.380040733201895,41.477113734821614 52.4240325865394,41.51532588993723 52.84928716902505,41.5344319591095 53.76578411407536,41.524878925221856 55.547454175160965,41.5344319591095 56.53727087576408,41.524878925221856 57.607739307539305,41.5344319591095 57.747046843142016,41.477113734821614 59.12545824848348,41.46756069258117 59.169450101820985,41.543984991600155 59.36741344194161,41.543984991600155 59.41873727084021,41.46756069258117 59.80733197554946,41.46756069258117 59.86598778003827,41.55353802273021 60.1372708757699,41.55353802273021 60.34989816698362,41.572644080777536 60.9877800407412,41.572644080777536 61.332382892025635,41.5344319591095 61.757637474511284,41.56309105246328 63.31201629326097,41.572644080777536 63.81059063138673,41.55353802273021 64.67576374742202,41.60130315741117 65.02036659879377,41.658621273069 65.61425661912654,41.887893234372314 65.99551934824558,42.1171643935304 66.1714867616829,42.26045846071065 66.39144602848683,42.52793988107442 66.47942973522004,42.60436294349347 66.50142566190334,42.66168018185272 66.58207739307545,42.747655945364386 66.73604887982947,42.99602973971196 66.74338085536147,43.05334663550457 66.86069246436819,43.292166495040874 66.92668024438899,43.49277450443333 66.9926680244098,43.86533060706279 67.0,44.29520040144416 66.97067209772649,44.562673517160874 66.9853360488778,44.6199890427888 66.9560081466334,44.667751942506584 66.75804480654188,46.34898383583641 66.70672097758506,46.69286686467967 66.70672097758506,46.81704640391399 66.2154786150204,50.781115751713514 65.98818737271358,52.930209754216776 65.84887983705266,53.818481361267914 65.61425661912654,55.814660730153264 65.52627291242243,56.41636794683291 65.269653767813,58.58437830792536 65.16700610998669,59.27201419434277 65.07902240325348,60.27480360003392 64.98370672095916,60.90512051848782 64.82240325864404,61.76463382296788 64.4704684317694,63.02523295353603 64.4191446028417,63.273529925027105 64.36782077391399,63.41677775008429 64.25784114049748,63.65552342965384 64.09653767821146,63.99931568096508 64.00122199591715,64.23805923927284 63.79592668020632,64.6582457905024 63.553971486748196,65.07842964891461 63.34134419550537,65.38401621822413 62.945417515264126,65.85194289234641 62.86476578412112,65.97608614333876 62.534826883871574,66.31031680462911 62.06558044804842,66.74003943718708 61.8456211812736,66.90237836540473 61.61832993887947,67.0456182624257 61.0317718940787,67.31299856628902 60.78981670059147,67.45623756628629 60.73116089613177,67.43713905103505 60.34256619142252,67.44668830934825 59.99063136451878,67.45623756628629 59.89531568228267,67.48488532873307 59.71934826881625,67.65677164058434 59.22077393071959,68.03873960927012 58.81751527497545,68.39205799929914 58.736863543774234,68.44935269396228 58.66354378819233,68.46845091438445 58.58289205699111,68.66898189305357 58.494908350287005,69.07004201057862 58.39959266799269,69.28966913070326 58.38492871687049,69.37560997748369 58.33360488797189,69.40425690137636 58.20896130340407,69.55704028408218 57.99633401221945,69.88170379037183 57.72505091648782,70.34004953329713 57.54908350302139,70.59786760578572 57.534419551928295,70.64561158204742 57.29979633400217,70.97981844253081 57.18981670058565,71.1039519854603 56.7572301425389,71.56228918526176 56.23665987778804,72.03017177239235 56.02403258654522,72.19249760426464 55.95071283093421,72.10656044921052 55.92871690428001,72.1256576045198 55.92871690428001,72.16385189844004 55.95071283093421,72.17340046842583 55.8700610997912,72.29753175193764 55.73808553972049,72.38346865672065 55.62077393074287,72.50759954259411 55.466802443988854,72.58398766324535 55.246843177155824,72.81315149136208 55.0048879836977,73.01366918403801 54.90957230143249,73.12825044740748 54.78492871692288,73.21418626357627 54.1397148676042,73.80618549260544 53.94908350301557,73.9589586196962 53.64114052950754,74.23585900536273 53.35519348268281,74.45546882473718 53.296537678194,74.53185467648291 53.24521384926629,74.56049934793555 53.12057026475668,74.69417431599868 53.02525458246237,74.73236711397476 52.68065173114883,75.02836054408544 52.22606924644788,75.36254506920523 51.874134419544134,75.60124725883361 51.36822810591548,75.92588084246381 50.693686354352394,76.27915673989628 50.459063136426266,76.38418434243067 49.67454175153398,76.68971822977619 49.131975560070714,76.85203252849169 48.62606924641295,76.99525069374795 47.98818737271358,77.12892069914233 47.03503054988687,77.24349477262149 46.92505091649946,77.29123391083704 45.14338085541385,77.5490246567133 44.84276985740871,77.57766801039543 44.49816700612428,77.62540690535388 44.344195519341156,77.67314576556237 44.30020366597455,77.65405022564664 44.22688391036354,77.68269353342475 43.94093686353881,77.73043235195655 43.79429735231679,77.73998011148069 43.72830957226688,77.76862338175852 43.67698574336828,77.75907562638895 43.237067209760426,77.84500537461281 42.90712830956909,77.8831963377088 42.36456211813493,78.00731681412435 40.65621181263123,78.26510474532552 40.50224032587721,78.26510474532552 40.4655804480426,78.29374778622878 40.414256619144,78.30329546378198 40.311608961288584,78.29374778622878 39.981670061068144,78.34148615996673 39.600407331978204,78.37967683393072 39.32912423624657,78.37967683393072 38.37596741341986,78.4465104598712 38.185336048860336,78.42741514512454 38.11934826883953,78.4465104598712 37.22484725053073,78.47515342156112 37.122199592675315,78.45605811516725 36.63095723013976,78.47515342156112 36.05906313646119,78.5324393074261 35.89042769858497,78.5324393074261 35.846435845218366,78.48470107267349 35.802443991880864,78.47515342156112 35.56782077392563,78.46560576905176 34.54134419551701,78.51334401770146 32.7596741344023,78.51334401770146 32.59103869655519,78.51334401770146 32.532382892037276,78.5324393074261 31.058655804488808,78.5324393074261 30.853360488836188,78.5324393074261 30.816700610972475,78.51334401770146 30.596741344197653,78.50379637076549 30.552749490831047,78.52289166326955 30.457433808594942,78.52289166326955 30.369450101832626,78.50379637076549 30.22281059063971,78.50379637076549 30.178818737273104,78.51334401770146 30.083503055007895,78.51334401770146 30.03217922608019,78.4942487224107 29.834215885959566,78.51334401770146 29.504276985739125,78.4942487224107 28.36782077391399,78.4942487224107 28.08187372708926,78.47515342156112 27.788594704674324,78.41786748566665 27.5539714867773,78.40831982481177 26.168228105903836,78.40831982481177 25.691649694519583,78.48470107267349 25.479022403247654,78.4942487224107 23.836659877793863,78.50379637076549 23.492057026480325,78.47515342156112 23.38940936862491,78.48470107267349 22.986150712822564,78.43696280319273 22.450916496978607,78.31284313989454 21.805702647630824,78.08369852900796 21.549083503050497,77.97867364808917 21.292464358441066,77.83545763039001 21.087169042788446,77.75907562638895 20.815885947056813,77.70178906503133 20.65458248471259,77.71133682871732 20.559266802447382,77.74952786964423 19.994704684329918,78.06460310859984 19.804073319741292,78.12188935307495 19.58411405296647,78.16008015489206 19.15885947048082,78.1791755475133 18.836252545850584,78.15053245655872 18.410997963364935,78.00731681412435 18.374338085530326,77.94048274061788 18.31568228107062,77.91183954541339 18.264358452142915,77.89274407501216 18.198370672093006,77.90229181090399 17.98574338085018,77.82590988473385 17.80244399185176,77.8068143893106 17.582484725047834,77.84500537461281 17.421181262732716,77.90229181090399 16.900610997952754,78.22691400463373 16.380040733201895,78.43696280319273 16.24073319757008,78.38922449896927 16.079429735254962,78.38922449896927 15.976782077399548,78.41786748566665 14.737678207777208,78.40831982481177 13.813849287194898,78.42741514512454 13.718533604900585,78.25555706222804 13.696537678217283,77.0429900126619 13.740529531554785,77.0047985603087 13.740529531554785,76.93796346517775 13.696537678217283,76.89977195166284 13.674541751504876,75.95452490502794 13.689205702656182,75.81130446701718 13.68187372709508,75.49621840244072 13.667209775972879,75.43892986440187 13.630549898196477,74.63688507732877 13.645213849289576,74.57004756897368 13.60855397148407,74.34088988030271 13.579226069239667,73.78708882669162 13.593890020361869,73.54838003363693 13.579226069239667,73.4910897939917 13.557230142556364,72.94683002127567 13.571894093678566,72.8036030145231 13.549898167024367,72.75586060942442 13.571894093678566,72.65082719582279 13.586558044829872,72.34527449071902 13.527902240341064,72.29753175193764 13.527902240341064,72.24978897839901 13.586558044829872,72.19249760426464 13.586558044829872,72.14475475423387 13.527902240341064,71.64822705357801 13.50590631365776,71.60048380731314 13.454582484730054,70.51192836090195 13.417922606953653,69.11778709929058 13.461914460291155,69.07004201057862 13.461914460291155,68.95545365588623 13.410590631363448,68.90770844896906 13.39592668027035,68.6403346479492 13.410590631363448,68.60213830162684 13.388594704680145,68.51619644113089 13.39592668027035,68.26791932243941 13.373930753587047,68.1724278726324 13.381262729148148,67.88595268881181 13.344602851313539,67.60902548802551 13.351934826903744,67.4180405302177 13.32993890022044,67.14111135325948 13.315274949098239,66.78778622249956 13.322606924630236,66.56815072210156 13.307942973537138,66.52040377684898 13.271283095731633,65.67050233345799 13.285947046853835,65.498610814524 13.24928716904833,64.99248316966987 13.25661914460943,64.79194094661943 13.234623217897024,64.69644443436118 13.161303462315118,62.948833696194924 13.17596741343732,62.776935041671095 13.15397148678312,62.738735279490356 13.14663951122202,62.49998626141314 13.14663951122202,62.14663611911965 13.131975560070714,62.09888595382654 13.124643584538717,61.94608519115718 13.08065173117211,60.87646988091001 13.10264765782631,60.81916856826865 13.10264765782631,60.57086230130517 13.058655804488808,59.66358140666125 13.036659877805505,59.61582943284884 13.0293279022153,59.568077424199146 13.021995926712407,59.195610563183436 13.036659877805505,59.09055542486021 13.0,58.35516474297037" stroke="#ff8b00" stroke-linecap="round" stroke-linejoin="round" stroke-width="0.5"><title>2024-07-03 21.4km</title><desc>11798056022</desc></polyline><polyline fill="none" points="126.7437827225076,55.303288737497496 125.63939790576114,55.303288737497496 125.27715968588018,55.28602506021707 125.23298429320857,55.303288737497496 123.77077879582066,55.28602506021707 123.17441099477583,55.303288737497496 123.14790575916413,55.245743117258826 123.11698298429837,55.29753417923712 121.72545811519376,55.291779620140005 121.694535340328,55.23998855063837 121.6238547120447,55.23998855063837 121.5929319371644,55.23998855063837 121.55759162303002,55.28602506021707 121.09816753926862,55.2802704994574 121.07607984294009,55.26876137541694 120.78452225132787,55.274515937861 120.58573298431293,55.25725224801499 119.163285340328,55.274515937861 118.25768979056738,55.25149768306801 116.02241492147732,55.22847941485816 114.5160340314178,55.245743117258826 114.37467277488031,55.25725224801499 113.7429646597011,55.355079723991366 113.30562827226822,55.44139788391476 112.76227094240312,55.5852610645743 112.26750654450734,55.746387204766506 111.50327225132787,56.03986527111192 111.13661649216374,56.16646297943953 111.0968586387462,56.15495411364827 110.90690445026848,56.224007258173515 110.88039921465679,56.252779366099276 110.20009816753736,56.494464245184645 109.9394633507909,56.56927116995212 109.4800392670004,56.75341068880516 107.73952879580611,57.369120970641234 107.69093586389499,57.340349675916514 107.60258507855178,57.38062948266088 107.58491492147732,57.42666349721185 107.5495746073284,57.44392623882595 106.65723167538818,57.760408498223114 106.60863874344795,57.73739169212786 106.51145287958207,57.766162697647815 106.3921793193731,57.812196262864745 106.37009162305912,57.858229774428764 106.31266361256712,57.88124651012549 106.26407068064145,57.852475588431844 106.05644633507472,57.96180497932801 105.80906413613411,58.06537991263758 105.30988219895517,58.24951245677585 105.24803664922365,58.25526658493982 105.1906086387462,58.28979133638495 105.15085078534321,58.27828308925746 104.92997382199974,58.3588407487332 104.70909685865627,58.43939824390691 104.6914267015818,58.47392283438603 104.59424083770136,58.50269330341325 104.55006544502976,58.49118511832785 103.64005235601508,58.84218325538677 103.32640706805978,58.92849379490872 103.03926701571618,58.90547766948657 102.94208115185029,58.83067516919982 102.79630235601508,58.87670749382232 101.42686518325354,59.12413031964388 101.38268979058194,59.15290031508266 101.08229712041793,59.521154406058486 100.80399214661156,59.70528016412936 100.51243455497024,59.80309662401487 100.22971204189525,59.85488171059478 99.3417866492382,59.912420616085 96.81937172776088,59.89515895324439 96.54990183247719,59.88940506394283 96.53223167540273,59.84912781544699 96.4968913612829,59.84912781544699 96.45713350786536,59.88940506394283 96.31577225131332,59.89515895324439 95.1097840314178,59.88365117382273 94.80055628271657,59.85488171059478 94.48691099476127,59.77432710213179 94.23069371726888,59.73980364822637 93.80219240838778,59.6132173923761 93.30301047120884,59.41758328995638 92.9186845549848,59.216194231299596 92.56528141362651,58.997542090757634 92.32673429320857,58.81341303362569 91.70827879582066,58.26677483877211 91.39905104711943,57.921525765254046 90.75409031416348,57.006601125493034 90.59505890052242,56.8167084501365 90.5332133507909,56.69011282602514 90.12679973822378,56.103164176016435 89.96335078535776,55.786668637101684 89.87058246073138,55.683087728077226 89.19469895289512,54.73933804384433 88.24492801047745,53.30640668862907 87.99754581150773,52.84026118469046 87.7722513089102,52.29354031098774 87.65739528796985,51.94823901723794 87.53370418847771,51.51660815408104 87.54695680628356,51.3151788033756 87.52045157068642,51.14827942017291 87.47627617801481,51.119503593145055 87.48952879582066,51.00440007536599 87.61763743456686,50.797212897843565 88.09914921465679,50.18715545130908 88.51439790574659,49.61737630521384 88.53648560210422,49.56557779333525 88.51439790574659,49.50802381155518 88.487892670164,49.0706108085069 88.49231020941806,48.978523243084055 88.46580497383547,48.94974583483054 88.43488219896972,48.967012282304495 88.1565772251488,48.85190248992876 87.99754581150773,48.74254787633981 88.11681937173125,48.828880491182645 88.09473167540273,48.84614699149097 88.07264397905965,48.84039149221644 88.01963350785081,48.91521291724348 87.56462696335802,49.1684536114808 87.42326570680598,49.20298630758771 86.92408376964158,49.24902985542576 86.89316099476127,49.208741754016955 86.79597513089539,49.19147541224447 86.71645942407486,49.15118725211141 86.31004581152229,48.82312498940519 86.18193717279064,48.73679236197859 86.15101439791033,48.73679236197859 86.11125654449279,48.75981441440308 85.81086387434334,49.16269815920168 85.81528141362651,49.20298630758771 85.77110602094035,49.20298630758771 85.70926047120884,49.25478529511747 85.70042539268616,49.295073349552695 85.61207460734295,49.36413849010205 85.55906413611956,49.34111678999034 85.42212041885068,49.398671015060245 85.03337696335802,49.43895892269211 81.21220549737336,49.78428215904569 81.11501963350747,49.80730360076632 79.90461387434334,49.922410608000064 79.86927356020897,49.89363388766651 79.81626308900013,49.905144578307954 79.79859293194022,49.933921290292346 79.33475130889565,49.97996398581017 79.05644633510383,49.99147465130227 78.8046465968655,50.014495972220175 78.7339659685822,50.0375172797103 78.70304319373099,50.02600662765326 78.55284685865627,50.05478325153308 78.4468259162386,50.04902792843859 78.4203206806269,50.06629389521913 77.39545157068642,50.1468683070525 77.23642015707446,50.15837892389027 77.18340968586563,50.1468683070525 75.83164267017855,50.27348490775694 75.52683246074594,50.27348490775694 75.5179973822087,50.308016637471155 75.54450261780585,50.308016637471155 75.53566753926862,50.61304560525605 75.5312500000291,50.359814175444626 75.5179973822087,50.38283528161992 75.42081151831371,50.308016637471155 74.94813481676101,50.279240198146 74.78468586388044,50.215931957758585 74.75376308900013,50.256219031551154 74.59031413611956,50.29650606426367 74.16623036650708,50.359814175444626 74.0425392670295,50.3022613512876 73.6714659685822,50.03176195410197 73.62729057592514,50.04327260450009 73.54335732985055,50.1468683070525 73.4859293193731,50.336793055859744 73.45942408377596,50.3943458296817 73.37107329843275,50.48067483314662 73.05742801047745,50.48067483314662 73.0,50.52671689116687 73.03092277486576,50.82598895972842 73.57869764399948,50.81447853750433 73.73331151831371,50.797212897843565 73.76423429320857,50.831744169598096 73.89676047119428,50.88929622206706 73.96744109949213,50.94109299755655 74.08229712041793,51.113748425221274 74.12205497380637,51.240361925727484 74.14856020941806,51.70077123272495 74.08229712041793,52.52373949612593 74.02928664922365,53.70348925959843 73.97627617801481,54.29622827802086 73.9851112565375,54.5206611184185 74.0160340314178,55.274515937861 74.15297774870123,56.94330366848226 74.17064790576114,57.605044796862785 74.27225130889565,58.87670749382232 74.28550392671605,59.56143198897189 74.26783376964158,60.25765228885939 74.32526178010448,60.75823285521619 74.38710732985055,61.88595433698356 74.42244764399948,62.04705477781681 74.42686518323899,62.27719712509497 74.47987565446238,62.564873173811065 74.62565445025393,62.97336956365325 75.08066099476127,63.77308970345621 75.22643979059649,64.08952126004806 75.25736256544769,64.23335294794015 75.29712041885068,64.32540495339708 75.50032722513424,65.19413519162481 75.56217277486576,65.69465321196913 75.71678664922365,66.52883582250433 75.7300392670295,66.6899173322854 75.82280759161222,67.155899430727 75.94208115183574,67.94978220088888 76.03926701570163,68.35822291916702 76.21596858638804,68.88746376748168 76.33965968586563,69.11756627319119 77.05530104714853,70.08973457025786 77.2452552356117,70.33708718400521 77.33802356020897,70.41186790196298 77.3336060209549,70.45788673497373 77.58098821989552,70.54992424026204 77.66492146597011,70.54992424026204 78.0359947643883,70.59019058140257 78.43357329843275,70.64196153116063 78.4910013089102,70.6649708203986 78.57935209425341,70.65921849934239 78.94600785340299,70.7109893586603 78.97251308900013,70.69948472913529 80.25359947644756,70.7224939848602 81.03992146597011,70.75125553568432 81.76881544502976,70.74550322720461 81.94551701570163,70.7224939848602 82.55513743456686,70.7224939848602 86.79597513089539,70.73975091787725 87.22005890052242,70.74550322720461 87.23772905759688,70.78576936906757 87.27306937173125,70.78576936906757 87.2863219895371,70.73975091787725 88.07264397905965,70.75125553568432 88.17866492146277,70.72824629669412 88.6601767015818,70.74550322720461 91.89823298429837,70.74550322720461 93.18373691101442,70.73975091787725 93.88170811517921,70.78001706560099 94.51341623037297,70.77426476128676 94.95517015707446,70.73975091787725 96.74869109947758,70.73975091787725 98.012107329836,70.69373241309222 99.99116492147732,70.5441719024493 100.7023887434625,70.5441719024493 100.86142015707446,70.55567657721622 100.97627617802937,70.61319990077027 101.01161649214919,70.61319990077027 101.15297774870123,70.68222777852134 101.29875654450734,70.79727397349052 101.42244764397037,70.94108124619015 101.47987565446238,71.033117626077 101.5593913612829,71.26320763801778 101.48429319373099,71.06187895083349 101.35176701571618,70.87780611067501 101.16623036650708,70.70523704431616 100.98069371728343,70.58443824947608 100.98511125655205,70.04946771916366 101.2148232984473,69.86539016301685 101.17506544502976,69.76184616083628 101.29433900523873,69.5950246977809 101.25458115185029,69.60652964886685 101.2589986910898,69.52599492084119 101.28108638746198,69.4454600286881 101.87745418847771,69.48572749527739 102.22202225132787,69.47997500257043 102.23527486911917,69.41669752740563 102.14692408377596,69.2498746072306 102.1027486910898,69.2096069002946 102.06299083770136,68.99676262475987 102.11158376964158,69.22686449398316 102.16459424085042,69.34191492615355 102.28386780105939,69.52024243399501 102.75212696337258,69.9516766242159 102.9730039267015,70.08973457025786 102.98625654450734,70.13575377843517 102.9730039267015,70.31407770386431 103.03043193717895,70.33133481523328 103.03484947643301,70.79727397349052 103.05693717279064,70.8835583998989 103.0613547120447,70.85479694537935 103.04368455499934,70.85479694537935 103.11436518325354,70.85479694537935 103.22922120419389,70.75125553568432 103.43684554973152,70.61319990077027 103.66655759162677,70.5326672243391 103.87859947643301,70.49240082457982 104.80628272253671,70.4693914348718 106.44518979058194,70.4693914348718 107.92948298429837,70.48089613139018 108.30497382199974,70.51541020089644 108.33147905759688,70.50390551441524 108.54352094241767,70.50390551441524 108.75998036650708,70.48089613139018 109.31217277486576,70.48089613139018 109.77601439791033,70.45788673497373 110.24869109949213,70.45788673497373 110.6374345549848,70.48664847841064 111.43700916231319,70.45213438378414 111.49443717276154,70.4693914348718 111.50327225132787,70.45213438378414 112.40445026177622,70.42337261524517 112.79761125655205,70.37735374203112 113.31888089007407,70.36584901534661 114.10520287958207,70.31407770386431 115.08589659685094,70.29682058493927 118.17817408377596,70.15876336240763 120.82869764398492,70.05522012896836 121.45157068064145,70.04946771916366 121.48249345549266,70.06097253794724 121.60176701571618,70.06097253794724 123.34669502617908,69.98619115595284 123.54106675393996,69.99194357497254 124.36714659688005,69.96318147148122 124.39365183246264,69.9516766242159 124.70287958117842,69.94592419933906 124.98560209425341,69.8999047701036 125.03861256546224,69.91140963243743 125.09604057591059,69.8999047701036 125.67473821989552,69.87689503538786 125.69682591622404,69.87689503538786 125.78075916231319,69.99194357497254 125.87352748691046,70.07247735338024 126.06348167541728,70.14725857208396 126.34620418849227,70.12424898141762 126.67310209425341,70.11274418104585 126.77470549738791,70.08398216547721 126.86305628273112,70.03221048468913 126.99116492146277,69.87689503538786 127.0,69.85388528728436 126.97349476441741,69.82512308330479 126.9867473822087,69.64679695132509 126.9293193717458,69.47997500257043 126.85863874344795,69.41669752740563 126.73053010471631,69.34766743896398 126.56266361258167,69.33040989801157 126.52290575916413,69.20385436737342 126.49198298429837,68.9564946598839 126.4698952879553,68.63434946355119 126.48314790576114,68.54806012571134 126.4698952879553,68.38698619091883 126.44339005235815,68.35822291916702 126.44339005235815,68.16263211609476 126.39479712041793,67.97854576995087 126.33295157068642,67.88074954973126 126.37270942408941,67.80596404152675 126.38154450261209,67.62762879691945 126.38154450261209,67.41477599970312 126.32411649216374,67.0350897847602 126.33295157068642,66.96030267594324 126.37712696335802,66.93153836562851 126.34178664922365,66.18941191994963 126.34620418849227,65.95929236132724 126.31528141362651,65.59109827971406 126.20042539268616,62.39802132069963 126.16066753928317,62.185140347071865 126.12090968588018,62.08157621538339 126.17392015708901,62.02979404772486 126.17392015708901,62.00102614748539 126.14299738219415,61.972258226265694 126.13416230367147,61.81691108977975 126.1827552356117,61.782389420946856 126.0546465968655,58.83642921272258 126.06348167541728,58.53721783859146 126.01047120419389,57.806442070155754 126.03255890053697,57.49571441844819 126.00605366492528,57.28280702358825 125.93979057591059,57.28280702358825 125.94862565444782,57.10442426865848 125.9972185864026,57.06989848109151 125.97513089005952,56.436920360494696 126.01047120419389,56.08014640415786 126.00605366492528,55.988075182584 125.94862565444782,55.809686579999834 125.92653795810475,54.97527757910939 125.98838350786536,54.68754624988287 126.01047120419389,54.65877300166903 126.04581151834282,54.48037839483368 126.03255890053697,54.158115126938355 126.05906413613411,53.87037784417407 126.05022905759688,53.28338728671224 125.98838350786536,51.90795366961538 125.98838350786536,51.84464804034724 126.00605366492528,51.746811868197256 125.97513089005952,51.68350598060715 125.93537303667108,50.64757703804935 125.94862565444782,50.630311325421644 126.23134816753736,50.590024633282155 126.36387434556673,50.53822739728275 126.48756544504431,50.54973790004442" stroke="#ff0000" stroke-linecap="round" stroke-linejoin="round" stroke-width="0.5"><title>2024-06-25 34.1km</title><desc>11735651473</desc></polyline><polyline fill="none" points="165.0266862786084,71.36512748134191 163.97709602856776,71.38730437124468 163.18281151502742,71.44644269691707 163.07501575959031,71.4760118338927 162.91048539607436,71.43905040997197 162.54171044335817,71.4760118338927 162.3828535406501,71.54254232902895 162.17293549061287,71.52036550702178 162.0878335784655,71.55732687163618 161.96301744063385,71.56471914133363 161.88358898929437,71.57211140996151 160.45955032570055,71.70517206075601 160.33473418783979,71.68299530985314 160.17020382432383,71.69038756124064 159.90355116620776,71.71256430890571 159.4837150661624,71.73474104685374 159.33053162429132,71.74213329069244 158.7121243958827,71.76431001571109 158.46816558099817,71.79387896732442 156.80016810251982,71.8456245911475 156.31792393358774,71.86780127090606 156.19310779575608,71.86780127090606 155.91510821602424,71.86040904539914 155.84135322546354,71.87519349532886 155.6711494011106,71.94172346673804 154.44000840513036,72.03782216020409 152.98192897666013,72.14131285717667 151.57491069551907,72.40003867555788 150.65581004411797,72.48135223154532 148.34671149399946,72.71790001669433 147.31414162638248,72.76225260356296 147.18932548852172,72.79182097326338 146.54822441688157,72.84356557873616 145.33410380329587,72.99140701772922 145.20361420465633,73.05054347262558 144.6305946627399,73.08011167424411 144.56251313301618,73.08750372194118 144.28451355325524,73.10228781409751 143.99516705190763,73.13185598553537 143.8192897667468,73.14664006477324 143.11578062616172,73.21316836802725 142.83778104640078,73.21316836802725 142.6448833788454,73.22056039635208 141.90166001257603,73.2723045643288 141.06198781254352,73.31665666630215 140.84072284091963,73.3757927418992 140.02374448408955,73.50884865987246 139.70035721786553,73.53841659423415 139.06492960700416,73.57537648795551 138.9457869300095,73.59016043787415 138.3897877705167,73.63451226184407 138.15150241644005,73.66408012292959 136.83525950828334,73.81931111079757 136.72179029203835,73.82670305075226 136.29060727040633,73.82670305075226 136.16011767173768,73.84148692740928 135.32044547170517,72.76225260356296 135.25803740278934,71.24685057135866 135.2410170203657,71.1581427078163 134.97436436224962,71.14335804879374 134.75309939059662,71.17292736253148 133.78293759189546,71.23206593821305 133.41416263917927,71.29120444492946 133.42550956079504,70.89941055275267 133.27799957973184,68.74818637018325 133.23828535404755,67.72059346653987 133.1872242067475,66.9960909874826 133.16453036351595,66.37508062232155 133.0737549905316,64.47503738405794 133.05106114727096,63.676554383499024 133.05673460807884,61.53981116355499 133.23261189321056,60.53425377727763 133.2155915107869,59.43994807386116 133.37444841352408,59.26249086884127 133.38579533513985,58.97412158562656 133.2950199621555,58.85581576409095 133.2212649716239,58.73750966642547 133.13616305944743,56.92591305886526 133.07942845133948,56.511824742909084 133.1134692162159,56.43788004477756 133.0737549905316,56.31956830338822 133.05106114727096,55.454405300839426 133.0,54.840648233508546 133.0340407648764,54.41914811139941 133.0340407648764,54.07898756216309 133.0340407648764,53.70185037140618 133.05673460807884,53.27294584182164 133.3687749526871,53.191601469818124 134.04959025001153,53.12504688655463 134.70203824332566,52.97714749967054 134.6453036351886,52.61479217770466 134.6453036351886,52.46689130174855 134.59424248788855,51.668219112929364 134.56020172301214,49.99688287745812 134.53183441897272,49.1759851605384 136.3700357217458,49.10942530338434 136.5175457028381,49.13161193216729 136.5175457028381,49.60492436517961 136.54591300690663,50.12260477700329 136.57428031097515,50.322280093998415 136.54591300690663,50.36665227980848 136.9260348812677,50.351861555514915 137.2891363731469,50.33707082691035 137.16999369615223,49.77501994096019 136.9260348812677,48.044455698804086 137.11325908801518,47.23831799000618 137.13027947043884,46.24726873667896 137.8054213070136,46.15112113586292 139.06492960700416,46.210288911788666 139.21243958809646,46.210288911788666 139.29186803949415,46.165913086329965 139.73439798274194,46.210288911788666 141.254885480128,46.165913086329965 141.35700777472812,46.165913086329965 141.9470476990682,46.23247680997156 142.7583525950613,46.239872773858224 142.9001891153166,46.173309059926396 142.99663794910884,46.24726873667896 143.0817398612853,46.173309059926396 143.97814666945487,46.173309059926396 144.14267703299993,46.24726873667896 146.44042866144446,46.20289294358372 146.576591720921,46.36560399492737 146.54255095607368,48.251534874809295 146.5709182601131,48.43642628113594 146.54255095607368,48.495591388676985 146.576591720921,49.449619210408855 146.58793864253676,49.72325178269239 146.6503467114817,50.130000173143344 146.66169363309746,50.5959079542954 146.59361210337374,50.72162836773714 146.70140785878175,51.490734694983985 146.7524690060527,51.557291424553114 146.96238705606083,51.734775609387725 147.43895776421414,51.81612231973122 147.6318554317986,51.77914655848872 148.369405337231,51.72738044743528 148.45450724940747,51.71998528440963 149.29985291024786,51.69040462145858 149.46438327376381,51.683009453034174 151.39903341035824,51.54250104775929 151.68270645089797,51.57947698164571 152.10254255094333,51.56468661132385 152.70392939689918,51.51292028122043 153.16347972262884,51.557291424553114 154.5364572388935,51.4167826707162 155.0470687118941,51.394597042399255 156.1420466484269,51.36501618952025 156.68669888630393,51.33543531938267 156.82853540658834,51.320644877858285 157.60012607689714,51.30585443199743 158.58730825802195,51.372411404350714 160.3687749527162,51.37980661811889 161.28787560408819,51.34283053854233 161.54885480139637,51.23929737218714 163.23387266229838,50.980463530951965 163.3076276528882,50.97306825893611 171.78945156544796,50.640279900511814 172.12418575331685,50.69204712201463 172.12985921412474,50.706837747049576 172.3965118722408,50.66246585908084 172.79365412899642,50.93609188256596 173.36667367094196,51.09139248193969 173.70708131958963,51.150554489853675 175.35238495483645,51.069206711159495 176.82181130489334,50.99525407178953 178.06429922251846,50.94348716000604 179.45997058207286,50.95827771163022 180.18617356588948,50.96567298582886 180.71380542128463,50.987858801898255 181.65559991594637,51.0100446082979 181.95629333893885,51.180135467893706 182.25698676193133,51.461153898231714 182.93780205925577,51.70519495509143 185.3887371296296,52.407730830494984 185.55326749317464,52.659162356329034 185.6440428661299,54.02722380015621 185.70077747426694,55.07727834464458 185.7121243958827,55.52095682534491 185.6780836310063,56.134705654592835 185.6837570918142,56.31217381038732 185.90502206343808,57.77626238676385 186.02416474049096,58.937151046062354 186.21706240807544,60.896552487203735 186.35322546752286,62.56752935174882 186.4099600756308,63.0702903724341 186.6652658121311,64.88166741242094 186.87518386213924,65.78363510726194 187.0,66.78169541161333 186.91489808785263,67.52098667392784 186.53477621346246,68.46726376000515 186.10359319183044,69.75358085334665 185.8255936120986,71.52775778209252 185.751838621567,71.66821080390582 185.62702248367714,71.76431001571109 185.08237024582922,71.87519349532886 183.81718848497258,71.63124952008366 182.6314351754554,71.75691777511747 182.2342929186998,71.75691777511747 182.14919100652332,71.7199565559713 178.20613574280287,71.38730437124468 176.35091405757703,71.23206593821305 175.93107795756077,71.09900404591099 175.1140996007598,71.07682702991951 173.3893675141735,71.09161170831794 173.26455137634184,71.06943468908867 172.8447152763256,71.07682702991951 172.77663374657277,71.11378871785564 172.59508300060406,71.08421936965169 172.27169573438005,71.09900404591099 172.18659382223268,71.17292736253148 172.11283883167198,71.09900404591099 171.86320655597956,71.10639638241628 170.22357638159883,71.18771201290656 169.8718218112772,71.17292736253148 169.724311830214,71.20249665899246 169.44063878964516,71.20249665899246 169.11725152339204,71.2246736200359 168.90733347338391,71.2246736200359 168.90166001260513,72.10435191822398 168.92435385583667,72.34829361748052" stroke="#ff4d00" stroke-linecap="round" stroke-linejoin="round" stroke-width="0.5"><title>2024-06-22 27.1km</title><desc>11711771666</desc></polyline><polyline fill="none" points="15.56921420886647,167.1554715283637 15.418083961238153,167.07974240904878 14.906566200195812,166.9131381524494 14.871689989231527,166.77682538009685 14.871689989231527,166.62536653452116 14.883315392886288,166.54963702899113 14.871689989231527,166.261864404456 14.813562970899511,166.11040480827796 14.83681377832545,166.04982090802514 14.685683530697133,165.95894499137648 14.453175457485486,165.74690087686758 14.290419806260616,165.64087865733745 14.360172228247393,165.48941815608123 14.360172228247393,165.42883389377675 14.313670613570139,164.80784316852805 14.313670613570139,163.97480100164103 14.232292787986808,162.14208472677274 14.232292787986808,161.7179804874686 14.197416577022523,161.4907810757868 14.220667384273838,161.0060873372713 14.232292787986808,160.83947334246477 14.33692142093787,160.4456573836651 14.476426264795009,160.06698678493558 14.453175457485486,159.97610563592752 14.627556512423325,159.35508232342545 14.685683530697133,159.1884656813054 14.674058127042372,158.23420158375666 14.581054897804279,158.1433188316514 14.56942949409131,157.90096443752554 14.56942949409131,157.81008139396 14.650807319732849,157.7191982709046 14.650807319732849,157.5374317863243 14.546178686781786,157.46169565727905 14.534553283127025,157.37081222950656 14.48805166844977,156.35594188592222 14.48805166844977,155.55312697999034 14.557804090436548,154.91692963007517 14.66243272338761,154.43220522502088 14.82518837461248,154.37161451539578 14.848439181922004,154.2655806885159 14.99956942955032,153.41730617770372 15.057696447824128,153.20523646788206 15.080947255133651,152.87198319218442 15.034445640456397,151.94795715495275 15.034445640456397,151.40262645719486 14.976318622182589,150.569476808545 14.98794402583735,150.2210667924519 14.964693218586035,150.14532533002057 14.99956942955032,150.06958381236473 14.964693218586035,149.72117211986188 14.976318622182589,149.44850128468534 14.941442411218304,149.37275925903668 14.941442411218304,149.19097817209695 14.929817007563543,148.63048448521295 14.941442411218304,148.55474186314677 14.894940796599258,148.28206796655286 14.906566200195812,147.90335303403845 14.871689989231527,147.34285240036843 14.790312163648196,146.96413404404302 14.697308934351895,146.69145597265742 14.56942949409131,146.41877718557225 14.383423035498708,146.16124656284228 14.360172228247393,146.07035324944445 14.25554359529633,145.9946087608696 13.639397201361135,145.16141574164794 13.51151776110055,144.90388200198504 13.453390742768534,144.81298758848425 13.430139935400803,144.70694400555658 13.418514531804249,144.5251547544467 13.453390742768534,144.4342600095697 13.418514531804249,144.20702279947 13.441765339113772,144.13127695232834 13.418514531804249,144.0403818628256 13.406889128149487,142.96478393181314 13.52314316475531,142.8587384622806 13.395263724436518,142.76784225933807 13.360387513472233,141.67708162077906 13.267384284175932,139.93487073374126 13.267384284175932,139.48037613166525 13.186006458534393,138.3592809443653 13.186006458534393,138.23808073991677 13.33713670616271,138.16233054033364 13.348762109875679,138.02598004187166 13.16275565122487,137.98052983596426 13.0,135.84434772525128 13.0,135.79889656477462 13.023250807309523,135.7685957800495 13.441765339113772,135.6019413061149 14.534553283127025,135.37468477441143 15.022820236859843,135.2231801436501 15.115823466097936,135.25348108751496 15.278579117381014,135.19287919102499 15.336706135654822,135.08682578711887 16.057481162599288,134.81411653698888 16.15048439183738,134.84441760014306 16.31324004306225,134.78381546498713 16.46437029063236,134.72321329449915 16.510871905309614,134.61715941106377 16.999138859042432,134.42020191166375 18.20818083966151,133.9808338364528 18.894079655525275,133.76872444534092 19.1033369214274,133.7384230683747 19.173089343414176,133.69297098639072 20.10312163620256,133.4505595465016 21.34703982778592,133.23844907247258 21.42841765342746,133.25359983501403 23.49773950484814,133.11724289291305 24.404520990327,133.10209211047186 26.590096878411714,133.02633816534217 27.822389666340314,132.99603657183616 27.92701829923317,133.04148895881372 28.020021528587677,133.04148895881372 28.71754574816441,132.99603657183616 29.10118406888796,132.98088577177987 29.159311087219976,132.9202825493703 31.403013993578497,132.84452847164357 32.32142088271212,132.84452847164357 33.1584499462042,132.95058416498068 33.786221743852366,133.10209211047186 34.30936490854947,133.26875059528538 34.844133476901334,133.49601173456904 35.809041980654,134.13234027924773 35.843918191676494,134.23839465765195 35.96017222822411,134.2232440387961 36.169429494126234,134.3747501280086 36.22755651240004,134.46565367545554 36.47168998926645,134.69291219599108 37.27384284173604,135.35953432126553 37.34359526372282,135.61709172387054 37.16921420884319,135.75344538435456 37.738858988159336,137.253323836645 38.08762109797681,138.086580285526 38.1806243272149,138.58653094654437 38.19224973092787,138.9501299159383 38.25037674920168,139.26827797017904 38.43638320779428,139.3288774890534 38.44800861139083,139.58642505005264 38.63401507004164,139.6318745532917 39.15715823468054,139.61672472109785 39.23853606026387,139.73792331697769 40.052314316504635,139.70762368128635 40.133692142087966,139.61672472109785 40.4010764262639,139.61672472109785 40.49407965550199,139.6773240367329 41.470613563025836,139.61672472109785 43.37717976322165,139.58642505005264 43.446932185208425,139.57127521118673 43.49343379982747,139.49552598378796 44.20258342305897,139.48037613166525 44.30721205595182,139.55612537009438 45.02798708289629,139.52582568133948 45.28374596341746,139.49552598378796 45.37674919271376,139.4349265620549 45.46975242195185,139.49552598378796 45.55113024759339,139.51067583366967 45.667384284199215,139.48037613166525 45.93476856837515,139.48037613166525 46.01614639401669,139.419776701121 46.10914962325478,139.419776701121 46.20215285255108,139.419776701121 46.28353067813441,139.45007642082783 46.550914962310344,139.4349265620549 46.63229278795188,139.4046268380116 46.981054897769354,139.3894769726394 47.074058127065655,139.4046268380116 47.32981700752862,139.37432710506255 47.60882669541752,139.4046268380116 47.78320775029715,139.4046268380116 47.86458557593869,139.37432710506255 48.213347685697954,139.4046268380116 48.562109795515426,139.3894769726394 48.81786867597839,139.29857773405092 50.701184068922885,139.20767841592897 51.177825618942734,139.14707882631046 51.23595263721654,139.16222872701474 51.38708288484486,139.1319289233943 52.096232508076355,139.0713292895889 53.003013993555214,139.0713292895889 53.29364908504067,139.02587954105547 53.37502691068221,139.0713292895889 53.5610333692166,139.0713292895889 53.63078579120338,139.02587954105547 54.339935414434876,139.04102945942577 54.421313240076415,139.17737862553622 56.43250807322329,139.0713292895889 58.29257265874185,139.02587954105547 59.09472551132785,138.9652798453826 60.74553283100249,138.90468011436315 61.512809472566005,138.84408034798253 61.66393972019432,138.8895301760931 62.22195909585571,138.8895301760931 63.6402583423187,138.82893040089402 64.67491926805815,138.82893040089402 65.11668460711371,138.78348054629896 65.29106566199334,138.81378045158635 65.68632938642986,138.78348054629896 65.76770721212961,138.82893040089402 66.02346609259257,141.35894094376272 66.20947255118517,142.07096872811235 66.24434876209125,142.31336005179037 66.41872981702909,143.02538129444292 66.46523143164814,143.31321828390355 66.5698600645992,143.69194994973805 66.58148546825396,143.85859144527785 66.68611410120502,144.34336518520286 66.80236813786905,145.009925383878 66.91862217441667,145.84311961806088 66.98837459634524,146.14609768281662 66.98837459634524,146.3127352417505 67.0,146.47937253346026 66.98837459634524,147.10047281134757 66.95349838538095,147.448893292727 66.88374596339418,147.78216396405332 66.88374596339418,147.87305577979714 66.8139935414656,148.22147367015714 65.75608180841664,150.78155189844983 65.4886975242407,151.4783670030738 65.4305705059669,151.67529216389812 65.34919268026715,152.05399334713002 65.19806243275525,152.5841726847284 65.13993541448144,152.75079991779785 65.10505920345895,152.91742688357044 64.59354144241661,156.21961526366067 64.55866523145232,156.38623666658532 64.47728740586899,156.5528578022786 64.43078579119174,156.62859459381434 64.29128094727639,156.7497733455093 64.03552206675522,156.84065731646115 63.62863293866394,156.94668851546885 63.12874058127636,157.03757231422787 62.96598493005149,157.03757231422787 62.500968783628196,157.0224250199317 62.187082884891424,156.9618358207954 61.14079655543901,156.6740366422673 60.88503767491784,156.62859459381434 60.5595263724681,156.5377104373547 59.83875134552363,156.65888929500215 58.51345532829873,156.79521534092055 58.15306781488471,156.79521534092055 57.33928955870215,156.7497733455093 57.24628632940585,156.7800680113287 57.141657696454786,156.73462600925996 56.85102260496933,156.6891839873424 55.897739504871424,156.62859459381434 55.52572658774443,156.5528578022786 53.04951560817426,156.32564709644794 46.237029063515365,155.85607672983315 46.155651237932034,155.82578179459233 45.493003229319584,155.7500444178513 45.01636167924153,155.6440119977051 44.93498385359999,155.65915949289774 44.272335845045745,155.4622418828003 43.83057050593197,155.41679930437385 42.08675995696103,155.35620916889457 40.66846071043983,155.40165177382005 39.59892357379431,155.38650424108346 39.482669537188485,155.44709435886034 39.25016146397684,155.43194683273032 39.19203444564482,155.4622418828003 39.12228202371625,155.85607672983315 39.12228202371625,156.8558046372491 39.15715823468054,157.03757231422787 39.18040904199006,157.52228456494777 39.18040904199006,157.90096443752554 39.21528525301255,158.68861415178253 39.19203444564482,158.90067267009 39.12228202371625,159.03699577474617 39.00602798705222,159.23390661015583 39.00602798705222,159.32478840839758 39.01765339076519,159.40052317949448 39.075780409039,159.46111095660308 39.226910656667314,159.58228640491143 39.2617868676316,159.70346171190613 39.3547900969279,159.91551815907587 39.2617868676316,160.05183993230457 39.296663078595884,160.7182993602837 39.296663078595884,160.79403311568603 39.2617868676316,160.85462008028844 39.2617868676316,160.91520700960245 39.1687836383353,160.96064718333218 38.889773950504605,160.9000602805827 37.1343379978789,160.94550046096992" stroke="#4dd2ff" stroke-linecap="round" stroke-linejoin="round" stroke-width="0.5"><title>2024-06-18 12.9km</title><desc>11680680583</desc></polyline><polyline fill="none" points="79.36478045023978,177.0 79.2579377036891,176.96203711847193 79.18023388803704,176.83549406012753 79.18023388803704,176.6077160904024 79.19965984195005,176.44320940725447 79.18023388803704,176.32931998248387 79.13166900316719,176.24073921548552 79.15109495713841,176.19012159377598 79.05396518751513,176.13950394256972 78.84027969447197,175.9749963722861 78.79171480966033,175.96234193089185 78.69458504003705,175.8864152437818 78.7528629018343,175.73456167036056 78.7431499248487,175.57005333279085 78.7431499248487,175.1271447207837 78.71401099395007,174.93732605253172 78.71401099395007,174.50706886799162 78.69458504003705,174.21601132825162 78.64602015528362,172.2671661395434 78.64602015528362,172.08999622581177 78.71401099395007,171.64706985968223 78.76257587881992,171.4698986804724 78.95683541800827,170.93838297350158 79.02482625667471,170.64731346924236 79.05396518751513,170.4195192634943 79.05396518751513,170.0145503107051 78.97626137186307,169.93861842174374 79.0151132796891,169.6095794687717 79.04425221058773,169.55895798072015 79.04425221058773,169.43240413139574 78.92769648705143,169.38178253998922 78.85970564832678,168.0909219860696 78.84999267139938,167.6100082446428 78.89855755621102,167.02784594042168 79.02482625667471,166.4203680692226 79.18994686496444,166.3697447213999 79.30650258850073,165.62304691183817 79.36478045023978,165.3952395217566 79.36478045023978,165.31930359220132 79.33564151934115,165.24336759622383 79.33564151934115,165.07883937705628 79.35506747325417,165.0029031707454 79.34535449632676,164.6738455090017 79.32592854241375,164.19291283660277 79.29678961151512,164.04103880751063 79.28707663458772,163.82588347810815 79.28707663458772,163.74994617571792 79.30650258850073,163.6740088068691 79.29678961151512,163.4082274928005 79.2676506806747,163.2690083844427 79.2579377036891,163.05385114144156 79.24822472670348,162.7121297181875 79.2676506806747,162.6615042077392 79.2676506806747,162.44634545893496 79.23851174977608,162.3957197934651 79.22879877284868,161.5097658682207 79.19965984195005,161.38320028356247 79.20937281887745,161.10475534776197 79.19965984195005,160.59848953966866 79.16080793406582,160.32004208653962 79.06367816450074,160.05425050257327 78.9956873258343,159.91502601471439 78.84027969447197,159.67454682796233 78.73343694792129,159.5353217310403 78.72372397093568,159.48469436770392 78.65573313221103,159.45938067495445 78.57802931650076,159.37078269224003 78.4906125239213,159.20624334154127 78.20893619209528,158.8645067703692 78.1020934455446,158.64933860937163 78.08266749163158,158.5860537546323 77.99525069899391,158.52276885371975 77.98553772206651,158.43416991495906 77.95639879116789,157.07986059389805 78.08266749163158,156.99126018224342 77.95639879116789,156.90265968011954 77.94668581418227,156.826716320611 77.91754688328365,155.8521039751795 77.83013009070419,154.24460255867598 77.83984306763159,153.99145001573197 77.83013009070419,153.9408194185744 77.77185222890694,152.99149025224324 77.90783390641445,152.90288566691015 77.92725986026926,152.75099188157765 77.74271329806652,152.70036056071694 77.52902780496515,150.06749117204163 77.49017589713912,149.25736144418624 77.43189803540008,147.76366493201203 77.45132398925489,147.7003721391302 77.43189803540008,147.63707930011878 77.36390719661722,146.24462516221683 77.26677742705215,144.9154435509554 77.50960185105214,144.7002408036642 78.44204763910966,144.42174233849073 78.86941862531239,144.30781089061202 78.98597434884869,144.4344013790469 79.5396140354569,144.269833708051 79.7921514363843,144.15590206067282 79.85042929818155,144.10526572493836 79.87956822908018,144.00399296485557 79.88928120606579,143.86474272672785 79.86014227516716,143.81410622107796 79.83100334426854,143.6368782187128 79.84071632119594,143.57358241580368 79.71444762073224,142.45956872829265 79.74358655163087,142.38361272878683 79.72416059771786,141.90255652127962 79.73387357470347,141.32022175450402 79.83100334426854,139.9656453309144 79.89899418299319,139.49723547896428 79.86985525215277,139.4086171144154 79.89899418299319,139.04148292565515 79.89899418299319,138.53508839216374 79.84071632119594,137.82613108018268 79.68530868989183,136.92726616003347 79.5396140354569,136.35755822029023 79.50076212768909,136.2942571071908 79.33564151934115,135.81316713835258 79.33564151934115,135.7625259338165 79.27736365760211,135.71188469976187 79.2676506806747,135.61060214289319 79.11224304931238,135.3573952335355 79.08310411841376,135.2054707332427 79.04425221058773,135.15482917403278 78.83056671748636,134.6484119561137 78.77228885568911,134.57244911846647 78.73343694792129,134.44584424126515 78.6265942013124,134.26859710284043 78.616881224385,134.1546523226425 78.58774229348637,134.12933124004485 78.54889038566034,134.04070739279996 78.51975145481993,133.68621109848755 78.80142778658774,133.42033792725124 79.21908579586307,133.3443740143848 79.29678961151512,133.42033792725124 80.5497636392247,133.28107070286205 80.56918959319592,133.09116049115255 81.05483844113769,133.0025355834223 82.230108653137,132.9012498637676 84.25040786073077,132.82528549639392 84.33782465331024,133.01519629005634 84.40581549203489,132.82528549639392 85.1828536487883,132.7873032877833 85.20227960270131,132.749321062518 85.1828536487883,132.6353742870342 85.20227960270131,132.4834450201961 85.37711318797665,132.58473122763098 85.42567807278829,132.774642547869 85.54223379626637,132.774642547869 85.59079868107801,132.72399956981099 85.5810857040924,132.2049073400267 85.59079868107801,132.10362068918766 85.59079868107801,131.86306441945635 85.59079868107801,131.52122015196073 85.56165975017939,131.38194987906172 85.5810857040924,131.07808668942744 85.56165975017939,130.88817165538785 85.5810857040924,130.77422243549518 85.571372727165,130.66027306588512 85.60051165806362,130.47035711727221 85.59079868107801,130.1918129739861 85.61993761191843,129.40682012213801 85.65878951980267,129.07762745751097 85.67821547371568,128.72311088324204 85.68792845064308,128.19133330549084 85.66850249673007,128.12802623384778 85.66850249673007,127.97608907349058 85.67821547371568,127.90012039353314 85.63936356588965,127.53293750243756 85.62965058890404,127.25438392772776 85.54223379626637,126.29210106039682 85.52280784229515,125.78563210594439 85.52280784229515,125.68433796021418 85.48395593452733,125.38045481341396 85.46452998061432,125.13987990056194 85.49366891145473,125.02592313003697 85.48395593452733,124.97527562844334 85.43539104971569,124.19023557202308 85.52280784229515,123.96231938624987 85.60051165806362,123.86102311145078 86.02788264420815,123.83569902426825 86.0958734829328,123.73440260165808 86.17357729864307,123.73440260165808 89.92278640490258,123.58245774589886 89.99077724356903,123.68375434596965 90.15589785185875,123.6710922774073 90.23360166751081,123.56979566258087 94.52673748345114,123.44317472768307 96.67330539150862,123.32921572820487 100.60706105997087,123.24058084737044 100.68476487562293,123.34187784668029 100.84988548391266,123.34187784668029 100.93730227655033,123.22791871415393 101.50065494014416,123.2152565790966 102.21941523515852,123.2152565790966 102.30683202779619,123.31655360793957 102.38453584344825,123.2152565790966 110.28118611127138,123.0 110.34917694993783,123.02532433115266 110.4268807656481,123.11395943193202 111.18449296848848,123.11395943193202 112.01009600999532,123.07597297125176 112.4860318810097,123.07597297125176 112.72885630500969,123.22791871415393 112.77742118976312,123.24058084737044 112.74828225886449,123.34187784668029 112.77742118976312,123.56979566258087 112.78713416669052,124.21555955569056 112.82598607451655,124.49412288823805 112.90368989028502,124.76002341664571 113.19507919903845,125.40577844965446 113.2727830146905,125.78563210594439 113.31163492251653,125.9122496217824 113.30192194553092,126.11483726267033 113.34077385341516,126.49468781428004 113.46704255387885,127.40632235208614 113.54474636953091,127.68487543897936 113.58359827735694,128.19133330549084 113.62245018524118,128.330608700453 113.72929293173365,128.59649746992363 113.82642270135693,129.0649661762218 113.82642270135693,129.28020770665898 113.87498758611036,129.59673839896277 113.9138394939946,130.1918129739861 113.81670972442953,130.98945972526417 113.80699674744392,131.33130608801002 113.7875707935309,131.40727176349174 113.74871888570487,131.68581200446351 113.72929293173365,131.8250817895605 113.6515891160816,132.0023339200634 113.54474636953091,132.10362068918766 113.49618148471927,132.21756816308334 113.45732957689324,132.24288980360143 113.2727830146905,132.17958568839094 113.12708836031379,132.17958568839094 112.45689295011107,132.2049073400267 112.31119829573436,132.25555062112107 112.27234638790833,132.30619387266051 112.30148531874875,132.36949789548817 112.43746699619805,132.44546266193356 112.50545783492271,132.4581234498546 113.6515891160816,132.42014108046715 113.74871888570487,132.6353742870342 113.76814483955968,132.73666031708126 113.74871888570487,132.7873032877833 113.7875707935309,132.82528549639392 113.75843186269049,132.83794622888672 113.7875707935309,133.07849979560706 113.92355247098021,133.10382118487178 114.10809903318295,133.25574936532212 114.31207154929871,133.4709804988961 114.428627272835,133.68621109848755 114.5548959732987,133.68621109848755 114.66173871984938,133.77483530784957 114.84628528211033,133.8761200077206 115.24451733741444,134.0280468357887 117.59505776152946,134.69905381088756 118.00300279376097,134.7750165376856 118.1584104251815,134.85097919794498 118.5469295035582,134.95226264153462 118.72176308877533,134.97758348396746 119.00343942060135,135.07886677977513 119.35310659109382,135.15482917403278 119.41138445289107,135.2054707332427 119.92617223173147,135.34473486865318 120.0912928400212,135.45867808598268 120.17870963265887,135.54730048484635 120.25641344831092,135.72454501103493 120.28555237920955,136.05371245623246 120.28555237920955,136.5221408982179 120.32440428703558,137.05386741639813 120.32440428703558,137.2564290423834 120.42153405665886,138.15529055257502 120.45067298749927,138.71232681505353 120.44096001051366,138.90222472356254 120.47009894141229,139.57319400511915 120.49923787231091,139.64915246474993 120.50895084929653,139.86436773936293 120.4895248953253,140.0922421541618 120.52837680315133,141.24426475766813 120.45067298749927,141.6746868605769 120.46038596442668,141.76330291084014 120.49923787231091,141.87723769964214 120.4895248953253,141.95319414241385 120.56722871103557,142.58616191303736 120.56722871103557,142.80136990328901 120.81005313497735,144.269833708051 120.95574778935406,145.57370746498782 121.06259053596295,146.89022031336208 121.120868397702,147.3206144125288 121.120868397702,147.43454190500051 121.17914625949925,147.8396162225181 121.19857221335405,148.16873771329847 121.31512793689035,149.27001977936015 121.35397984471638,149.47255289073655 121.36369282170199,149.8016681887093 121.41225770645542,150.38394604299538 121.53852640691912,151.61178001789085 121.59680426871637,152.38391413618956 121.64536915352801,152.826938807455 121.62594319955679,152.9408590717212 121.64536915352801,153.23198795648932 121.70364701526705,153.4724849943159 121.7619248770061,153.6496929115092 121.7716378539335,153.96613472086756 121.93675846222322,155.48503934567998 122.18929586320883,156.72545840453677 122.25728670193348,157.00391738942562 122.2767126558465,157.15580373189005 122.4126943332376,157.7886606312677 122.46125921804924,157.9152314574385 122.60695387242595,158.94044834692613 122.72350959590403,159.5100080530974 122.73322257288964,159.8390852908924 122.71379661897663,160.48457932590827 122.6652317342232,160.85162281281373 122.59724089549854,161.21866474762646 122.07274013973074,162.54759670126077 121.99503632402048,162.80072429043503 121.82020273874514,163.16775798356684 121.53852640691912,163.87650830947678 121.44139663735405,164.18025667766778 121.2568500751513,164.92696689798322 121.15972030552803,165.19274356202368 121.09172946686158,165.72429444885347 120.89746992767323,166.86332110338844 120.82947908894857,167.40751745121815 120.69349741149927,168.14154433017393 120.65464550367324,168.25544449653535 120.56722871103557,168.35668896332936 120.41182107967325,168.45793331213645 120.28555237920955,168.50855544224032 119.62506994599244,168.66042165541148 119.03257835144177,168.67307716118376 118.61492034222465,168.58448858201882 117.72132646199316,168.35668896332936 117.6630486001959,168.35668896332936 117.22596463706577,168.2681000613302 116.90543639741372,168.33137785774306 115.81758297799388,168.47058884741273 115.29308222216787,168.48324438087002 114.77829444338568,168.4452777749757 114.59374788112473,168.48324438087002 114.52575704240007,168.41996669518994 110.97080747538712,168.1035775748678 105.56067930907011,167.7365647507031 104.5213907744619,167.57204125686985 104.46311291272286,167.58469692129438 103.81234345649136,167.3568946790474 103.64722284814343,167.33158328188438 102.09314653469482,167.31892758056347 101.91831294941949,167.34423898137902 101.62692364066606,167.33158328188438 100.27681984333321,167.34423898137902 99.90772671886953,167.31892758056347 99.84944885713048,167.36955037484586 99.83002290315926,167.4454845109576 99.78145801840583,167.48345155411516 99.7523190875072,167.48345155411516 99.71346717968117,167.3568946790474 99.4900687096524,167.36955037484586 99.47064275573939,167.39486176092032 99.46092977875378,167.98967720926157 99.49978168657981,169.1413295778184 99.49978168657981,169.25522843241197 99.4803557326668,169.369127137521 99.50949466356542,169.72347770899069 99.51920764049282,170.22969030207605 99.49978168657981,170.39420875924407 99.47064275573939,170.47014024974487 99.40265191701474,170.45748500594345 99.3540870322031,170.59669258631038 99.41236489400035,170.76121034802782 99.4803557326668,170.78652074519778 99.57748550229007,170.84979670594475 99.55805954831885,170.97634848904272 99.65518931794213,171.12821038525 99.58719847921748,171.22945150182932 99.6260503870435,171.64706985968223 99.57748550229007,171.79893058262678 99.53863359440584,171.84955076462938 99.44150382484077,171.83689572186995 99.05298474646406,171.91282595053053 97.41149164037779,172.00141113339487" stroke="#4dd2ff" stroke-linecap="round" stroke-linejoin="round" stroke-width="0.5"><title>2024-06-16 17.5km</title><desc>11665911436</desc></polyline><polyline fill="none" points="133.0,135.13180607254617 134.67213114758488,134.63504874906357 135.77868852461688,134.37865699339454 136.66393442626577,134.2344363678858 137.83196721313288,134.10624009730236 144.5081967212609,133.80177335505869 146.106557377032,133.7697241752394 147.79098360659555,133.62550275020476 149.94262295082444,133.5293550282804 151.77459016389912,133.46525650023978 153.02868852461688,133.48128113578423 153.803278688516,133.40115793485165 155.16803278686712,133.3691086380495 156.8032786885742,133.2088620141003 162.606557377032,132.79221969763603 164.29098360653734,132.7601702232496 165.2500000000582,132.7281207394335 166.46721311478177,132.59992271087685 168.45901639346266,132.45569974987302 169.553278688516,132.42365017729753 171.69262295082444,132.40762538747367 176.22950819676043,132.3275014033643 177.69262295088265,132.37557580082648 179.3032786885742,132.3916005952924 179.6598360656062,132.35955100398132 183.1147540983511,132.23135254524095 183.88934426230844,132.27942698478728 184.03688524587778,132.3275014033643 184.1352459016489,132.43967496476398 184.18442622950533,132.58389794675895 184.33196721307468,133.94599454872514 184.60245901643066,135.6766341023249 184.73770491807954,136.76628205499583 185.09426229511155,140.66008273683838 185.5983606557129,145.69137387832598 185.67213114752667,146.81296788273175 185.77049180329777,147.4698961963877 185.9549180328031,149.216345049339 186.16393442626577,150.38596958440758 186.75409836065955,153.22185682997224 186.97540983610088,154.80799913233932 187.0,155.2245579607843 186.95081967214355,156.21788417852804 186.88934426230844,156.6184164031365 186.840163934452,156.87475626070227 186.72950819676043,157.19518024161516 185.62295081967022,159.95078790539264 185.51229508197866,160.20711998881598 185.35245901637245,160.65569969581702 184.98360655742,162.06550971046818 184.51639344263822,165.23751611130137 184.3934426230262,165.63801545967 184.20901639346266,165.8943342765706 183.9385245901649,166.07055311635486 183.63114754098933,166.16667236443027 183.21311475412222,166.26279152844654 182.70901639346266,166.29483123109094 182.303278688516,166.29483123109094 181.97131147544133,166.23075181645254 180.2254098361591,165.7821948677083 179.4016393442871,165.8943342765706 178.04918032785645,166.02249346084136 177.69262295088265,166.0385133483578 177.32377049181378,166.02249346084136 172.33196721313288,165.55791570676956 168.4098360656062,165.31761609775276 167.52459016395733,165.2214961070058 164.3032786885742,164.98119576234603 163.95901639346266,164.91711558165844 163.393442622968,164.756914966536 162.86475409840932,164.64477439693292 162.58196721313288,164.53263371292996 162.39754098362755,164.51661360585422 160.23360655742,164.56467392003105 158.05737704917556,164.5806940200855 157.38114754098933,164.62875430624263 156.82786885247333,164.59671411781164 155.4016393442871,164.62875430624263 148.44262295076624,164.86905542165914 147.72950819676043,164.86905542165914 147.803278688516,166.45502960422164 147.76639344263822,167.76864745475905" stroke="#4dd2ff" stroke-linecap="round" stroke-linejoin="round" stroke-width="0.5"><title>2024-06-10 10.8km</title><desc>11618274362</desc></polyline><polyline fill="none" points="30.003460207604803,251.71020867076004 29.968425605562516,251.02549288389855 29.886678200680763,250.41685285799758 29.863321799319237,250.00601883416675 29.82828719727695,249.26042703090934 29.851643598638475,248.89523726571497 29.82828719727695,248.81915590375138 29.75821799307596,248.78872334351036 29.13927335635526,248.83437218060135 23.533737024234142,248.98653482680675 17.426038062258158,249.2299945992636 16.573529411747586,249.27564324341074 15.627595155674499,249.36694047172932 15.253892733540852,249.35172427256475 15.125432525936048,249.29085945366387 15.02032871969277,249.21477838014107 14.938581314869225,249.00175107921677 14.90354671276873,248.75829077429808 14.880190311407205,247.70836170418625 14.92690311424667,247.0692692730081 14.845155709364917,246.24757325414248 14.740051903121639,243.4476715751589 14.728373702440877,242.61072986064391 14.775086505163927,242.0324753009627 14.75173010386061,241.78899873837508 14.669982698920649,241.30204390911967 14.623269896197598,240.48030248246505 14.58823529415531,240.19116970092 14.529844290635083,239.91725369534106 14.366349480987992,239.5520312361259 13.478806228376925,238.31939599991892 13.350346020713914,238.10634645873506 13.245242214528844,237.83242498095933 13.210207612428349,237.61937444561772 13.198529411805794,237.26936190757988 13.280276816629339,236.61498749176098 13.291955017310102,236.1736628945364 13.198529411805794,234.39312746097858 13.198529411805794,233.63220561677008 13.11678200692404,232.18643882629112 13.070069204142783,230.05579862338345 13.0,228.89914715135092 13.035034602042288,228.7926128183026 13.221885813109111,228.71651679949719 13.980968858173583,228.54910536285024 14.494809688592795,228.41213216944743 16.328287197218742,227.68160543458362 18.62889273354085,226.87497622333467 19.493079584732186,226.6162447781171 20.602508650510572,226.41839088711276 21.26816608995432,226.3422931368841 22.038927335641347,226.2814148966936 26.243079584790394,226.11399955305387 28.823961937741842,225.9770231629882 29.781574394437484,225.9770231629882 31.533304498298094,225.9161447096849 32.11721453286009,225.93136432635947 32.80622837372357,226.007462376263 33.39013840834377,226.1292191408138 33.88062283740146,226.2509757632797 34.44117647060193,226.4792690474278 34.95501730107935,226.72278133323562 35.27032871975098,226.92063464706007 35.655709342623595,227.20980420007982 36.204584775085095,227.71204415062675 36.47318339103367,228.00121151041094 36.776816609024536,228.38169365764043 36.9169550173101,228.57954382586468 37.057093425653875,228.86870878158516 37.88624567480292,231.01459209842142 38.003027681668755,231.47115732339444 38.10813148791203,232.1255639956653 38.14316608995432,232.18643882629112 38.236591695516836,232.21687622832542 38.59861591696972,232.23209492598835 38.72707612457452,232.24731362145394 38.72707612457452,232.3842817806144 38.80882352939807,232.59734300426499 38.902249134960584,232.70387345294148 39.04238754324615,232.74952932620363 39.46280276821926,232.76474794618116 42.615916954993736,232.64299892415147 43.81877162633464,232.61256164647057 45.10337370244088,232.53646841331647 45.8741349481279,232.52124976005143 46.93685121112503,232.47559378687583 49.29584775090916,232.4147191249358 50.67387543251971,232.33862574756495 51.31617647060193,232.20165752841422 52.121972318331245,232.1560014154311 53.3715397923952,232.1407827066796 53.803633217990864,232.23209492598835 53.94377162633464,232.23209492598835 60.07482698961394,231.95815802828292 61.69809688581154,231.89728306451434 62.7491349481279,231.89728306451434 65.29498269897886,231.82118930977595 65.47015570936492,231.82118930977595 65.61029411770869,231.85162681832298 65.71539792395197,231.92772055082605 65.75043252599426,232.00381422787177 65.78546712803654,232.1712201219707 66.03070934256539,234.30181713268394 66.7080449827481,237.52806694015453 66.94160899659619,238.98897744073474 67.0,239.58246648983186 66.95328719727695,240.38899748009135 66.88321799307596,240.9216088678004 66.80147058825241,241.28682653410215 65.63365051907022,244.16287099473993 65.36505190312164,244.9845834264779 65.17820069205482,245.65412210612703 65.09645328723127,246.0497565797341 64.61764705885435,249.1843459351876 64.54757785471156,249.397372863481 64.48918685130775,249.53431851630012 64.40743944636779,249.67126398948312 64.2439446367207,249.82342541562684 64.04541522497311,249.92993828189356 63.823529411805794,250.00601883416675 63.34472318342887,250.09731542365626 62.94766435987549,250.12774760238244 62.55060553638032,250.11253151413985 62.23529411770869,250.06688323603157 60.97404844290577,249.74734473027638 60.460207612544764,249.67126398948312 60.17993079585722,249.67126398948312 58.439878892793786,249.8842899239753 57.79757785471156,249.8842899239753 56.05752595158992,249.74734473027638 53.254757785471156,249.4734538038756 45.9091695502284,248.95610231528553 45.11505190306343,248.83437218060135 44.145761245745234,248.57569517295633 43.585207612486556,248.49961357811844 39.89489619375672,248.49961357811844 39.49783737020334,248.51482990152726 39.252595155732706,248.57569517295633 39.11245674744714,248.68220931260294 39.04238754324615,248.77350706001016 39.00735294120386,248.88002099774167 38.98399653984234,249.03218357736478 39.04238754324615,251.32981156591995 39.019031141884625,251.7254245261356 38.94896193774184,252.3949199659619 38.97231833910337,252.59272461503133 39.077422145346645,252.9883327885982 39.1241349481279,253.27743012109568 39.14749134948943,253.55131106592307 39.10077854670817,253.77954463763308 39.05406574392691,253.87083792658814 38.97231833910337,253.9317000749288 38.86721453286009,253.99256218768278 38.68036332185147,254.02299323078478 37.12716262973845,254.0838552903151" stroke="#4dd2ff" stroke-linecap="round" stroke-linejoin="round" stroke-width="0.5"><title>2024-06-01 13.6km</title><desc>11547136752</desc></polyline><polyline fill="none" points="83.58085084197228,213.0 83.72784412003239,216.95051840153974 83.72784412003239,217.3525705782813 83.75724277566769,218.00350437615634 83.75724277566769,218.37363888972686 83.80134075906244,218.72462562652072 83.81114031092147,218.97350542720596 83.8209398627805,219.29258002691495 83.81114031092147,219.8350015142787 83.87483739806339,220.6964806646538 83.89443650183966,221.17507287473563 83.92873493337538,222.01738246970126 83.93853448523441,223.07662761519168 83.97773269272875,223.77214212947365 84.11492641890072,223.75938049467004 84.92828922410263,223.73385721393788 86.00134015385993,223.73385721393788 86.7755047515675,223.72747639141744 86.89799914995092,223.73385721393788 87.00579422051669,223.75938049467004 87.06949130765861,223.81042701158003 87.13318839482963,223.90613907051738 87.24588324132492,224.21241625442053 87.35857808784931,224.4357420183478 87.46637315838598,224.81220287291217 87.63786531612277,225.15675743101383 87.70646217922331,225.31627251281316 87.75056016264716,225.52683153180988 87.75056016264716,225.9670880300655 87.7897583701124,226.2095462421712 87.79955792197143,226.32439440080634 87.7603597145062,227.5494227015115 87.72606128297048,227.76635122808148 87.6476648680109,228.02794008219644 87.43697450277978,228.55749322726115 87.28508144881926,228.83821760098363 87.23608368946589,228.94667880932684 87.19688548197155,229.08703997465636 87.15768727450632,229.28482085386713 87.11358929108246,229.6421001799863 87.0939901873644,230.3885493743037 87.10868951515295,230.84789640681993 87.13808817078825,231.1541250877017 87.2703821210016,231.74743706934532 87.47617271027411,232.39815710619223 87.56926845305134,232.6342002223464 87.72116150701186,232.92765745936777 87.98084963156725,233.3487013682534 88.18664022081066,233.65491258024485 88.48552655286039,234.04405290934665 88.96080481854733,234.70749730916577 89.36748622116284,235.3262777486525 90.12695149111096,236.41071724782523 90.3425416322134,236.76155957832816 90.49933446213254,237.05498918973535 90.64632774016354,237.39306869857683 90.73942348296987,237.68011529182695 90.87661720914184,238.24782413147477 90.91581541660707,238.58589444290192 90.94521407221328,239.03877700167868 90.95501362410141,239.7276598121207 90.93541452035424,240.25707165427957 90.95501362410141,240.72269365412285 90.96971295188996,243.36325092353945 91.00401138345478,244.38371355136042 91.01381093531381,244.4793807053211 91.0383098149614,244.53040310208598 91.0971071262029,244.5814254395118 91.21470174865681,244.61969215360295 91.4743898731831,244.65795883432656 91.65078180687851,244.65158105653245 91.89087082768674,244.61969215360295 92.24855447091977,244.54315869200582 93.69888814765727,244.2752905245834 94.77193907741457,244.13497797439777 95.53140434733359,244.06482153094476 96.06058014833252,243.99466497526373 96.33496760067646,243.9882871009977 97.2169272689498,244.02017646303284 97.48151516943472,244.0010428485948 98.01559074636316,243.89899676390996 98.12338581692893,243.89899676390996 98.17728335221182,243.92450830734742 98.21158178377664,243.9882871009977 98.22138133563567,244.1094665533965 98.24098043938284,244.70898102335195 98.34877550994861,246.794462200618 98.41737237302004,248.3058957534704 98.4320717008377,248.3760454130679 98.4614703564439,248.40155435238557 98.57416520293918,248.45894941157894 98.70155937725212,248.48445830267883 100.19599103741348,248.5482304654979 100.35768364326213,248.5482304654979 101.21024465595838,248.58011651215202 101.6806231457158,248.60562533276607 101.80801731999964,248.63113413855535 101.85701507938211,248.66302012493543 101.89131351088872,248.70128327797647 101.90601283873548,248.79056383862917 101.93051171838306,249.4856705596103 101.96481014991878,249.88104744936936 101.97950947773643,250.43584449520495 102.04810634083697,251.78773435096446 102.01380790927215,252.2277272511201 102.04810634083697,252.76336482515762 102.04810634083697,253.27348976750363 102.09710410019034,254.23633443116705 102.09220432423172,254.40212012143093 102.05300611676648,254.64442115712882 102.07260522051365,254.70180804852498 102.1461018595146,254.73368962241148 102.45478774342337,254.77832378693347 102.96436444064602,254.82933420507106 103.6258341918874,254.91222600802575 103.90512142018997,254.93773114665964 104.21870708002825,254.93773114665964 104.71848422539188,254.90584972105353 106.99688003514893,254.63804483123022 107.32516502277576,254.62529217666452 107.50645673234249,254.60616318782922 107.53095561204827,254.57428152126886 108.44231393595692,254.4786363825442 108.68240295676515,254.47226003253672 108.88819354603766,254.49138907975794 109.09888391121058,254.53602349079665 109.3340731561184,254.60616318782922 109.53496396943228,254.69543173095735 109.72605523088714,254.79745270069543 109.87304850894725,254.89947343314634 110.08863865007879,255.06525661741034 111.02449585363502,255.8750347060668 111.99955126471468,256.69754990415095 112.56302549724933,257.1885012390994 112.95500757201808,257.50092195549223 113.58707866765326,258.0875017806975 113.80756858471432,258.272400317368 114.22404953918885,258.5911890679927 115.29710046894616,259.50928772876796 115.5126906100777,259.70693145528276 115.6302852325316,259.840818635148 115.73808030309738,260.01295869468595 115.8311760458455,260.19147359865747 115.87527402926935,260.3253593000336 115.90957246080507,260.47199555183033 116.0075679795118,262.5312268052003 116.05656573886517,263.3217419263019 116.08106461851276,264.1632423748015 116.12026282600709,264.8517307396687 116.14476170571288,265.07484965160984 116.19375946503715,265.35534038860715 116.27705565595534,265.6868271301355 116.39465027838014,266.0884327126514 116.41914915805683,266.23504970796057 116.41914915805683,266.45816158710295 116.37995095056249,266.7258943448578 116.3260534152796,266.87250921056693 116.27705565595534,266.94262919058383 116.22805789660197,266.97450187174036 116.14476170571288,266.993625469313 116.05166596293566,267.0 115.34609822829952,266.9043819426588 114.9345170497254,266.87250921056693 114.64053049366339,266.87250921056693 109.1331823427754,266.987250937731 108.49131169531029,266.993625469313 108.26592200229061,266.987250937731 107.91313813495799,266.9362546515804 107.69264821789693,266.8852583061671 107.5407551639073,266.83426190150203 107.31046569495811,266.74501805076943 106.34031005986617,266.29879607489784 106.11002059088787,266.17767789858044 105.85033246636158,265.99918734526 105.66414098080713,265.8398201663513 105.46814994342276,265.6422040607722 105.36035487285699,265.514709326857 105.24276025040308,265.35534038860715 104.45879610083648,264.112242806983 104.29710349495872,263.87636903478415 104.13051111318055,263.6787440873559 103.9737182832614,263.51299344519794 103.82182522927178,263.3854925252235 103.62093441595789,263.2324909322124 103.38084539512056,263.0858639050166 103.15545570212998,262.9711119767635 102.94966511285747,262.8882353975059 102.73897474765545,262.82448407619086 102.41558953595813,262.7479823683607 101.69042269757483,262.65235504599696 101.63162538636243,262.63322955652256 101.6512244901096,262.6268543915103 101.75901956067537,262.63322955652256 101.75411978474585,262.6204792255776 101.71982135318103,262.61410405870265 101.58752740293858,262.63322955652256 101.40133591741323,262.61410405870265 101.15144734474597,262.5822282104964 100.85256101269624,262.51210126291335 100.70556773463613,262.4547245860849 100.62227154374705,262.4100982300188 100.39198207482696,262.23796757433956 100.24988857269636,262.1168381896641 100.200890813343,262.03395999695203 100.19109126148396,261.9447063835869 100.26948767644353,261.4028055481467 100.32828498765593,261.09041261377206 100.30868588393787,261.11591416117153 100.26458790051402,261.28804921843766 100.19109126148396,261.88732896485453 100.1714921577659,261.938331118552 100.12249439838342,261.925580585681 100.07349663903005,261.88732896485453 99.92650336099905,261.72794685247936 99.86770604975754,261.6323173071687 99.79910918668611,261.4601836004367 99.75011142733274,261.2752984966246 99.57371949366643,260.1787225581902 99.49532307870686,259.9109498520411 99.39732756002923,259.6495511102694 99.28953248943435,259.4200289798209 99.19643674668623,259.254262250015 98.58396475479822,258.3807887524599 98.44187125269673,258.1321325332974 98.35857506180764,257.95360925045316 98.28017864684807,257.75595762572266 98.2017822318885,257.4945460447525 98.15278447253513,257.29051641153274 97.9420941073331,257.3287720400331 97.83919881269685,257.3351479748708 95.73229516064748,257.2267569565556 95.3893108452321,257.1821252829541 95.30601465434302,257.15662144907037 95.26681644684868,257.1056137368505 95.25211711906013,257.0418540131941 95.242317567172,256.7676861454893 95.21781868749531,256.4871405073427 95.22271846345393,256.3851234668473 95.20311935967766,256.25760183265083 95.18842003188911,255.6518690082885 95.17372070410056,255.46695942728547 95.14432204849436,255.4159497505534 95.0120280982519,255.3649400145041 94.90423302765703,255.25654412847507 94.85033549237414,255.2437916536801 94.79153818116174,255.25016789153233 93.70378792358679,255.39044488994477 93.65968994019204,255.37131623475943 93.64009083644487,255.33305889935218 93.64499061240349,255.28842529922258 93.67438926800969,255.21828669298338 93.6792890439392,255.18640547126415 93.63519106054446,255.16090047719263 93.55189486962627,255.12901921377124 93.50779688623152,255.12901921377124 93.43920002310188,255.1417717219265 93.34120450442424,255.18002922414234 93.13051413922221,255.2756728337008 93.06191727609257,255.33305889935218 92.93942287773825,255.47971183722984 92.8953248943144,255.51796904472576 92.81202870342531,255.53072143979807 92.76303094410105,255.51796904472576 92.72383273660671,255.49884044514693 92.7189329606772,255.46058322094905 92.73853206442436,255.4159497505534 93.22360988197033,254.84846309657587 93.26280808943557,254.75281855563298 93.25790831353515,254.68905541248023 93.21871010604082,254.5934105239794 93.07661660393933,254.38299103530517 92.93942287773825,254.19807610599673 92.87572579059633,254.12793575648902 92.78752982374863,254.07692452277843 92.47884393983986,253.99403114148663 92.29265245434362,253.89838473768395 92.09176164100063,253.73897360123738 92.0231647779292,253.6752089844631 91.93006903515197,253.54130298755263 91.8516726201924,253.40739658190796 91.77327620523283,253.19697140432618 91.72917822180898,252.9801686504943 91.45479076946503,250.65903672969944 91.42539211382973,250.2700438143911 91.39599345825263,249.58132658557588 91.40579301011167,249.24971813704178 91.39599345825263,248.28676400866243 91.4155925619707,248.01891870500185 91.42539211382973,247.67454376823662 91.39599345825263,247.38118520789794 91.39109368229401,246.53936279275513 91.36659480261733,245.86334218588672 91.3567952507874,244.3518244536681 91.36169502668781,243.64388051332935 91.32249681922258,240.97144858663887 91.32249681922258,239.9891773041054 91.28819838765776,239.3704626688086 91.26369950801018,238.66881695138363 91.22450130051584,238.28609637305635 91.16570398930344,237.9480237500684 91.08730757434387,237.63546372297424 90.93051474442473,237.17618780399062 90.8080203460413,236.8955168184766 90.61202930865693,236.52553868323594 90.45523647870868,236.27675852645552 90.23474656164763,235.94504945484732 89.63207412164775,235.10938662995613 89.27929025431513,234.64370501469966 88.76971355712158,233.9100869564245 88.51982498442521,233.5081866413857 88.05924604655593,232.8064470995887 87.90245321660768,232.5193685948616 87.77015926636523,232.23228821015073 87.64276509205229,231.93244669000342 87.56926845305134,231.68364046738498 87.50557136588031,231.36465606487764 87.43697450277978,230.79685808535214 87.42717495092074,230.40130907910134 87.44677405466791,229.92281760760306 87.58396778083988,229.06789984221905 87.62316598833422,228.6021540433394 87.65256464394042,228.43627078279314 87.75545993854757,228.09174200491543 87.97594985566684,227.51114108537513 88.02004783906159,227.34525369575204 88.02984739092062,227.22402789859188 88.02004783906159,227.14108373892668 88.00044873531442,227.05813942229724 87.96125052784919,226.95605389407137 87.92205232035485,226.91139140069936 87.91225276849582,226.87948959183632 87.877954336931,226.6944586426289 87.87305456100148,226.35629661369967 87.9073529925372,225.80757531694326 87.89265366471955,225.59701764670172 87.84365590539528,225.41198128320684 87.77015926636523,225.18866049381904 87.56436867709272,224.7802995360871 87.50557136588031,224.6207825035017 87.48107248620363,224.44212273774974 87.47617271027411,224.05927793002047 87.44677405466791,223.9189006625711 87.40267607127316,223.7976653879232 87.37327741563786,223.74661885614842 87.30468055256642,223.6891914368607 87.2115848097892,223.6509064488455 87.10378973922343,223.63814477872802 86.91269847773947,223.625383104918 85.94254284261842,223.64452561427242 84.82539392946637,223.64452561427242 84.41381275095046,223.6317639422923 84.26191969693173,223.61262142738633 84.18352328197216,223.59347890410208 84.12472597075976,223.5488129839614 84.09042753922404,223.48500444764795 84.07572821140639,223.40843408142246 84.06592865954735,223.25529294764056 84.06592865954735,222.66824697726042 84.05612910765922,222.41938815992762 84.0512293317588,222.03652568143298 84.01693090019398,221.5770862919162 83.98753224458778,221.04106758278795 83.98263246865827,220.30084049115248 83.95323381305207,219.8350015142787 83.91403560558683,219.38830195376795 83.88953672588104,218.8841641229301 83.87973717402201,218.38002049186252 83.88953672588104,217.92054276313138 83.8454387424863,217.57593130461464 83.82583963873913,217.129208713337 83.6739465847495,213.03191191499718" stroke="#ff1f00" stroke-linecap="round" stroke-linejoin="round" stroke-width="0.5"><title>2024-05-24 31.2km</title><desc>11483634688</desc></polyline><polyline fill="none" points="164.3780458670517,266.9392854031503 163.9379111554008,266.7908716089878 163.85506226852885,266.70991842977674 163.82399393591913,266.56150390013136 163.78774754790356,265.15828846355726 163.72043282730738,264.30824303663394 163.61687171866652,263.85622839588177 163.71525477187242,263.45818199708447 163.71525477187242,262.4866645474067 163.6945425501326,261.7445194222164 163.87577449023956,260.7729659974684 163.8602403239347,259.2481257447798 163.8291719913541,258.42496100826247 163.73596699361224,256.6976169087611 163.66865227298695,256.52217991658836 163.39421533513814,256.48169436239914 163.28029811562737,256.4344611710585 163.2336956167419,256.299508930133 163.10424423101358,252.9053306314272 163.01103923324263,252.67589408802814 162.881587847427,251.03606448915525 162.86605368115124,249.82808698872395 162.91265618003672,249.7066126454847 163.77739143703366,249.4231712708679 164.23823837042437,249.28819857732742 164.14503337265342,248.70106277797458 164.0932528183621,248.08692425535264 164.1243211509136,247.33105026538033 164.1916358715389,246.1094777968392 164.06218448578147,245.3265746109646 163.8602403239347,244.73263921666876 163.54437894263538,244.03745514733964 163.5081325546198,243.83497238560085 163.53402283176547,243.67973500131484 163.75667921529384,243.59199190147774 164.77157807984622,243.45025269624603 165.64666944768396,243.37600817730345 166.92047108375118,243.31526257316364 167.0188541369571,243.23426831020697 167.15866163361352,243.0047837949205 167.205264132499,242.9440377032115 167.23115440964466,241.58735420026278 167.26222274222528,240.80437446542783 167.16383968901937,239.44087811403733 167.15348357814946,238.52960814129256 167.117237190163,237.84108114159244 167.14312746730866,236.64625995930692 167.1068810792931,236.61250750014005 167.0602785804076,236.64625995930692 167.02403219239204,237.00403451177772 166.97742969350656,237.09179011134256 166.8738685848657,237.11879180077085 166.4130216515041,237.10529095803213 166.36641915261862,237.01078494843387 166.30428248745739,236.6192579939525 166.23178971142625,236.56525401593535 165.73987444545492,236.55175301157578 165.34116417725454,236.5180004834474 165.2583152903826,236.43024379498456 165.25313723491854,236.0184601865367 165.18582251435146,234.4658004862431 165.19617862519226,235.59992226949544 165.16511029258254,235.8496953531976 164.75604391351226,235.86994716570553 165.21171279149712,235.68092990391233 165.14957612630678,233.60168902810256 165.05637112853583,233.44641728889837 164.60588030604413,233.52067775097385 164.48160697566345,233.57468528482423 164.46089475398185,233.71645476106642 164.45053864308284,234.3105316487272 164.3003750355856,234.39154154203788 162.74695840623463,234.4793020996367 162.67964368563844,234.57381328307383 162.66928757476853,235.0193634031093 162.6175070204772,235.08011990502564 162.40002869235468,235.1476270357598 162.24986508482834,235.13412561751102 161.9909623132844,235.1273749068896 161.7475937079871,235.05311702514518 161.69063509828993,234.94510534790243 161.66474482111516,234.60081644286402 161.61296426679473,234.51305611589123 161.58189593424322,234.54005931116262 161.49904704731307,234.4995545123602 160.79483150868327,234.55356090288842 159.9663426397019,234.57381328307383 159.88349375280086,234.5265577154969 159.83171319848043,233.93248360334474 159.7799326441891,233.77046206625892 159.65565931380843,233.70295292492665 159.20516849131673,233.68270016331007 159.13785377069144,233.5611834072879 159.10678543811082,232.83882721036935 158.9566218306427,228.8285324303979 158.9773340523243,228.57196974707767 159.0860732164001,228.3626675561536 159.26730515650706,228.2006264994634 159.47960542916553,228.13986095679502 161.37995177239645,228.04533662054018 162.21361869684188,227.99807437992786 163.47706422201009,227.95756384951164 163.3993933905731,227.14059390984403 163.37350311342743,226.1142971617228 163.31654450364294,224.64233178859286 163.26994200475747,224.55455255608467 163.07317589840386,224.4937822205684 162.3534261934692,224.51403900795776 161.89775731554255,224.48702995612257 161.8356206503522,224.41275498224786 161.78901815146673,223.960350291316 161.77866204062593,221.66449704339902 161.79419620687258,221.25933463247202 161.71134732000064,220.95546049355835 161.6492106548103,219.8277323354705 161.61296426679473,218.95659414265174 161.62332037766464,218.38257938249444 161.54564954619855,217.20751516776363 161.5301153798937,216.69425935418258 161.39030788326636,216.47139650233294 161.07444650196703,216.25528604387728 160.89321456188918,216.19450479533043 160.5825312359957,216.1607374004925 160.10615013635834,216.1404769517576 159.66601542467833,215.95137900178815 158.51130906355684,214.86405077332165 158.36632351146545,214.79651401463707 157.9210107443796,214.37778390767562 157.60514936308027,214.14140233302896 157.36695881324704,214.35752267721546 156.9216460461612,214.81002137427276 156.80772882667952,214.79651401463707 156.64720910831238,214.6209179800935 156.4038405030442,214.3305076894685 155.730693296995,214.05360315448343 155.11968275613617,213.74292779865937 155.04718998007593,213.72266628984653 154.94362887149327,213.58758933745412 154.72615054337075,213.43900423378363 153.92355195153505,213.0 153.7630322331388,213.01350788475247 153.69571751254261,213.14858651526447 153.576622237626,213.79695844535672 153.59215640393086,214.01983419526005 153.56108807132114,214.16166365824756 153.4989514061599,214.24946263148013 153.06399474994396,214.04009557376776 152.99668002934777,214.07386451821367 152.8931189207069,214.148156109095 152.83616031095153,214.4925973790414 152.7947358675301,214.8708044437808 152.74295531323878,215.82306209507806 152.78955781209515,216.43087586835463 152.92418725331663,217.86933661874355 153.08470697165467,219.7939675951202 153.22969252371695,221.2728401033928 153.146843636845,221.5834648453274 153.04328252820414,222.36677014262023 153.05363863910316,223.5417032000587 153.1261314151052,224.52754352792908 153.25558280089172,226.24933750927084 153.34360974322772,228.0250813804778 153.31771946605295,228.30190222643796 153.18826808026643,228.4099294240259 153.18826808026643,228.45719124358584 153.3125414106471,228.49094965652694 154.0840716699022,228.4774462943169 154.1358522241935,228.6124797390912 154.21870111109456,230.48940378058614 154.22905722196447,231.5358571222605 154.07371555900318,233.31814893718547 154.13067416878766,234.61431801685103 154.58116499127937,238.15834485613595 154.63812360100565,238.82661662341343 154.68990415532608,239.67038031361153 154.78828720853198,239.85938126986366 155.06272414635168,240.11588133218174 155.2698463636043,240.41287962711067 155.29055858534412,240.7031261180491 155.23359997561784,240.9663713601949 155.26466830819845,242.44456681329757 155.3578733059694,244.03745514733964 155.48214663629187,246.0284884265675 155.57017357862787,246.87886974196954 155.63748829922406,249.09923614477157 155.6219541329483,250.58392017974256 155.6012419112085,251.30599928369702 155.64784441009397,251.81212277846498 155.7203371861542,253.41818467315534 155.75140551873483,254.1334716062156 155.78247385131544,254.82850397653237 155.82907635017182,254.9297214119506 156.0413766228594,254.9904517668947 156.6989896626328,254.98370395362144 156.91128993529128,255.0579298455923 157.0096729884972,255.14565120078623 157.05627548735356,255.2941023460735 157.03556326564285,256.02285560575547 156.9630704896117,256.4681991697762 156.98378271132242,256.67062664558034 157.08216576449922,256.7246071562331 157.23232937205466,256.7988302555459 157.41873936756747,256.84606307492504 158.19026962679345,256.80557780412346 161.93918175896397,256.6166460719469 162.17219425339135,256.65713150808006 162.22915286311763,256.7650924978807 162.26022119572735,257.68275074123085 162.3327139717585,259.0929400702553 162.3327139717585,259.8553690339795 162.41038480319548,260.86067651920894 162.74695840623463,261.86596216620455 162.7935609051201,262.1223402458345 162.84534145941143,263.3299968348292 162.91783423544257,263.6470857996137 163.1249564526952,264.3149894903763 163.20780533959623,266.46705804257 163.23887367220595,266.89206288389687 163.28029811562737,266.9662696782434 164.33144336816622,266.97976180988917" stroke="#ff5300" stroke-linecap="round" stroke-linejoin="round" stroke-width="0.5"><title>2024-05-19 26.5km</title><desc>11444336332</desc></polyline></svg>