<?xml version="1.0" encoding="utf-8" ?>
<svg baseProfile="full" height="300mm" version="1.1" viewBox="0,0,200,300" width="200mm" xmlns="http://www.w3.org/2000/svg" xmlns:ev="http://www.w3.org/2001/xml-events" xmlns:xlink="http://www.w3.org/1999/xlink"><defs /><rect fill="#222222" height="300" width="200" x="0" y="0" /><text fill="#FFFFFF" style="font-size:12px; font-family:Arial; font-weight:bold;" x="10" y="20">Over 10km Runs</text><text fill="#FFFFFF" style="font-size:4px; font-family:Arial" x="10" y="280">ATHLETE</text><text fill="#FFFFFF" style="font-size:9px; font-family:Arial" x="10" y="290">miko gao</text><text fill="#FFFFFF" style="font-size:4px; font-family:Arial" x="120" y="280">STATISTICS</text><text fill="#FFFFFF" style="font-size:3px; font-family:Arial" x="120" y="285">Number: 7</text><text fill="#FFFFFF" style="font-size:3px; font-family:Arial" x="120" y="290">Weekly: 1.4</text><text fill="#FFFFFF" style="font-size:3px; font-family:Arial" x="141" y="285">Total: 139.6 km</text><text fill="#FFFFFF" style="font-size:3px; font-family:Arial" x="141" y="290">Avg: 19.9 km</text><text fill="#FFFFFF" style="font-size:3px; font-family:Arial" x="167" y="285">Min: 10.8 km</text><text fill="#FFFFFF" style="font-size:3px; font-family:Arial" x="167" y="290">Max: 31.2 km</text><polyline fill="none" points="45.026686278608395,71.36512748134191 43.97709602856776,71.38730437124468 43.182811515027424,71.44644269691707 43.075015759590315,71.4760118338927 42.910485396074364,71.43905040997197 42.54171044335817,71.4760118338927 42.3828535406501,71.54254232902895 42.17293549061287,71.52036550702178 42.087833578465506,71.55732687163618 41.96301744063385,71.56471914133363 41.88358898929437,71.57211140996151 40.45955032570055,71.70517206075601 40.334734187839786,71.68299530985314 40.170203824323835,71.69038756124064 39.90355116620776,71.71256430890571 39.483715066162404,71.73474104685374 39.330531624291325,71.74213329069244 38.71212439588271,71.76431001571109 38.468165580998175,71.79387896732442 36.80016810251982,71.8456245911475 36.317923933587736,71.86780127090606 36.19310779575608,71.86780127090606 35.91510821602424,71.86040904539914 35.841353225463536,71.87519349532886 35.6711494011106,71.94172346673804 34.44000840513036,72.03782216020409 32.98192897666013,72.14131285717667 31.574910695519065,72.40003867555788 30.65581004411797,72.48135223154532 28.346711493999464,72.71790001669433 27.31414162638248,72.76225260356296 27.189325488521717,72.79182097326338 26.548224416881567,72.84356557873616 25.334103803295875,72.99140701772922 25.203614204656333,73.05054347262558 24.630594662739895,73.08011167424411 24.562513133016182,73.08750372194118 24.284513553255238,73.10228781409751 23.99516705190763,73.13185598553537 23.819289766746806,73.14664006477324 23.115780626161722,73.21316836802725 22.837781046400778,73.21316836802725 22.644883378845407,73.22056039635208 21.90166001257603,73.2723045643288 21.06198781254352,73.31665666630215 20.840722840919625,73.3757927418992 20.023744484089548,73.50884865987246 19.70035721786553,73.53841659423415 19.06492960700416,73.57537648795551 18.94578693000949,73.59016043787415 18.389787770516705,73.63451226184407 18.151502416440053,73.66408012292959 16.835259508283343,73.81931111079757 16.72179029203835,73.82670305075226 16.290607270406326,73.82670305075226 16.16011767173768,73.84148692740928 15.32044547170517,72.76225260356296 15.258037402789341,71.24685057135866 15.241017020365689,71.1581427078163 14.974364362249617,71.14335804879374 14.753099390596617,71.17292736253148 13.782937591895461,71.23206593821305 13.414162639179267,71.29120444492946 13.425509560795035,70.89941055275267 13.27799957973184,68.74818637018325 13.238285354047548,67.72059346653987 13.187224206747487,66.9960909874826 13.16453036351595,66.37508062232155 13.073754990531597,64.47503738405794 13.051061147270957,63.676554383499024 13.056734608078841,61.53981116355499 13.23261189321056,60.53425377727763 13.215591510786908,59.43994807386116 13.374448413524078,59.26249086884127 13.385795335139846,58.97412158562656 13.295019962155493,58.85581576409095 13.221264971623896,58.73750966642547 13.136163059447426,56.92591305886526 13.079428451339481,56.511824742909084 13.11346921621589,56.43788004477756 13.073754990531597,56.31956830338822 13.051061147270957,55.454405300839426 13.0,54.840648233508546 13.034040764876409,54.41914811139941 13.034040764876409,54.07898756216309 13.034040764876409,53.70185037140618 13.056734608078841,53.27294584182164 13.36877495268709,53.191601469818124 14.049590250011533,53.12504688655463 14.70203824332566,52.97714749967054 14.645303635188611,52.61479217770466 14.645303635188611,52.46689130174855 14.59424248788855,51.668219112929364 14.560201723012142,49.99688287745812 14.531834418972721,49.1759851605384 16.370035721745808,49.10942530338434 16.517545702838106,49.13161193216729 16.517545702838106,49.60492436517961 16.54591300690663,50.12260477700329 16.574280310975155,50.322280093998415 16.54591300690663,50.36665227980848 16.926034881267697,50.351861555514915 17.289136373146903,50.33707082691035 17.169993696152233,49.77501994096019 16.926034881267697,48.044455698804086 17.113259088015184,47.23831799000618 17.130279470438836,46.24726873667896 17.805421307013603,46.15112113586292 19.06492960700416,46.210288911788666 19.21243958809646,46.210288911788666 19.291868039494148,46.165913086329965 19.73439798274194,46.210288911788666 21.254885480127996,46.165913086329965 21.357007774728118,46.165913086329965 21.947047699068207,46.23247680997156 22.758352595061297,46.239872773858224 22.900189115316607,46.173309059926396 22.996637949108845,46.24726873667896 23.081739861285314,46.173309059926396 23.978146669454873,46.173309059926396 24.142677032999927,46.24726873667896 26.440428661444457,46.20289294358372 26.576591720920987,46.36560399492737 26.542550956073683,48.251534874809295 26.570918260113103,48.43642628113594 26.542550956073683,48.495591388676985 26.576591720920987,49.449619210408855 26.587938642536756,49.72325178269239 26.65034671148169,50.130000173143344 26.661693633097457,50.5959079542954 26.593612103373744,50.72162836773714 26.70140785878175,51.490734694983985 26.752469006052706,51.557291424553114 26.962387056060834,51.734775609387725 27.438957764214138,51.81612231973122 27.631855431798613,51.77914655848872 28.369405337231,51.72738044743528 28.45450724940747,51.71998528440963 29.299852910247864,51.69040462145858 29.464383273763815,51.683009453034174 31.399033410358243,51.54250104775929 31.682706450897967,51.57947698164571 32.102542550943326,51.56468661132385 32.703929396899184,51.51292028122043 33.163479722628836,51.557291424553114 34.53645723889349,51.4167826707162 35.0470687118941,51.394597042399255 36.14204664842691,51.36501618952025 36.68669888630393,51.33543531938267 36.828535406588344,51.320644877858285 37.60012607689714,51.30585443199743 38.58730825802195,51.372411404350714 40.368774952716194,51.37980661811889 41.287875604088185,51.34283053854233 41.548854801396374,51.23929737218714 43.23387266229838,50.980463530951965 43.307627652888186,50.97306825893611 51.78945156544796,50.640279900511814 52.12418575331685,50.69204712201463 52.129859214124735,50.706837747049576 52.39651187224081,50.66246585908084 52.79365412899642,50.93609188256596 53.366673670941964,51.09139248193969 53.70708131958963,51.150554489853675 55.35238495483645,51.069206711159495 56.821811304893345,50.99525407178953 58.06429922251846,50.94348716000604 59.459970582072856,50.95827771163022 60.186173565889476,50.96567298582886 60.71380542128463,50.987858801898255 61.65559991594637,51.0100446082979 61.95629333893885,51.180135467893706 62.25698676193133,51.461153898231714 62.93780205925577,51.70519495509143 65.38873712962959,52.407730830494984 65.55326749317464,52.659162356329034 65.6440428661299,54.02722380015621 65.70077747426694,55.07727834464458 65.71212439588271,55.52095682534491 65.6780836310063,56.134705654592835 65.68375709181419,56.31217381038732 65.90502206343808,57.77626238676385 66.02416474049096,58.937151046062354 66.21706240807544,60.896552487203735 66.35322546752286,62.56752935174882 66.4099600756308,63.0702903724341 66.66526581213111,64.88166741242094 66.87518386213924,65.78363510726194 67.0,66.78169541161333 66.91489808785263,67.52098667392784 66.53477621346246,68.46726376000515 66.10359319183044,69.75358085334665 65.8255936120986,71.52775778209252 65.751838621567,71.66821080390582 65.62702248367714,71.76431001571109 65.08237024582922,71.87519349532886 63.817188484972576,71.63124952008366 62.63143517545541,71.75691777511747 62.23429291869979,71.75691777511747 62.149191006523324,71.7199565559713 58.20613574280287,71.38730437124468 56.35091405757703,71.23206593821305 55.931077957560774,71.09900404591099 55.1140996007598,71.07682702991951 53.3893675141735,71.09161170831794 53.26455137634184,71.06943468908867 52.84471527632559,71.07682702991951 52.77663374657277,71.11378871785564 52.59508300060406,71.08421936965169 52.271695734380046,71.09900404591099 52.18659382223268,71.17292736253148 52.11283883167198,71.09900404591099 51.86320655597956,71.10639638241628 50.22357638159883,71.18771201290656 49.87182181127719,71.17292736253148 49.72431183021399,71.20249665899246 49.44063878964516,71.20249665899246 49.11725152339204,71.2246736200359 48.907333473383915,71.2246736200359 48.901660012605134,72.10435191822398 48.92435385583667,72.34829361748052" stroke="#ff3400" stroke-linecap="round" stroke-linejoin="round" stroke-width="0.5"><title>2024-06-22 27.1km</title><desc>11711771666</desc></polyline><polyline fill="none" points="135.56921420886647,77.1554715283637 135.41808396123815,77.07974240904878 134.9065662001958,76.91313815244939 134.87168998923153,76.77682538009685 134.87168998923153,76.62536653452116 134.8833153928863,76.54963702899113 134.87168998923153,76.26186440445599 134.8135629708995,76.11040480827796 134.83681377832545,76.04982090802514 134.68568353069713,75.95894499137648 134.4531754574855,75.74690087686758 134.29041980626062,75.64087865733745 134.3601722282474,75.48941815608123 134.3601722282474,75.42883389377675 134.31367061357014,74.80784316852805 134.31367061357014,73.97480100164103 134.2322927879868,72.14208472677274 134.2322927879868,71.7179804874686 134.19741657702252,71.4907810757868 134.22066738427384,71.00608733727131 134.2322927879868,70.83947334246477 134.33692142093787,70.4456573836651 134.476426264795,70.06698678493558 134.4531754574855,69.97610563592752 134.62755651242333,69.35508232342545 134.68568353069713,69.18846568130539 134.67405812704237,68.23420158375666 134.58105489780428,68.14331883165141 134.5694294940913,67.90096443752554 134.5694294940913,67.81008139395999 134.65080731973285,67.7191982709046 134.65080731973285,67.5374317863243 134.5461786867818,67.46169565727905 134.53455328312702,67.37081222950656 134.48805166844977,66.35594188592222 134.48805166844977,65.55312697999034 134.55780409043655,64.91692963007517 134.6624327233876,64.43220522502088 134.82518837461248,64.37161451539578 134.848439181922,64.26558068851591 134.99956942955032,63.41730617770372 135.05769644782413,63.20523646788206 135.08094725513365,62.871983192184416 135.0344456404564,61.947957154952746 135.0344456404564,61.402626457194856 134.9763186221826,60.569476808545005 134.98794402583735,60.22106679245189 134.96469321858604,60.14532533002057 134.99956942955032,60.069583812364726 134.96469321858604,59.721172119861876 134.9763186221826,59.448501284685335 134.9414424112183,59.372759259036684 134.9414424112183,59.19097817209695 134.92981700756354,58.630484485212946 134.9414424112183,58.55474186314677 134.89494079659926,58.28206796655286 134.9065662001958,57.903353034038446 134.87168998923153,57.34285240036843 134.7903121636482,56.96413404404302 134.6973089343519,56.69145597265742 134.5694294940913,56.41877718557225 134.3834230354987,56.16124656284228 134.3601722282474,56.07035324944445 134.25554359529633,55.994608760869596 133.63939720136113,55.16141574164794 133.51151776110055,54.90388200198504 133.45339074276853,54.81298758848425 133.4301399354008,54.70694400555658 133.41851453180425,54.5251547544467 133.45339074276853,54.4342600095697 133.41851453180425,54.207022799469996 133.44176533911377,54.131276952328335 133.41851453180425,54.0403818628256 133.4068891281495,52.964783931813145 133.5231431647553,52.8587384622806 133.39526372443652,52.76784225933807 133.36038751347223,51.67708162077906 133.26738428417593,49.93487073374126 133.26738428417593,49.48037613166525 133.1860064585344,48.35928094436531 133.1860064585344,48.23808073991677 133.3371367061627,48.16233054033364 133.34876210987568,48.02598004187166 133.16275565122487,47.98052983596426 133.0,45.84434772525128 133.0,45.79889656477462 133.02325080730952,45.76859578004951 133.44176533911377,45.601941306114895 134.53455328312702,45.374684774411435 135.02282023685984,45.2231801436501 135.11582346609794,45.253481087514956 135.278579117381,45.192879191024986 135.33670613565482,45.08682578711887 136.0574811625993,44.81411653698888 136.15048439183738,44.84441760014306 136.31324004306225,44.78381546498713 136.46437029063236,44.723213294499146 136.5108719053096,44.61715941106377 136.99913885904243,44.42020191166375 138.2081808396615,43.9808338364528 138.89407965552527,43.76872444534092 139.1033369214274,43.738423068374686 139.17308934341418,43.69297098639072 140.10312163620256,43.45055954650161 141.34703982778592,43.23844907247258 141.42841765342746,43.25359983501403 143.49773950484814,43.117242892913055 144.404520990327,43.10209211047186 146.5900968784117,43.02633816534217 147.8223896663403,42.99603657183616 147.92701829923317,43.041488958813716 148.02002152858768,43.041488958813716 148.7175457481644,42.99603657183616 149.10118406888796,42.98088577177987 149.15931108721998,42.92028254937031 151.4030139935785,42.84452847164357 152.32142088271212,42.84452847164357 153.1584499462042,42.95058416498068 153.78622174385237,43.10209211047186 154.30936490854947,43.26875059528538 154.84413347690133,43.49601173456904 155.809041980654,44.13234027924773 155.8439181916765,44.23839465765195 155.9601722282241,44.22324403879611 156.16942949412623,44.3747501280086 156.22755651240004,44.46565367545554 156.47168998926645,44.692912195991084 157.27384284173604,45.35953432126553 157.34359526372282,45.617091723870544 157.1692142088432,45.75344538435456 157.73885898815934,47.253323836644995 158.0876210979768,48.086580285526 158.1806243272149,48.58653094654437 158.19224973092787,48.950129915938305 158.25037674920168,49.26827797017904 158.43638320779428,49.32887748905341 158.44800861139083,49.58642505005264 158.63401507004164,49.63187455329171 159.15715823468054,49.61672472109785 159.23853606026387,49.737923316977685 160.05231431650463,49.70762368128635 160.13369214208797,49.61672472109785 160.4010764262639,49.61672472109785 160.494079655502,49.6773240367329 161.47061356302584,49.61672472109785 163.37717976322165,49.58642505005264 163.44693218520842,49.57127521118673 163.49343379982747,49.49552598378796 164.20258342305897,49.48037613166525 164.30721205595182,49.55612537009438 165.0279870828963,49.525825681339484 165.28374596341746,49.49552598378796 165.37674919271376,49.4349265620549 165.46975242195185,49.49552598378796 165.5511302475934,49.510675833669666 165.66738428419922,49.48037613166525 165.93476856837515,49.48037613166525 166.0161463940167,49.41977670112101 166.10914962325478,49.41977670112101 166.20215285255108,49.41977670112101 166.2835306781344,49.45007642082783 166.55091496231034,49.4349265620549 166.63229278795188,49.40462683801161 166.98105489776935,49.389476972639386 167.07405812706565,49.40462683801161 167.32981700752862,49.37432710506255 167.60882669541752,49.40462683801161 167.78320775029715,49.40462683801161 167.8645855759387,49.37432710506255 168.21334768569795,49.40462683801161 168.56210979551543,49.389476972639386 168.8178686759784,49.29857773405092 170.70118406892288,49.20767841592897 171.17782561894273,49.14707882631046 171.23595263721654,49.162228727014735 171.38708288484486,49.1319289233943 172.09623250807635,49.0713292895889 173.00301399355521,49.0713292895889 173.29364908504067,49.025879541055474 173.3750269106822,49.0713292895889 173.5610333692166,49.0713292895889 173.63078579120338,49.025879541055474 174.33993541443488,49.04102945942577 174.42131324007642,49.17737862553622 176.4325080732233,49.0713292895889 178.29257265874185,49.025879541055474 179.09472551132785,48.96527984538261 180.7455328310025,48.904680114363146 181.512809472566,48.844080347982526 181.66393972019432,48.8895301760931 182.2219590958557,48.8895301760931 183.6402583423187,48.82893040089402 184.67491926805815,48.82893040089402 185.1166846071137,48.78348054629896 185.29106566199334,48.813780451586354 185.68632938642986,48.78348054629896 185.7677072121296,48.82893040089402 186.02346609259257,51.35894094376272 186.20947255118517,52.07096872811235 186.24434876209125,52.31336005179037 186.4187298170291,53.02538129444292 186.46523143164814,53.31321828390355 186.5698600645992,53.691949949738046 186.58148546825396,53.85859144527785 186.68611410120502,54.343365185202856 186.80236813786905,55.009925383878 186.91862217441667,55.84311961806088 186.98837459634524,56.14609768281662 186.98837459634524,56.31273524175049 187.0,56.479372533460264 186.98837459634524,57.10047281134757 186.95349838538095,57.44889329272701 186.88374596339418,57.782163964053325 186.88374596339418,57.87305577979714 186.8139935414656,58.22147367015714 185.75608180841664,60.781551898449834 185.4886975242407,61.4783670030738 185.4305705059669,61.67529216389812 185.34919268026715,62.05399334713002 185.19806243275525,62.5841726847284 185.13993541448144,62.75079991779785 185.10505920345895,62.91742688357044 184.5935414424166,66.21961526366067 184.55866523145232,66.38623666658532 184.477287405869,66.5528578022786 184.43078579119174,66.62859459381434 184.2912809472764,66.74977334550931 184.03552206675522,66.84065731646115 183.62863293866394,66.94668851546885 183.12874058127636,67.03757231422787 182.9659849300515,67.03757231422787 182.5009687836282,67.02242501993169 182.18708288489142,66.96183582079539 181.140796555439,66.67403664226731 180.88503767491784,66.62859459381434 180.5595263724681,66.53771043735469 179.83875134552363,66.65888929500215 178.51345532829873,66.79521534092055 178.1530678148847,66.79521534092055 177.33928955870215,66.74977334550931 177.24628632940585,66.7800680113287 177.14165769645479,66.73462600925996 176.85102260496933,66.6891839873424 175.89773950487142,66.62859459381434 175.52572658774443,66.5528578022786 173.04951560817426,66.32564709644794 166.23702906351537,65.85607672983315 166.15565123793203,65.82578179459233 165.49300322931958,65.75004441785131 165.01636167924153,65.64401199770509 164.9349838536,65.65915949289774 164.27233584504575,65.4622418828003 163.83057050593197,65.41679930437385 162.08675995696103,65.35620916889457 160.66846071043983,65.40165177382005 159.5989235737943,65.38650424108346 159.48266953718849,65.44709435886034 159.25016146397684,65.43194683273032 159.19203444564482,65.4622418828003 159.12228202371625,65.85607672983315 159.12228202371625,66.8558046372491 159.15715823468054,67.03757231422787 159.18040904199006,67.52228456494777 159.18040904199006,67.90096443752554 159.21528525301255,68.68861415178253 159.19203444564482,68.90067267008999 159.12228202371625,69.03699577474617 159.00602798705222,69.23390661015583 159.00602798705222,69.32478840839758 159.0176533907652,69.40052317949448 159.075780409039,69.46111095660308 159.22691065666731,69.58228640491143 159.2617868676316,69.70346171190613 159.3547900969279,69.91551815907587 159.2617868676316,70.05183993230457 159.29666307859588,70.71829936028371 159.29666307859588,70.79403311568603 159.2617868676316,70.85462008028844 159.2617868676316,70.91520700960245 159.1687836383353,70.96064718333218 158.8897739505046,70.9000602805827 157.1343379978789,70.94550046096992" stroke="#4dd2ff" stroke-linecap="round" stroke-linejoin="round" stroke-width="0.5"><title>2024-06-18 12.9km</title><desc>11680680583</desc></polyline><polyline fill="none" points="19.364780450239778,147.0 19.257937703689095,146.96203711847193 19.180233888037037,146.83549406012753 19.180233888037037,146.6077160904024 19.19965984195005,146.44320940725447 19.180233888037037,146.32931998248387 19.13166900316719,146.24073921548552 19.15109495713841,146.19012159377598 19.053965187515132,146.13950394256972 18.840279694471974,145.9749963722861 18.791714809660334,145.96234193089185 18.694585040037055,145.8864152437818 18.752862901834305,145.73456167036056 18.743149924848694,145.57005333279085 18.743149924848694,145.1271447207837 18.71401099395007,144.93732605253172 18.71401099395007,144.50706886799162 18.694585040037055,144.21601132825162 18.646020155283622,142.2671661395434 18.646020155283622,142.08999622581177 18.71401099395007,141.64706985968223 18.762575878819916,141.4698986804724 18.956835418008268,140.93838297350158 19.024826256674714,140.64731346924236 19.053965187515132,140.4195192634943 19.053965187515132,140.0145503107051 18.976261371863075,139.93861842174374 19.015113279689103,139.6095794687717 19.04425221058773,139.55895798072015 19.04425221058773,139.43240413139574 18.927696487051435,139.38178253998922 18.85970564832678,138.0909219860696 18.849992671399377,137.6100082446428 18.898557556211017,137.02784594042168 19.024826256674714,136.4203680692226 19.18994686496444,136.3697447213999 19.306502588500734,135.62304691183817 19.364780450239778,135.3952395217566 19.364780450239778,135.31930359220132 19.335641519341152,135.24336759622383 19.335641519341152,135.07883937705628 19.355067473254167,135.0029031707454 19.345354496326763,134.6738455090017 19.32592854241375,134.19291283660277 19.296789611515123,134.04103880751063 19.28707663458772,133.82588347810815 19.28707663458772,133.74994617571792 19.306502588500734,133.6740088068691 19.296789611515123,133.4082274928005 19.267650680674706,133.2690083844427 19.257937703689095,133.05385114144156 19.248224726703484,132.7121297181875 19.267650680674706,132.6615042077392 19.267650680674706,132.44634545893496 19.23851174977608,132.3957197934651 19.228798772848677,131.5097658682207 19.19965984195005,131.38320028356247 19.209372818877455,131.10475534776197 19.19965984195005,130.59848953966866 19.160807934065815,130.32004208653962 19.063678164500743,130.05425050257327 18.995687325834297,129.91502601471439 18.840279694471974,129.67454682796233 18.73343694792129,129.5353217310403 18.72372397093568,129.48469436770392 18.655733132211026,129.45938067495445 18.57802931650076,129.37078269224003 18.4906125239213,129.20624334154127 18.20893619209528,128.8645067703692 18.102093445544597,128.64933860937163 18.082667491631582,128.5860537546323 17.995250698993914,128.52276885371975 17.98553772206651,128.43416991495906 17.956398791167885,127.07986059389805 18.082667491631582,126.99126018224342 17.956398791167885,126.90265968011954 17.946685814182274,126.82671632061101 17.91754688328365,125.85210397517949 17.830130090704188,124.24460255867598 17.83984306763159,123.99145001573197 17.830130090704188,123.94081941857439 17.771852228906937,122.99149025224324 17.907833906414453,122.90288566691015 17.92725986026926,122.75099188157765 17.74271329806652,122.70036056071694 17.529027804965153,120.06749117204163 17.490175897139125,119.25736144418624 17.43189803540008,117.76366493201203 17.451323989254888,117.7003721391302 17.43189803540008,117.63707930011878 17.36390719661722,116.24462516221683 17.266777427052148,114.91544355095539 17.50960185105214,114.7002408036642 18.44204763910966,114.42174233849073 18.86941862531239,114.30781089061202 18.985974348848686,114.4344013790469 19.539614035456907,114.26983370805101 19.7921514363843,114.15590206067282 19.850429298181552,114.10526572493836 19.879568229080178,114.00399296485557 19.88928120606579,113.86474272672785 19.860142275167163,113.81410622107796 19.831003344268538,113.63687821871281 19.84071632119594,113.57358241580368 19.714447620732244,112.45956872829265 19.74358655163087,112.38361272878683 19.724160597717855,111.90255652127962 19.733873574703466,111.32022175450402 19.831003344268538,109.96564533091441 19.898994182993192,109.49723547896428 19.869855252152774,109.40861711441539 19.898994182993192,109.04148292565515 19.898994182993192,108.53508839216374 19.84071632119594,107.82613108018268 19.685308689891826,106.92726616003347 19.539614035456907,106.35755822029023 19.500762127689086,106.29425710719079 19.335641519341152,105.81316713835258 19.335641519341152,105.7625259338165 19.27736365760211,105.71188469976187 19.267650680674706,105.61060214289319 19.112243049312383,105.3573952335355 19.083104118413758,105.20547073324269 19.04425221058773,105.15482917403278 18.830566717486363,104.6484119561137 18.772288855689112,104.57244911846647 18.73343694792129,104.44584424126515 18.6265942013124,104.26859710284043 18.616881224384997,104.1546523226425 18.58774229348637,104.12933124004485 18.548890385660343,104.04070739279996 18.519751454819925,103.68621109848755 18.801427786587738,103.42033792725124 19.219085795863066,103.34437401438481 19.296789611515123,103.42033792725124 20.549763639224693,103.28107070286205 20.569189593195915,103.09116049115255 21.05483844113769,103.00253558342229 22.230108653136995,102.90124986376759 24.250407860730775,102.82528549639392 24.337824653310236,103.01519629005634 24.40581549203489,102.82528549639392 25.182853648788296,102.78730328778329 25.20227960270131,102.74932106251799 25.182853648788296,102.63537428703421 25.20227960270131,102.48344502019609 25.377113187976647,102.58473122763098 25.425678072788287,102.774642547869 25.542233796266373,102.774642547869 25.590798681078013,102.72399956981099 25.581085704092402,102.2049073400267 25.590798681078013,102.10362068918766 25.590798681078013,101.86306441945635 25.590798681078013,101.52122015196073 25.561659750179388,101.38194987906172 25.581085704092402,101.07808668942744 25.561659750179388,100.88817165538785 25.581085704092402,100.77422243549518 25.571372727165,100.66027306588512 25.600511658063624,100.47035711727221 25.590798681078013,100.19181297398609 25.61993761191843,99.40682012213801 25.658789519802667,99.07762745751097 25.67821547371568,98.72311088324204 25.687928450643085,98.19133330549084 25.66850249673007,98.12802623384778 25.66850249673007,97.97608907349058 25.67821547371568,97.90012039353314 25.639363565889653,97.53293750243756 25.629650588904042,97.25438392772776 25.542233796266373,96.29210106039682 25.52280784229515,95.78563210594439 25.52280784229515,95.68433796021418 25.48395593452733,95.38045481341396 25.464529980614316,95.13987990056194 25.493668911454733,95.02592313003697 25.48395593452733,94.97527562844334 25.43539104971569,94.19023557202308 25.52280784229515,93.96231938624987 25.600511658063624,93.86102311145078 26.027882644208148,93.83569902426825 26.095873482932802,93.73440260165808 26.173577298643067,93.73440260165808 29.92278640490258,93.58245774589886 29.990777243569028,93.68375434596965 30.155897851858754,93.6710922774073 30.23360166751081,93.56979566258087 34.52673748345114,93.44317472768307 36.67330539150862,93.32921572820487 40.607061059970874,93.24058084737044 40.68476487562293,93.34187784668029 40.84988548391266,93.34187784668029 40.93730227655033,93.22791871415393 41.50065494014416,93.2152565790966 42.21941523515852,93.2152565790966 42.30683202779619,93.31655360793957 42.38453584344825,93.2152565790966 50.28118611127138,93.0 50.34917694993783,93.02532433115266 50.42688076564809,93.11395943193202 51.184492968488485,93.11395943193202 52.01009600999532,93.07597297125176 52.486031881009694,93.07597297125176 52.728856305009685,93.22791871415393 52.77742118976312,93.24058084737044 52.74828225886449,93.34187784668029 52.77742118976312,93.56979566258087 52.78713416669052,94.21555955569056 52.82598607451655,94.49412288823805 52.90368989028502,94.76002341664571 53.195079199038446,95.40577844965446 53.2727830146905,95.78563210594439 53.31163492251653,95.9122496217824 53.30192194553092,96.11483726267033 53.34077385341516,96.49468781428004 53.467042553878855,97.40632235208614 53.54474636953091,97.68487543897936 53.58359827735694,98.19133330549084 53.62245018524118,98.33060870045301 53.72929293173365,98.59649746992363 53.82642270135693,99.06496617622179 53.82642270135693,99.28020770665898 53.874987586110365,99.59673839896277 53.9138394939946,100.19181297398609 53.81670972442953,100.98945972526417 53.80699674744392,101.33130608801002 53.787570793530904,101.40727176349174 53.748718885704875,101.68581200446351 53.72929293173365,101.8250817895605 53.651589116081595,102.00233392006339 53.54474636953091,102.10362068918766 53.49618148471927,102.21756816308334 53.457329576893244,102.24288980360143 53.2727830146905,102.17958568839094 53.12708836031379,102.17958568839094 52.45689295011107,102.2049073400267 52.31119829573436,102.25555062112107 52.27234638790833,102.30619387266051 52.301485318748746,102.36949789548817 52.437466996198054,102.44546266193356 52.50545783492271,102.45812344985461 53.651589116081595,102.42014108046715 53.748718885704875,102.63537428703421 53.76814483955968,102.73666031708126 53.748718885704875,102.78730328778329 53.787570793530904,102.82528549639392 53.758431862690486,102.83794622888672 53.787570793530904,103.07849979560706 53.92355247098021,103.10382118487178 54.10809903318295,103.25574936532212 54.31207154929871,103.4709804988961 54.428627272835,103.68621109848755 54.5548959732987,103.68621109848755 54.66173871984938,103.77483530784957 54.84628528211033,103.8761200077206 55.244517337414436,104.0280468357887 57.59505776152946,104.69905381088756 58.00300279376097,104.77501653768559 58.1584104251815,104.85097919794498 58.546929503558204,104.95226264153462 58.72176308877533,104.97758348396746 59.00343942060135,105.07886677977513 59.35310659109382,105.15482917403278 59.41138445289107,105.20547073324269 59.92617223173147,105.34473486865318 60.0912928400212,105.45867808598268 60.178709632658865,105.54730048484635 60.25641344831092,105.72454501103493 60.28555237920955,106.05371245623246 60.28555237920955,106.52214089821791 60.32440428703558,107.05386741639813 60.32440428703558,107.25642904238339 60.42153405665886,108.15529055257502 60.450672987499274,108.71232681505353 60.44096001051366,108.90222472356254 60.47009894141229,109.57319400511915 60.499237872310914,109.64915246474993 60.508950849296525,109.86436773936293 60.4895248953253,110.0922421541618 60.52837680315133,111.24426475766813 60.450672987499274,111.67468686057691 60.46038596442668,111.76330291084014 60.499237872310914,111.87723769964214 60.4895248953253,111.95319414241385 60.56722871103557,112.58616191303736 60.56722871103557,112.80136990328901 60.81005313497735,114.26983370805101 60.955747789354064,115.57370746498782 61.062590535962954,116.89022031336208 61.120868397702,117.32061441252881 61.120868397702,117.43454190500051 61.17914625949925,117.83961622251809 61.198572213354055,118.16873771329847 61.31512793689035,119.27001977936015 61.35397984471638,119.47255289073655 61.36369282170199,119.8016681887093 61.41225770645542,120.38394604299538 61.53852640691912,121.61178001789085 61.59680426871637,122.38391413618956 61.64536915352801,122.82693880745501 61.62594319955679,122.9408590717212 61.64536915352801,123.23198795648932 61.70364701526705,123.47248499431589 61.761924877006095,123.64969291150919 61.7716378539335,123.96613472086756 61.936758462223224,125.48503934567998 62.18929586320883,126.72545840453677 62.25728670193348,127.00391738942562 62.276712655846495,127.15580373189005 62.412694333237596,127.7886606312677 62.461259218049236,127.9152314574385 62.60695387242595,128.94044834692613 62.723509595904034,129.5100080530974 62.733222572889645,129.8390852908924 62.71379661897663,130.48457932590827 62.6652317342232,130.85162281281373 62.597240895498544,131.21866474762646 62.07274013973074,132.54759670126077 61.995036324020475,132.80072429043503 61.82020273874514,133.16775798356684 61.53852640691912,133.87650830947678 61.441396637354046,134.18025667766778 61.256850075151306,134.92696689798322 61.159720305528026,135.19274356202368 61.09172946686158,135.72429444885347 60.89746992767323,136.86332110338844 60.829479088948574,137.40751745121815 60.693497411499266,138.14154433017393 60.65464550367324,138.25544449653535 60.56722871103557,138.35668896332936 60.411821079673246,138.45793331213645 60.28555237920955,138.50855544224032 59.625069945992436,138.66042165541148 59.03257835144177,138.67307716118376 58.61492034222465,138.58448858201882 57.72132646199316,138.35668896332936 57.66304860019591,138.35668896332936 57.22596463706577,138.2681000613302 56.90543639741372,138.33137785774306 55.81758297799388,138.47058884741273 55.29308222216787,138.48324438087002 54.778294443385676,138.4452777749757 54.59374788112473,138.48324438087002 54.52575704240007,138.41996669518994 50.97080747538712,138.1035775748678 45.56067930907011,137.7365647507031 44.521390774461906,137.57204125686985 44.46311291272286,137.58469692129438 43.81234345649136,137.3568946790474 43.64722284814343,137.33158328188438 42.093146534694824,137.31892758056347 41.91831294941949,137.34423898137902 41.626923640666064,137.33158328188438 40.276819843333215,137.34423898137902 39.907726718869526,137.31892758056347 39.84944885713048,137.36955037484586 39.83002290315926,137.4454845109576 39.78145801840583,137.48345155411516 39.7523190875072,137.48345155411516 39.713467179681174,137.3568946790474 39.490068709652405,137.36955037484586 39.47064275573939,137.39486176092032 39.46092977875378,137.98967720926157 39.49978168657981,139.1413295778184 39.49978168657981,139.25522843241197 39.480355732666794,139.369127137521 39.50949466356542,139.72347770899069 39.51920764049282,140.22969030207605 39.49978168657981,140.39420875924407 39.47064275573939,140.47014024974487 39.40265191701474,140.45748500594345 39.3540870322031,140.59669258631038 39.41236489400035,140.76121034802782 39.480355732666794,140.78652074519778 39.577485502290074,140.84979670594475 39.55805954831885,140.97634848904272 39.65518931794213,141.12821038525 39.58719847921748,141.22945150182932 39.626050387043506,141.64706985968223 39.577485502290074,141.79893058262678 39.53863359440584,141.84955076462938 39.441503824840765,141.83689572186995 39.05298474646406,141.91282595053053 37.41149164037779,142.00141113339487" stroke="#4dd2ff" stroke-linecap="round" stroke-linejoin="round" stroke-width="0.5"><title>2024-06-16 17.5km</title><desc>11665911436</desc></polyline><polyline fill="none" points="133.0,105.13180607254617 134.67213114758488,104.63504874906357 135.77868852461688,104.37865699339454 136.66393442626577,104.23443636788579 137.83196721313288,104.10624009730236 144.5081967212609,103.80177335505869 146.106557377032,103.76972417523939 147.79098360659555,103.62550275020476 149.94262295082444,103.5293550282804 151.77459016389912,103.46525650023978 153.02868852461688,103.48128113578423 153.803278688516,103.40115793485165 155.16803278686712,103.36910863804951 156.8032786885742,103.2088620141003 162.606557377032,102.79221969763603 164.29098360653734,102.76017022324959 165.2500000000582,102.7281207394335 166.46721311478177,102.59992271087685 168.45901639346266,102.45569974987302 169.553278688516,102.42365017729753 171.69262295082444,102.40762538747367 176.22950819676043,102.3275014033643 177.69262295088265,102.37557580082648 179.3032786885742,102.3916005952924 179.6598360656062,102.35955100398132 183.1147540983511,102.23135254524095 183.88934426230844,102.27942698478728 184.03688524587778,102.3275014033643 184.1352459016489,102.43967496476398 184.18442622950533,102.58389794675895 184.33196721307468,103.94599454872514 184.60245901643066,105.6766341023249 184.73770491807954,106.76628205499583 185.09426229511155,110.66008273683838 185.5983606557129,115.69137387832598 185.67213114752667,116.81296788273175 185.77049180329777,117.46989619638771 185.9549180328031,119.216345049339 186.16393442626577,120.38596958440758 186.75409836065955,123.22185682997224 186.97540983610088,124.80799913233932 187.0,125.2245579607843 186.95081967214355,126.21788417852804 186.88934426230844,126.61841640313651 186.840163934452,126.87475626070227 186.72950819676043,127.19518024161516 185.62295081967022,129.95078790539264 185.51229508197866,130.20711998881598 185.35245901637245,130.65569969581702 184.98360655742,132.06550971046818 184.51639344263822,135.23751611130137 184.3934426230262,135.63801545967 184.20901639346266,135.8943342765706 183.9385245901649,136.07055311635486 183.63114754098933,136.16667236443027 183.21311475412222,136.26279152844654 182.70901639346266,136.29483123109094 182.303278688516,136.29483123109094 181.97131147544133,136.23075181645254 180.2254098361591,135.7821948677083 179.4016393442871,135.8943342765706 178.04918032785645,136.02249346084136 177.69262295088265,136.0385133483578 177.32377049181378,136.02249346084136 172.33196721313288,135.55791570676956 168.4098360656062,135.31761609775276 167.52459016395733,135.2214961070058 164.3032786885742,134.98119576234603 163.95901639346266,134.91711558165844 163.393442622968,134.756914966536 162.86475409840932,134.64477439693292 162.58196721313288,134.53263371292996 162.39754098362755,134.51661360585422 160.23360655742,134.56467392003105 158.05737704917556,134.5806940200855 157.38114754098933,134.62875430624263 156.82786885247333,134.59671411781164 155.4016393442871,134.62875430624263 148.44262295076624,134.86905542165914 147.72950819676043,134.86905542165914 147.803278688516,136.45502960422164 147.76639344263822,137.76864745475905" stroke="#4dd2ff" stroke-linecap="round" stroke-linejoin="round" stroke-width="0.5"><title>2024-06-10 10.8km</title><desc>11618274362</desc></polyline><polyline fill="none" points="30.003460207604803,191.71020867076004 29.968425605562516,191.02549288389855 29.886678200680763,190.41685285799758 29.863321799319237,190.00601883416675 29.82828719727695,189.26042703090934 29.851643598638475,188.89523726571497 29.82828719727695,188.81915590375138 29.75821799307596,188.78872334351036 29.13927335635526,188.83437218060135 23.533737024234142,188.98653482680675 17.426038062258158,189.2299945992636 16.573529411747586,189.27564324341074 15.627595155674499,189.36694047172932 15.253892733540852,189.35172427256475 15.125432525936048,189.29085945366387 15.02032871969277,189.21477838014107 14.938581314869225,189.00175107921677 14.90354671276873,188.75829077429808 14.880190311407205,187.70836170418625 14.92690311424667,187.0692692730081 14.845155709364917,186.24757325414248 14.740051903121639,183.4476715751589 14.728373702440877,182.61072986064391 14.775086505163927,182.0324753009627 14.75173010386061,181.78899873837508 14.669982698920649,181.30204390911967 14.623269896197598,180.48030248246505 14.58823529415531,180.19116970092 14.529844290635083,179.91725369534106 14.366349480987992,179.5520312361259 13.478806228376925,178.31939599991892 13.350346020713914,178.10634645873506 13.245242214528844,177.83242498095933 13.210207612428349,177.61937444561772 13.198529411805794,177.26936190757988 13.280276816629339,176.61498749176098 13.291955017310102,176.1736628945364 13.198529411805794,174.39312746097858 13.198529411805794,173.63220561677008 13.11678200692404,172.18643882629112 13.070069204142783,170.05579862338345 13.0,168.89914715135092 13.035034602042288,168.7926128183026 13.221885813109111,168.71651679949719 13.980968858173583,168.54910536285024 14.494809688592795,168.41213216944743 16.328287197218742,167.68160543458362 18.62889273354085,166.87497622333467 19.493079584732186,166.6162447781171 20.602508650510572,166.41839088711276 21.26816608995432,166.3422931368841 22.038927335641347,166.2814148966936 26.243079584790394,166.11399955305387 28.823961937741842,165.9770231629882 29.781574394437484,165.9770231629882 31.533304498298094,165.9161447096849 32.11721453286009,165.93136432635947 32.80622837372357,166.007462376263 33.39013840834377,166.1292191408138 33.88062283740146,166.2509757632797 34.44117647060193,166.4792690474278 34.95501730107935,166.72278133323562 35.27032871975098,166.92063464706007 35.655709342623595,167.20980420007982 36.204584775085095,167.71204415062675 36.47318339103367,168.00121151041094 36.776816609024536,168.38169365764043 36.9169550173101,168.57954382586468 37.057093425653875,168.86870878158516 37.88624567480292,171.01459209842142 38.003027681668755,171.47115732339444 38.10813148791203,172.1255639956653 38.14316608995432,172.18643882629112 38.236591695516836,172.21687622832542 38.59861591696972,172.23209492598835 38.72707612457452,172.24731362145394 38.72707612457452,172.3842817806144 38.80882352939807,172.59734300426499 38.902249134960584,172.70387345294148 39.04238754324615,172.74952932620363 39.46280276821926,172.76474794618116 42.615916954993736,172.64299892415147 43.81877162633464,172.61256164647057 45.10337370244088,172.53646841331647 45.8741349481279,172.52124976005143 46.93685121112503,172.47559378687583 49.29584775090916,172.4147191249358 50.67387543251971,172.33862574756495 51.31617647060193,172.20165752841422 52.121972318331245,172.1560014154311 53.3715397923952,172.1407827066796 53.803633217990864,172.23209492598835 53.94377162633464,172.23209492598835 60.07482698961394,171.95815802828292 61.69809688581154,171.89728306451434 62.7491349481279,171.89728306451434 65.29498269897886,171.82118930977595 65.47015570936492,171.82118930977595 65.61029411770869,171.85162681832298 65.71539792395197,171.92772055082605 65.75043252599426,172.00381422787177 65.78546712803654,172.1712201219707 66.03070934256539,174.30181713268394 66.7080449827481,177.52806694015453 66.94160899659619,178.98897744073474 67.0,179.58246648983186 66.95328719727695,180.38899748009135 66.88321799307596,180.9216088678004 66.80147058825241,181.28682653410215 65.63365051907022,184.16287099473993 65.36505190312164,184.9845834264779 65.17820069205482,185.65412210612703 65.09645328723127,186.0497565797341 64.61764705885435,189.1843459351876 64.54757785471156,189.397372863481 64.48918685130775,189.53431851630012 64.40743944636779,189.67126398948312 64.2439446367207,189.82342541562684 64.04541522497311,189.92993828189356 63.823529411805794,190.00601883416675 63.34472318342887,190.09731542365626 62.94766435987549,190.12774760238244 62.55060553638032,190.11253151413985 62.23529411770869,190.06688323603157 60.97404844290577,189.74734473027638 60.460207612544764,189.67126398948312 60.17993079585722,189.67126398948312 58.439878892793786,189.8842899239753 57.79757785471156,189.8842899239753 56.05752595158992,189.74734473027638 53.254757785471156,189.4734538038756 45.9091695502284,188.95610231528553 45.11505190306343,188.83437218060135 44.145761245745234,188.57569517295633 43.585207612486556,188.49961357811844 39.89489619375672,188.49961357811844 39.49783737020334,188.51482990152726 39.252595155732706,188.57569517295633 39.11245674744714,188.68220931260294 39.04238754324615,188.77350706001016 39.00735294120386,188.88002099774167 38.98399653984234,189.03218357736478 39.04238754324615,191.32981156591995 39.019031141884625,191.7254245261356 38.94896193774184,192.3949199659619 38.97231833910337,192.59272461503133 39.077422145346645,192.9883327885982 39.1241349481279,193.27743012109568 39.14749134948943,193.55131106592307 39.10077854670817,193.77954463763308 39.05406574392691,193.87083792658814 38.97231833910337,193.9317000749288 38.86721453286009,193.99256218768278 38.68036332185147,194.02299323078478 37.12716262973845,194.0838552903151" stroke="#4dd2ff" stroke-linecap="round" stroke-linejoin="round" stroke-width="0.5"><title>2024-06-01 13.6km</title><desc>11547136752</desc></polyline><polyline fill="none" points="143.58085084197228,153.0 143.7278441200324,156.95051840153974 143.7278441200324,157.3525705782813 143.7572427756677,158.00350437615634 143.7572427756677,158.37363888972686 143.80134075906244,158.72462562652072 143.81114031092147,158.97350542720596 143.8209398627805,159.29258002691495 143.81114031092147,159.8350015142787 143.8748373980634,160.6964806646538 143.89443650183966,161.17507287473563 143.92873493337538,162.01738246970126 143.9385344852344,163.07662761519168 143.97773269272875,163.77214212947365 144.11492641890072,163.75938049467004 144.92828922410263,163.73385721393788 146.00134015385993,163.73385721393788 146.7755047515675,163.72747639141744 146.89799914995092,163.73385721393788 147.0057942205167,163.75938049467004 147.0694913076586,163.81042701158003 147.13318839482963,163.90613907051738 147.24588324132492,164.21241625442053 147.3585780878493,164.4357420183478 147.46637315838598,164.81220287291217 147.63786531612277,165.15675743101383 147.7064621792233,165.31627251281316 147.75056016264716,165.52683153180988 147.75056016264716,165.9670880300655 147.7897583701124,166.2095462421712 147.79955792197143,166.32439440080634 147.7603597145062,167.5494227015115 147.72606128297048,167.76635122808148 147.6476648680109,168.02794008219644 147.43697450277978,168.55749322726115 147.28508144881926,168.83821760098363 147.2360836894659,168.94667880932684 147.19688548197155,169.08703997465636 147.15768727450632,169.28482085386713 147.11358929108246,169.6421001799863 147.0939901873644,170.3885493743037 147.10868951515295,170.84789640681993 147.13808817078825,171.1541250877017 147.2703821210016,171.74743706934532 147.4761727102741,172.39815710619223 147.56926845305134,172.6342002223464 147.72116150701186,172.92765745936777 147.98084963156725,173.3487013682534 148.18664022081066,173.65491258024485 148.4855265528604,174.04405290934665 148.96080481854733,174.70749730916577 149.36748622116284,175.3262777486525 150.12695149111096,176.41071724782523 150.3425416322134,176.76155957832816 150.49933446213254,177.05498918973535 150.64632774016354,177.39306869857683 150.73942348296987,177.68011529182695 150.87661720914184,178.24782413147477 150.91581541660707,178.58589444290192 150.94521407221328,179.03877700167868 150.9550136241014,179.7276598121207 150.93541452035424,180.25707165427957 150.9550136241014,180.72269365412285 150.96971295188996,183.36325092353945 151.00401138345478,184.38371355136042 151.0138109353138,184.4793807053211 151.0383098149614,184.53040310208598 151.0971071262029,184.5814254395118 151.2147017486568,184.61969215360295 151.4743898731831,184.65795883432656 151.6507818068785,184.65158105653245 151.89087082768674,184.61969215360295 152.24855447091977,184.54315869200582 153.69888814765727,184.2752905245834 154.77193907741457,184.13497797439777 155.5314043473336,184.06482153094476 156.06058014833252,183.99466497526373 156.33496760067646,183.9882871009977 157.2169272689498,184.02017646303284 157.48151516943472,184.0010428485948 158.01559074636316,183.89899676390996 158.12338581692893,183.89899676390996 158.17728335221182,183.92450830734742 158.21158178377664,183.9882871009977 158.22138133563567,184.1094665533965 158.24098043938284,184.70898102335195 158.3487755099486,186.794462200618 158.41737237302004,188.3058957534704 158.4320717008377,188.3760454130679 158.4614703564439,188.40155435238557 158.57416520293918,188.45894941157894 158.70155937725212,188.48445830267883 160.19599103741348,188.5482304654979 160.35768364326213,188.5482304654979 161.21024465595838,188.58011651215202 161.6806231457158,188.60562533276607 161.80801731999964,188.63113413855535 161.8570150793821,188.66302012493543 161.89131351088872,188.70128327797647 161.90601283873548,188.79056383862917 161.93051171838306,189.4856705596103 161.96481014991878,189.88104744936936 161.97950947773643,190.43584449520495 162.04810634083697,191.78773435096446 162.01380790927215,192.2277272511201 162.04810634083697,192.76336482515762 162.04810634083697,193.27348976750363 162.09710410019034,194.23633443116705 162.09220432423172,194.40212012143093 162.05300611676648,194.64442115712882 162.07260522051365,194.70180804852498 162.1461018595146,194.73368962241148 162.45478774342337,194.77832378693347 162.96436444064602,194.82933420507106 163.6258341918874,194.91222600802575 163.90512142018997,194.93773114665964 164.21870708002825,194.93773114665964 164.71848422539188,194.90584972105353 166.99688003514893,194.63804483123022 167.32516502277576,194.62529217666452 167.50645673234249,194.60616318782922 167.53095561204827,194.57428152126886 168.44231393595692,194.4786363825442 168.68240295676515,194.47226003253672 168.88819354603766,194.49138907975794 169.09888391121058,194.53602349079665 169.3340731561184,194.60616318782922 169.53496396943228,194.69543173095735 169.72605523088714,194.79745270069543 169.87304850894725,194.89947343314634 170.0886386500788,195.06525661741034 171.02449585363502,195.8750347060668 171.99955126471468,196.69754990415095 172.56302549724933,197.18850123909942 172.95500757201808,197.50092195549223 173.58707866765326,198.0875017806975 173.80756858471432,198.272400317368 174.22404953918885,198.59118906799267 175.29710046894616,199.50928772876796 175.5126906100777,199.70693145528276 175.6302852325316,199.84081863514803 175.73808030309738,200.01295869468595 175.8311760458455,200.19147359865747 175.87527402926935,200.3253593000336 175.90957246080507,200.47199555183033 176.0075679795118,202.53122680520028 176.05656573886517,203.3217419263019 176.08106461851276,204.16324237480148 176.1202628260071,204.8517307396687 176.14476170571288,205.07484965160984 176.19375946503715,205.35534038860715 176.27705565595534,205.6868271301355 176.39465027838014,206.0884327126514 176.41914915805683,206.23504970796057 176.41914915805683,206.45816158710295 176.3799509505625,206.7258943448578 176.3260534152796,206.87250921056693 176.27705565595534,206.94262919058383 176.22805789660197,206.97450187174036 176.14476170571288,206.99362546931297 176.05166596293566,207.0 175.34609822829952,206.9043819426588 174.9345170497254,206.87250921056693 174.6405304936634,206.87250921056693 169.1331823427754,206.987250937731 168.4913116953103,206.99362546931297 168.2659220022906,206.987250937731 167.913138134958,206.93625465158038 167.69264821789693,206.8852583061671 167.5407551639073,206.83426190150203 167.3104656949581,206.74501805076943 166.34031005986617,206.29879607489784 166.11002059088787,206.17767789858044 165.85033246636158,205.99918734526 165.66414098080713,205.83982016635127 165.46814994342276,205.6422040607722 165.360354872857,205.51470932685697 165.24276025040308,205.35534038860715 164.45879610083648,204.11224280698298 164.29710349495872,203.87636903478415 164.13051111318055,203.67874408735588 163.9737182832614,203.51299344519794 163.82182522927178,203.38549252522353 163.6209344159579,203.2324909322124 163.38084539512056,203.0858639050166 163.15545570212998,202.9711119767635 162.94966511285747,202.88823539750592 162.73897474765545,202.82448407619086 162.41558953595813,202.74798236836068 161.69042269757483,202.65235504599696 161.63162538636243,202.63322955652256 161.6512244901096,202.62685439151028 161.75901956067537,202.63322955652256 161.75411978474585,202.62047922557758 161.71982135318103,202.61410405870265 161.58752740293858,202.63322955652256 161.40133591741323,202.61410405870265 161.15144734474597,202.5822282104964 160.85256101269624,202.51210126291335 160.70556773463613,202.45472458608492 160.62227154374705,202.41009823001878 160.39198207482696,202.23796757433956 160.24988857269636,202.11683818966412 160.200890813343,202.03395999695203 160.19109126148396,201.9447063835869 160.26948767644353,201.40280554814672 160.32828498765593,201.09041261377206 160.30868588393787,201.11591416117153 160.26458790051402,201.28804921843766 160.19109126148396,201.88732896485453 160.1714921577659,201.93833111855201 160.12249439838342,201.92558058568102 160.07349663903005,201.88732896485453 159.92650336099905,201.72794685247936 159.86770604975754,201.6323173071687 159.7991091866861,201.46018360043672 159.75011142733274,201.2752984966246 159.57371949366643,200.1787225581902 159.49532307870686,199.91094985204109 159.39732756002923,199.64955111026939 159.28953248943435,199.42002897982093 159.19643674668623,199.25426225001502 158.58396475479822,198.38078875245992 158.44187125269673,198.1321325332974 158.35857506180764,197.95360925045316 158.28017864684807,197.75595762572266 158.2017822318885,197.4945460447525 158.15278447253513,197.29051641153274 157.9420941073331,197.32877204003307 157.83919881269685,197.33514797487078 155.73229516064748,197.22675695655562 155.3893108452321,197.18212528295408 155.30601465434302,197.15662144907037 155.26681644684868,197.1056137368505 155.25211711906013,197.0418540131941 155.242317567172,196.76768614548928 155.2178186874953,196.4871405073427 155.22271846345393,196.3851234668473 155.20311935967766,196.25760183265083 155.1884200318891,195.6518690082885 155.17372070410056,195.46695942728547 155.14432204849436,195.4159497505534 155.0120280982519,195.3649400145041 154.90423302765703,195.25654412847507 154.85033549237414,195.2437916536801 154.79153818116174,195.25016789153233 153.7037879235868,195.39044488994477 153.65968994019204,195.37131623475943 153.64009083644487,195.33305889935218 153.6449906124035,195.28842529922258 153.6743892680097,195.21828669298338 153.6792890439392,195.18640547126415 153.63519106054446,195.16090047719263 153.55189486962627,195.12901921377124 153.50779688623152,195.12901921377124 153.43920002310188,195.1417717219265 153.34120450442424,195.18002922414234 153.1305141392222,195.2756728337008 153.06191727609257,195.33305889935218 152.93942287773825,195.47971183722984 152.8953248943144,195.51796904472576 152.8120287034253,195.53072143979807 152.76303094410105,195.51796904472576 152.7238327366067,195.49884044514693 152.7189329606772,195.46058322094905 152.73853206442436,195.4159497505534 153.22360988197033,194.84846309657587 153.26280808943557,194.75281855563298 153.25790831353515,194.68905541248023 153.21871010604082,194.5934105239794 153.07661660393933,194.38299103530517 152.93942287773825,194.19807610599673 152.87572579059633,194.12793575648902 152.78752982374863,194.07692452277843 152.47884393983986,193.99403114148663 152.29265245434362,193.89838473768395 152.09176164100063,193.73897360123738 152.0231647779292,193.6752089844631 151.93006903515197,193.54130298755263 151.8516726201924,193.40739658190796 151.77327620523283,193.19697140432618 151.72917822180898,192.9801686504943 151.45479076946503,190.65903672969944 151.42539211382973,190.2700438143911 151.39599345825263,189.58132658557588 151.40579301011167,189.24971813704178 151.39599345825263,188.28676400866243 151.4155925619707,188.01891870500185 151.42539211382973,187.67454376823662 151.39599345825263,187.38118520789794 151.391093682294,186.53936279275513 151.36659480261733,185.86334218588672 151.3567952507874,184.3518244536681 151.3616950266878,183.64388051332935 151.32249681922258,180.97144858663887 151.32249681922258,179.9891773041054 151.28819838765776,179.3704626688086 151.26369950801018,178.66881695138363 151.22450130051584,178.28609637305635 151.16570398930344,177.9480237500684 151.08730757434387,177.63546372297424 150.93051474442473,177.17618780399062 150.8080203460413,176.8955168184766 150.61202930865693,176.52553868323594 150.45523647870868,176.27675852645552 150.23474656164763,175.94504945484732 149.63207412164775,175.10938662995613 149.27929025431513,174.64370501469966 148.76971355712158,173.9100869564245 148.5198249844252,173.5081866413857 148.05924604655593,172.8064470995887 147.90245321660768,172.5193685948616 147.77015926636523,172.23228821015073 147.6427650920523,171.93244669000342 147.56926845305134,171.68364046738498 147.50557136588031,171.36465606487764 147.43697450277978,170.79685808535214 147.42717495092074,170.40130907910134 147.4467740546679,169.92281760760306 147.58396778083988,169.06789984221905 147.62316598833422,168.6021540433394 147.65256464394042,168.43627078279314 147.75545993854757,168.09174200491543 147.97594985566684,167.51114108537513 148.0200478390616,167.34525369575204 148.02984739092062,167.22402789859188 148.0200478390616,167.14108373892668 148.00044873531442,167.05813942229724 147.9612505278492,166.95605389407137 147.92205232035485,166.91139140069936 147.91225276849582,166.87948959183632 147.877954336931,166.6944586426289 147.87305456100148,166.35629661369967 147.9073529925372,165.80757531694326 147.89265366471955,165.59701764670172 147.84365590539528,165.41198128320684 147.77015926636523,165.18866049381904 147.56436867709272,164.7802995360871 147.50557136588031,164.6207825035017 147.48107248620363,164.44212273774974 147.4761727102741,164.05927793002047 147.4467740546679,163.9189006625711 147.40267607127316,163.7976653879232 147.37327741563786,163.74661885614842 147.30468055256642,163.6891914368607 147.2115848097892,163.6509064488455 147.10378973922343,163.63814477872802 146.91269847773947,163.625383104918 145.94254284261842,163.64452561427242 144.82539392946637,163.64452561427242 144.41381275095046,163.6317639422923 144.26191969693173,163.61262142738633 144.18352328197216,163.59347890410208 144.12472597075976,163.5488129839614 144.09042753922404,163.48500444764795 144.07572821140639,163.40843408142246 144.06592865954735,163.25529294764056 144.06592865954735,162.66824697726042 144.05612910765922,162.41938815992762 144.0512293317588,162.03652568143298 144.01693090019398,161.5770862919162 143.98753224458778,161.04106758278795 143.98263246865827,160.30084049115248 143.95323381305207,159.8350015142787 143.91403560558683,159.38830195376795 143.88953672588104,158.8841641229301 143.879737174022,158.38002049186252 143.88953672588104,157.92054276313138 143.8454387424863,157.57593130461464 143.82583963873913,157.129208713337 143.6739465847495,153.03191191499718" stroke="#ff0000" stroke-linecap="round" stroke-linejoin="round" stroke-width="0.5"><title>2024-05-24 31.2km</title><desc>11483634688</desc></polyline><polyline fill="none" points="44.378045867051696,266.9392854031503 43.9379111554008,266.7908716089878 43.855062268528854,266.70991842977674 43.823993935919134,266.56150390013136 43.787747547903564,265.15828846355726 43.72043282730738,264.30824303663394 43.616871718666516,263.85622839588177 43.715254771872424,263.45818199708447 43.715254771872424,262.4866645474067 43.69454255013261,261.7445194222164 43.875774490239564,260.7729659974684 43.860240323934704,259.2481257447798 43.82917199135409,258.42496100826247 43.73596699361224,256.6976169087611 43.66865227298695,256.52217991658836 43.39421533513814,256.48169436239914 43.280298115627375,256.4344611710585 43.2336956167419,256.299508930133 43.10424423101358,252.9053306314272 43.01103923324263,252.67589408802814 42.881587847427,251.03606448915525 42.86605368115124,249.82808698872395 42.91265618003672,249.7066126454847 43.77739143703366,249.4231712708679 44.23823837042437,249.28819857732742 44.145033372653415,248.70106277797458 44.09325281836209,248.08692425535264 44.1243211509136,247.33105026538033 44.19163587153889,246.1094777968392 44.06218448578147,245.3265746109646 43.860240323934704,244.73263921666876 43.544378942635376,244.03745514733964 43.508132554619806,243.83497238560085 43.53402283176547,243.67973500131484 43.75667921529384,243.59199190147774 44.77157807984622,243.45025269624603 45.64666944768396,243.37600817730345 46.92047108375118,243.31526257316364 47.01885413695709,243.23426831020697 47.15866163361352,243.0047837949205 47.205264132498996,242.9440377032115 47.23115440964466,241.58735420026278 47.262222742225276,240.80437446542783 47.16383968901937,239.44087811403733 47.15348357814946,238.52960814129256 47.117237190162996,237.84108114159244 47.14312746730866,236.64625995930692 47.10688107929309,236.61250750014005 47.06027858040761,236.64625995930692 47.02403219239204,237.00403451177772 46.977429693506565,237.09179011134256 46.873868584865704,237.11879180077085 46.413021651504096,237.10529095803213 46.36641915261862,237.01078494843387 46.304282487457385,236.6192579939525 46.231789711426245,236.56525401593535 45.739874445454916,236.55175301157578 45.34116417725454,236.5180004834474 45.2583152903826,236.43024379498456 45.25313723491854,236.0184601865367 45.18582251435146,234.4658004862431 45.19617862519226,235.59992226949544 45.16511029258254,235.8496953531976 44.75604391351226,235.86994716570553 45.21171279149712,235.68092990391233 45.14957612630678,233.60168902810256 45.05637112853583,233.44641728889837 44.60588030604413,233.52067775097385 44.48160697566345,233.57468528482423 44.46089475398185,233.71645476106642 44.45053864308284,234.3105316487272 44.3003750355856,234.39154154203788 42.746958406234626,234.4793020996367 42.67964368563844,234.57381328307383 42.66928757476853,235.0193634031093 42.617507020477206,235.08011990502564 42.40002869235468,235.1476270357598 42.24986508482834,235.13412561751102 41.9909623132844,235.1273749068896 41.74759370798711,235.05311702514518 41.69063509828993,234.94510534790243 41.664744821115164,234.60081644286402 41.612964266794734,234.51305611589123 41.58189593424322,234.54005931116262 41.49904704731307,234.4995545123602 40.794831508683274,234.55356090288842 39.96634263970191,234.57381328307383 39.88349375280086,234.5265577154969 39.83171319848043,233.93248360334474 39.7799326441891,233.77046206625892 39.65565931380843,233.70295292492665 39.205168491316726,233.68270016331007 39.137853770691436,233.5611834072879 39.10678543811082,232.83882721036935 38.95662183064269,228.8285324303979 38.977334052324295,228.57196974707767 39.08607321640011,228.3626675561536 39.267305156507064,228.2006264994634 39.47960542916553,228.13986095679502 41.37995177239645,228.04533662054018 42.21361869684188,227.99807437992786 43.477064222010085,227.95756384951164 43.399393390573096,227.14059390984403 43.37350311342743,226.1142971617228 43.316544503642945,224.64233178859286 43.26994200475747,224.55455255608467 43.07317589840386,224.4937822205684 42.353426193469204,224.51403900795776 41.89775731554255,224.48702995612257 41.83562065035221,224.41275498224786 41.789018151466735,223.960350291316 41.77866204062593,221.66449704339902 41.794196206872584,221.25933463247202 41.71134732000064,220.95546049355835 41.649210654810304,219.8277323354705 41.612964266794734,218.95659414265174 41.62332037766464,218.38257938249444 41.54564954619855,217.20751516776363 41.53011537989369,216.69425935418258 41.39030788326636,216.47139650233294 41.07444650196703,216.25528604387728 40.89321456188918,216.19450479533043 40.5825312359957,216.1607374004925 40.10615013635834,216.1404769517576 39.666015424678335,215.95137900178815 38.51130906355684,214.86405077332165 38.36632351146545,214.79651401463707 37.9210107443796,214.37778390767562 37.60514936308027,214.14140233302896 37.36695881324704,214.35752267721546 36.921646046161186,214.81002137427276 36.80772882667952,214.79651401463707 36.64720910831238,214.6209179800935 36.403840503044194,214.3305076894685 35.730693296995014,214.05360315448343 35.11968275613617,213.74292779865937 35.04718998007593,213.72266628984653 34.943628871493274,213.58758933745412 34.72615054337075,213.43900423378363 33.923551951535046,213.0 33.7630322331388,213.01350788475247 33.695717512542615,213.14858651526447 33.576622237626,213.79695844535672 33.59215640393086,214.01983419526005 33.56108807132114,214.16166365824756 33.498951406159904,214.24946263148013 33.06399474994396,214.04009557376776 32.99668002934777,214.07386451821367 32.89311892070691,214.148156109095 32.83616031095153,214.4925973790414 32.79473586753011,214.8708044437808 32.74295531323878,215.82306209507806 32.789557812095154,216.43087586835463 32.92418725331663,217.86933661874355 33.08470697165467,219.7939675951202 33.22969252371695,221.2728401033928 33.146843636845006,221.5834648453274 33.043282528204145,222.36677014262023 33.053638639103156,223.5417032000587 33.12613141510519,224.52754352792908 33.255582800891716,226.24933750927084 33.34360974322772,228.0250813804778 33.31771946605295,228.30190222643796 33.188268080266425,228.4099294240259 33.188268080266425,228.45719124358584 33.3125414106471,228.49094965652694 34.08407166990219,228.4774462943169 34.13585222419351,228.6124797390912 34.21870111109456,230.48940378058614 34.22905722196447,231.5358571222605 34.073715559003176,233.31814893718547 34.130674168787664,234.61431801685103 34.581164991279365,238.15834485613595 34.638123601005645,238.82661662341343 34.689904155326076,239.67038031361153 34.78828720853198,239.85938126986366 35.062724146351684,240.11588133218174 35.2698463636043,240.41287962711067 35.290558585344115,240.7031261180491 35.233599975617835,240.9663713601949 35.26466830819845,242.44456681329757 35.357873305969406,244.03745514733964 35.48214663629187,246.0284884265675 35.57017357862787,246.87886974196954 35.63748829922406,249.09923614477157 35.621954132948304,250.58392017974256 35.60124191120849,251.30599928369702 35.64784441009397,251.81212277846498 35.72033718615421,253.41818467315534 35.75140551873483,254.1334716062156 35.782473851315444,254.82850397653237 35.82907635017182,254.9297214119506 36.04137662285939,254.9904517668947 36.69898966263281,254.98370395362144 36.91128993529128,255.0579298455923 37.00967298849719,255.14565120078623 37.05627548735356,255.2941023460735 37.03556326564285,256.02285560575547 36.96307048961171,256.4681991697762 36.98378271132242,256.67062664558034 37.08216576449922,256.7246071562331 37.232329372054664,256.7988302555459 37.41873936756747,256.84606307492504 38.19026962679345,256.80557780412346 41.93918175896397,256.6166460719469 42.17219425339135,256.65713150808006 42.22915286311763,256.7650924978807 42.260221195727354,257.68275074123085 42.332713971758494,259.0929400702553 42.332713971758494,259.8553690339795 42.410384803195484,260.86067651920894 42.746958406234626,261.86596216620455 42.7935609051201,262.1223402458345 42.84534145941143,263.3299968348292 42.91783423544257,263.6470857996137 43.12495645269519,264.3149894903763 43.207805339596234,266.46705804257 43.238873672205955,266.89206288389687 43.280298115627375,266.9662696782434 44.33144336816622,266.97976180988917" stroke="#ff3b00" stroke-linecap="round" stroke-linejoin="round" stroke-width="0.5"><title>2024-05-19 26.5km</title><desc>11444336332</desc></polyline></svg>