<?xml version="1.0" encoding="utf-8" ?>
<svg baseProfile="full" height="300mm" version="1.1" viewBox="0,0,200,300" width="200mm" xmlns="http://www.w3.org/2000/svg" xmlns:ev="http://www.w3.org/2001/xml-events" xmlns:xlink="http://www.w3.org/1999/xlink"><defs /><rect fill="#222222" height="300" width="200" x="0" y="0" /><text fill="#FFFFFF" style="font-size:12px; font-family:Arial; font-weight:bold;" x="10" y="20">Over 10km Runs</text><text fill="#FFFFFF" style="font-size:4px; font-family:Arial" x="10" y="280">ATHLETE</text><text fill="#FFFFFF" style="font-size:9px; font-family:Arial" x="10" y="290">miko gao</text><text fill="#FFFFFF" style="font-size:4px; font-family:Arial" x="120" y="280">STATISTICS</text><text fill="#FFFFFF" style="font-size:3px; font-family:Arial" x="120" y="285">Number: 8</text><text fill="#FFFFFF" style="font-size:3px; font-family:Arial" x="120" y="290">Weekly: 1.3</text><text fill="#FFFFFF" style="font-size:3px; font-family:Arial" x="141" y="285">Total: 173.7 km</text><text fill="#FFFFFF" style="font-size:3px; font-family:Arial" x="141" y="290">Avg: 21.7 km</text><text fill="#FFFFFF" style="font-size:3px; font-family:Arial" x="167" y="285">Min: 10.8 km</text><text fill="#FFFFFF" style="font-size:3px; font-family:Arial" x="167" y="290">Max: 34.1 km</text><polyline fill="none" points="66.7437827225076,55.303288737497496 65.63939790576114,55.303288737497496 65.27715968588018,55.28602506021707 65.23298429320857,55.303288737497496 63.77077879582066,55.28602506021707 63.174410994775826,55.303288737497496 63.14790575916413,55.245743117258826 63.116982984298375,55.29753417923712 61.72545811519376,55.291779620140005 61.694535340328,55.23998855063837 61.623854712044704,55.23998855063837 61.592931937164394,55.23998855063837 61.55759162303002,55.28602506021707 61.098167539268616,55.2802704994574 61.07607984294009,55.26876137541694 60.78452225132787,55.274515937861 60.585732984312926,55.25725224801499 59.163285340328,55.274515937861 58.25768979056738,55.25149768306801 56.02241492147732,55.22847941485816 54.5160340314178,55.245743117258826 54.37467277488031,55.25725224801499 53.7429646597011,55.355079723991366 53.30562827226822,55.44139788391476 52.76227094240312,55.5852610645743 52.26750654450734,55.746387204766506 51.50327225132787,56.03986527111192 51.13661649216374,56.16646297943953 51.0968586387462,56.15495411364827 50.906904450268485,56.224007258173515 50.88039921465679,56.252779366099276 50.20009816753736,56.494464245184645 49.9394633507909,56.56927116995212 49.48003926700039,56.75341068880516 47.73952879580611,57.369120970641234 47.69093586389499,57.340349675916514 47.60258507855178,57.38062948266088 47.58491492147732,57.42666349721185 47.549574607328395,57.44392623882595 46.657231675388175,57.760408498223114 46.608638743447955,57.73739169212786 46.511452879582066,57.766162697647815 46.3921793193731,57.812196262864745 46.370091623059125,57.858229774428764 46.31266361256712,57.88124651012549 46.26407068064145,57.852475588431844 46.056446335074725,57.96180497932801 45.80906413613411,58.06537991263758 45.309882198955165,58.24951245677585 45.24803664922365,58.25526658493982 45.1906086387462,58.28979133638495 45.15085078534321,58.27828308925746 44.92997382199974,58.3588407487332 44.70909685865627,58.43939824390691 44.691426701581804,58.47392283438603 44.59424083770136,58.50269330341325 44.55006544502976,58.49118511832785 43.640052356015076,58.84218325538677 43.32640706805978,58.92849379490872 43.03926701571618,58.90547766948657 42.94208115185029,58.83067516919982 42.796302356015076,58.87670749382232 41.42686518325354,59.12413031964388 41.382689790581935,59.15290031508266 41.082297120417934,59.521154406058486 40.80399214661156,59.70528016412936 40.51243455497024,59.80309662401487 40.229712041895255,59.85488171059478 39.3417866492382,59.912420616085 36.81937172776088,59.89515895324439 36.54990183247719,59.88940506394283 36.53223167540273,59.84912781544699 36.496891361282906,59.84912781544699 36.457133507865365,59.88940506394283 36.31577225131332,59.89515895324439 35.1097840314178,59.88365117382273 34.80055628271657,59.85488171059478 34.486910994761274,59.77432710213179 34.23069371726888,59.73980364822637 33.80219240838778,59.6132173923761 33.303010471208836,59.41758328995638 32.91868455498479,59.216194231299596 32.56528141362651,58.997542090757634 32.326734293208574,58.81341303362569 31.70827879582066,58.26677483877211 31.39905104711943,57.921525765254046 30.754090314163477,57.006601125493034 30.595058900522417,56.8167084501365 30.533213350790902,56.69011282602514 30.12679973822378,56.103164176016435 29.96335078535776,55.786668637101684 29.870582460731384,55.683087728077226 29.194698952895124,54.73933804384433 28.24492801047745,53.30640668862907 27.997545811507734,52.84026118469046 27.7722513089102,52.29354031098774 27.657395287969848,51.94823901723794 27.533704188477714,51.51660815408104 27.54695680628356,51.3151788033756 27.52045157068642,51.14827942017291 27.476276178014814,51.119503593145055 27.48952879582066,51.00440007536599 27.61763743456686,50.797212897843565 28.09914921465679,50.18715545130908 28.51439790574659,49.61737630521384 28.53648560210422,49.56557779333525 28.51439790574659,49.50802381155518 28.487892670164,49.0706108085069 28.492310209418065,48.978523243084055 28.465804973835475,48.94974583483054 28.434882198969717,48.967012282304495 28.156577225148794,48.85190248992876 27.997545811507734,48.74254787633981 28.116819371731253,48.828880491182645 28.094731675402727,48.84614699149097 28.07264397905965,48.84039149221644 28.019633507850813,48.91521291724348 27.564626963358023,49.1684536114808 27.423265706805978,49.20298630758771 26.924083769641584,49.24902985542576 26.893160994761274,49.208741754016955 26.795975130895386,49.19147541224447 26.716459424074856,49.15118725211141 26.310045811522286,48.82312498940519 26.18193717279064,48.73679236197859 26.15101439791033,48.73679236197859 26.11125654449279,48.75981441440308 25.81086387434334,49.16269815920168 25.815281413626508,49.20298630758771 25.77110602094035,49.20298630758771 25.709260471208836,49.25478529511747 25.700425392686157,49.295073349552695 25.612074607342947,49.36413849010205 25.55906413611956,49.34111678999034 25.42212041885068,49.398671015060245 25.033376963358023,49.43895892269211 21.21220549737336,49.78428215904569 21.115019633507472,49.80730360076632 19.90461387434334,49.922410608000064 19.869273560208967,49.89363388766651 19.81626308900013,49.905144578307954 19.79859293194022,49.933921290292346 19.334751308895648,49.97996398581017 19.05644633510383,49.99147465130227 18.804646596865496,50.014495972220175 18.733965968582197,50.0375172797103 18.70304319373099,50.02600662765326 18.552846858656267,50.05478325153308 18.446825916238595,50.04902792843859 18.4203206806269,50.06629389521913 17.39545157068642,50.1468683070525 17.236420157074463,50.15837892389027 17.183409685865627,50.1468683070525 15.831642670178553,50.27348490775694 15.526832460745936,50.27348490775694 15.517997382208705,50.308016637471155 15.544502617805847,50.308016637471155 15.535667539268616,50.61304560525605 15.531250000029104,50.359814175444626 15.517997382208705,50.38283528161992 15.420811518313712,50.308016637471155 14.948134816761012,50.279240198146 14.78468586388044,50.215931957758585 14.753763089000131,50.256219031551154 14.59031413611956,50.29650606426367 14.16623036650708,50.359814175444626 14.042539267029497,50.3022613512876 13.671465968582197,50.03176195410197 13.627290575925144,50.04327260450009 13.54335732985055,50.1468683070525 13.4859293193731,50.336793055859744 13.459424083775957,50.3943458296817 13.371073298432748,50.48067483314662 13.057428010477452,50.48067483314662 13.0,50.52671689116687 13.030922774865758,50.82598895972842 13.578697643999476,50.81447853750433 13.733311518313712,50.797212897843565 13.764234293208574,50.831744169598096 13.896760471194284,50.88929622206706 13.967441099492135,50.94109299755655 14.082297120417934,51.113748425221274 14.122054973806371,51.240361925727484 14.148560209418065,51.70077123272495 14.082297120417934,52.52373949612593 14.02928664922365,53.70348925959843 13.976276178014814,54.29622827802086 13.985111256537493,54.5206611184185 14.016034031417803,55.274515937861 14.152977748701232,56.94330366848226 14.170647905761143,57.605044796862785 14.272251308895648,58.87670749382232 14.285503926716046,59.56143198897189 14.267833769641584,60.25765228885939 14.325261780104483,60.75823285521619 14.38710732985055,61.88595433698356 14.422447643999476,62.04705477781681 14.426865183238988,62.27719712509497 14.479875654462376,62.564873173811065 14.625654450253933,62.97336956365325 15.080660994761274,63.77308970345621 15.226439790596487,64.08952126004806 15.257362565447693,64.23335294794015 15.297120418850682,64.32540495339708 15.500327225134242,65.19413519162481 15.562172774865758,65.69465321196913 15.71678664922365,66.52883582250433 15.730039267029497,66.6899173322854 15.822807591612218,67.155899430727 15.942081151835737,67.94978220088888 16.039267015701625,68.35822291916702 16.215968586388044,68.88746376748168 16.339659685865627,69.11756627319119 17.055301047148532,70.08973457025786 17.245255235611694,70.33708718400521 17.338023560208967,70.41186790196298 17.333606020954903,70.45788673497373 17.580988219895517,70.54992424026204 17.66492146597011,70.54992424026204 18.035994764388306,70.59019058140257 18.433573298432748,70.64196153116063 18.4910013089102,70.6649708203986 18.57935209425341,70.65921849934239 18.94600785340299,70.7109893586603 18.97251308900013,70.69948472913529 20.25359947644756,70.7224939848602 21.03992146597011,70.75125553568432 21.76881544502976,70.74550322720461 21.945517015701625,70.7224939848602 22.55513743456686,70.7224939848602 26.795975130895386,70.73975091787725 27.220058900522417,70.74550322720461 27.23772905759688,70.78576936906757 27.273069371731253,70.78576936906757 27.2863219895371,70.73975091787725 28.07264397905965,70.75125553568432 28.17866492146277,70.72824629669412 28.660176701581804,70.74550322720461 31.898232984298375,70.74550322720461 33.18373691101442,70.73975091787725 33.88170811517921,70.78001706560099 34.51341623037297,70.77426476128676 34.95517015707446,70.73975091787725 36.74869109947758,70.73975091787725 38.012107329836,70.69373241309222 39.99116492147732,70.5441719024493 40.70238874346251,70.5441719024493 40.86142015707446,70.55567657721622 40.976276178029366,70.61319990077027 41.01161649214919,70.61319990077027 41.15297774870123,70.68222777852134 41.29875654450734,70.79727397349052 41.42244764397037,70.94108124619015 41.479875654462376,71.033117626077 41.559391361282906,71.26320763801778 41.48429319373099,71.06187895083349 41.35176701571618,70.87780611067501 41.16623036650708,70.70523704431616 40.98069371728343,70.58443824947608 40.985111256552045,70.04946771916366 41.2148232984473,69.86539016301685 41.17506544502976,69.76184616083628 41.294339005238726,69.5950246977809 41.25458115185029,69.60652964886685 41.2589986910898,69.52599492084119 41.28108638746198,69.4454600286881 41.877454188477714,69.48572749527739 42.22202225132787,69.47997500257043 42.235274869119166,69.41669752740563 42.14692408377596,69.2498746072306 42.1027486910898,69.2096069002946 42.06299083770136,68.99676262475987 42.111583769641584,69.22686449398316 42.16459424085042,69.34191492615355 42.28386780105939,69.52024243399501 42.752126963372575,69.9516766242159 42.973003926701494,70.08973457025786 42.98625654450734,70.13575377843517 42.973003926701494,70.31407770386431 43.030431937178946,70.33133481523328 43.03484947643301,70.79727397349052 43.05693717279064,70.8835583998989 43.061354712044704,70.85479694537935 43.043684554999345,70.85479694537935 43.11436518325354,70.85479694537935 43.22922120419389,70.75125553568432 43.436845549731515,70.61319990077027 43.66655759162677,70.5326672243391 43.87859947643301,70.49240082457982 44.80628272253671,70.4693914348718 46.445189790581935,70.4693914348718 47.929482984298375,70.48089613139018 48.30497382199974,70.51541020089644 48.33147905759688,70.50390551441524 48.54352094241767,70.50390551441524 48.75998036650708,70.48089613139018 49.31217277486576,70.48089613139018 49.77601439791033,70.45788673497373 50.248691099492135,70.45788673497373 50.63743455498479,70.48664847841064 51.43700916231319,70.45213438378414 51.494437172761536,70.4693914348718 51.50327225132787,70.45213438378414 52.40445026177622,70.42337261524517 52.797611256552045,70.37735374203112 53.31888089007407,70.36584901534661 54.105202879582066,70.31407770386431 55.085896596850944,70.29682058493927 58.17817408377596,70.15876336240763 60.828697643984924,70.05522012896836 61.45157068064145,70.04946771916366 61.48249345549266,70.06097253794724 61.60176701571618,70.06097253794724 63.34669502617908,69.98619115595284 63.54106675393996,69.99194357497254 64.36714659688005,69.96318147148122 64.39365183246264,69.9516766242159 64.70287958117842,69.94592419933906 64.98560209425341,69.8999047701036 65.03861256546224,69.91140963243743 65.09604057591059,69.8999047701036 65.67473821989552,69.87689503538786 65.69682591622404,69.87689503538786 65.78075916231319,69.99194357497254 65.87352748691046,70.07247735338024 66.06348167541728,70.14725857208396 66.34620418849227,70.12424898141762 66.67310209425341,70.11274418104585 66.77470549738791,70.08398216547721 66.86305628273112,70.03221048468913 66.99116492146277,69.87689503538786 67.0,69.85388528728436 66.97349476441741,69.82512308330479 66.9867473822087,69.64679695132509 66.9293193717458,69.47997500257043 66.85863874344795,69.41669752740563 66.73053010471631,69.34766743896398 66.56266361258167,69.33040989801157 66.52290575916413,69.20385436737342 66.49198298429837,68.9564946598839 66.4698952879553,68.63434946355119 66.48314790576114,68.54806012571134 66.4698952879553,68.38698619091883 66.44339005235815,68.35822291916702 66.44339005235815,68.16263211609476 66.39479712041793,67.97854576995087 66.33295157068642,67.88074954973126 66.37270942408941,67.80596404152675 66.38154450261209,67.62762879691945 66.38154450261209,67.41477599970312 66.32411649216374,67.0350897847602 66.33295157068642,66.96030267594324 66.37712696335802,66.93153836562851 66.34178664922365,66.18941191994963 66.34620418849227,65.95929236132724 66.31528141362651,65.59109827971406 66.20042539268616,62.39802132069963 66.16066753928317,62.185140347071865 66.12090968588018,62.08157621538339 66.17392015708901,62.02979404772486 66.17392015708901,62.00102614748539 66.14299738219415,61.972258226265694 66.13416230367147,61.81691108977975 66.1827552356117,61.782389420946856 66.0546465968655,58.83642921272258 66.06348167541728,58.53721783859146 66.01047120419389,57.806442070155754 66.03255890053697,57.49571441844819 66.00605366492528,57.28280702358825 65.93979057591059,57.28280702358825 65.94862565444782,57.10442426865848 65.9972185864026,57.06989848109151 65.97513089005952,56.436920360494696 66.01047120419389,56.08014640415786 66.00605366492528,55.988075182584 65.94862565444782,55.809686579999834 65.92653795810475,54.97527757910939 65.98838350786536,54.68754624988287 66.01047120419389,54.65877300166903 66.04581151834282,54.48037839483368 66.03255890053697,54.158115126938355 66.05906413613411,53.87037784417407 66.05022905759688,53.28338728671224 65.98838350786536,51.90795366961538 65.98838350786536,51.84464804034724 66.00605366492528,51.746811868197256 65.97513089005952,51.68350598060715 65.93537303667108,50.64757703804935 65.94862565444782,50.630311325421644 66.23134816753736,50.590024633282155 66.36387434556673,50.53822739728275 66.48756544504431,50.54973790004442" stroke="#ff0000" stroke-linecap="round" stroke-linejoin="round" stroke-width="0.5"><title>2024-06-25 34.1km</title><desc>11735651473</desc></polyline><polyline fill="none" points="165.0266862786084,71.36512748134191 163.97709602856776,71.38730437124468 163.18281151502742,71.44644269691707 163.07501575959031,71.4760118338927 162.91048539607436,71.43905040997197 162.54171044335817,71.4760118338927 162.3828535406501,71.54254232902895 162.17293549061287,71.52036550702178 162.0878335784655,71.55732687163618 161.96301744063385,71.56471914133363 161.88358898929437,71.57211140996151 160.45955032570055,71.70517206075601 160.33473418783979,71.68299530985314 160.17020382432383,71.69038756124064 159.90355116620776,71.71256430890571 159.4837150661624,71.73474104685374 159.33053162429132,71.74213329069244 158.7121243958827,71.76431001571109 158.46816558099817,71.79387896732442 156.80016810251982,71.8456245911475 156.31792393358774,71.86780127090606 156.19310779575608,71.86780127090606 155.91510821602424,71.86040904539914 155.84135322546354,71.87519349532886 155.6711494011106,71.94172346673804 154.44000840513036,72.03782216020409 152.98192897666013,72.14131285717667 151.57491069551907,72.40003867555788 150.65581004411797,72.48135223154532 148.34671149399946,72.71790001669433 147.31414162638248,72.76225260356296 147.18932548852172,72.79182097326338 146.54822441688157,72.84356557873616 145.33410380329587,72.99140701772922 145.20361420465633,73.05054347262558 144.6305946627399,73.08011167424411 144.56251313301618,73.08750372194118 144.28451355325524,73.10228781409751 143.99516705190763,73.13185598553537 143.8192897667468,73.14664006477324 143.11578062616172,73.21316836802725 142.83778104640078,73.21316836802725 142.6448833788454,73.22056039635208 141.90166001257603,73.2723045643288 141.06198781254352,73.31665666630215 140.84072284091963,73.3757927418992 140.02374448408955,73.50884865987246 139.70035721786553,73.53841659423415 139.06492960700416,73.57537648795551 138.9457869300095,73.59016043787415 138.3897877705167,73.63451226184407 138.15150241644005,73.66408012292959 136.83525950828334,73.81931111079757 136.72179029203835,73.82670305075226 136.29060727040633,73.82670305075226 136.16011767173768,73.84148692740928 135.32044547170517,72.76225260356296 135.25803740278934,71.24685057135866 135.2410170203657,71.1581427078163 134.97436436224962,71.14335804879374 134.75309939059662,71.17292736253148 133.78293759189546,71.23206593821305 133.41416263917927,71.29120444492946 133.42550956079504,70.89941055275267 133.27799957973184,68.74818637018325 133.23828535404755,67.72059346653987 133.1872242067475,66.9960909874826 133.16453036351595,66.37508062232155 133.0737549905316,64.47503738405794 133.05106114727096,63.676554383499024 133.05673460807884,61.53981116355499 133.23261189321056,60.53425377727763 133.2155915107869,59.43994807386116 133.37444841352408,59.26249086884127 133.38579533513985,58.97412158562656 133.2950199621555,58.85581576409095 133.2212649716239,58.73750966642547 133.13616305944743,56.92591305886526 133.07942845133948,56.511824742909084 133.1134692162159,56.43788004477756 133.0737549905316,56.31956830338822 133.05106114727096,55.454405300839426 133.0,54.840648233508546 133.0340407648764,54.41914811139941 133.0340407648764,54.07898756216309 133.0340407648764,53.70185037140618 133.05673460807884,53.27294584182164 133.3687749526871,53.191601469818124 134.04959025001153,53.12504688655463 134.70203824332566,52.97714749967054 134.6453036351886,52.61479217770466 134.6453036351886,52.46689130174855 134.59424248788855,51.668219112929364 134.56020172301214,49.99688287745812 134.53183441897272,49.1759851605384 136.3700357217458,49.10942530338434 136.5175457028381,49.13161193216729 136.5175457028381,49.60492436517961 136.54591300690663,50.12260477700329 136.57428031097515,50.322280093998415 136.54591300690663,50.36665227980848 136.9260348812677,50.351861555514915 137.2891363731469,50.33707082691035 137.16999369615223,49.77501994096019 136.9260348812677,48.044455698804086 137.11325908801518,47.23831799000618 137.13027947043884,46.24726873667896 137.8054213070136,46.15112113586292 139.06492960700416,46.210288911788666 139.21243958809646,46.210288911788666 139.29186803949415,46.165913086329965 139.73439798274194,46.210288911788666 141.254885480128,46.165913086329965 141.35700777472812,46.165913086329965 141.9470476990682,46.23247680997156 142.7583525950613,46.239872773858224 142.9001891153166,46.173309059926396 142.99663794910884,46.24726873667896 143.0817398612853,46.173309059926396 143.97814666945487,46.173309059926396 144.14267703299993,46.24726873667896 146.44042866144446,46.20289294358372 146.576591720921,46.36560399492737 146.54255095607368,48.251534874809295 146.5709182601131,48.43642628113594 146.54255095607368,48.495591388676985 146.576591720921,49.449619210408855 146.58793864253676,49.72325178269239 146.6503467114817,50.130000173143344 146.66169363309746,50.5959079542954 146.59361210337374,50.72162836773714 146.70140785878175,51.490734694983985 146.7524690060527,51.557291424553114 146.96238705606083,51.734775609387725 147.43895776421414,51.81612231973122 147.6318554317986,51.77914655848872 148.369405337231,51.72738044743528 148.45450724940747,51.71998528440963 149.29985291024786,51.69040462145858 149.46438327376381,51.683009453034174 151.39903341035824,51.54250104775929 151.68270645089797,51.57947698164571 152.10254255094333,51.56468661132385 152.70392939689918,51.51292028122043 153.16347972262884,51.557291424553114 154.5364572388935,51.4167826707162 155.0470687118941,51.394597042399255 156.1420466484269,51.36501618952025 156.68669888630393,51.33543531938267 156.82853540658834,51.320644877858285 157.60012607689714,51.30585443199743 158.58730825802195,51.372411404350714 160.3687749527162,51.37980661811889 161.28787560408819,51.34283053854233 161.54885480139637,51.23929737218714 163.23387266229838,50.980463530951965 163.3076276528882,50.97306825893611 171.78945156544796,50.640279900511814 172.12418575331685,50.69204712201463 172.12985921412474,50.706837747049576 172.3965118722408,50.66246585908084 172.79365412899642,50.93609188256596 173.36667367094196,51.09139248193969 173.70708131958963,51.150554489853675 175.35238495483645,51.069206711159495 176.82181130489334,50.99525407178953 178.06429922251846,50.94348716000604 179.45997058207286,50.95827771163022 180.18617356588948,50.96567298582886 180.71380542128463,50.987858801898255 181.65559991594637,51.0100446082979 181.95629333893885,51.180135467893706 182.25698676193133,51.461153898231714 182.93780205925577,51.70519495509143 185.3887371296296,52.407730830494984 185.55326749317464,52.659162356329034 185.6440428661299,54.02722380015621 185.70077747426694,55.07727834464458 185.7121243958827,55.52095682534491 185.6780836310063,56.134705654592835 185.6837570918142,56.31217381038732 185.90502206343808,57.77626238676385 186.02416474049096,58.937151046062354 186.21706240807544,60.896552487203735 186.35322546752286,62.56752935174882 186.4099600756308,63.0702903724341 186.6652658121311,64.88166741242094 186.87518386213924,65.78363510726194 187.0,66.78169541161333 186.91489808785263,67.52098667392784 186.53477621346246,68.46726376000515 186.10359319183044,69.75358085334665 185.8255936120986,71.52775778209252 185.751838621567,71.66821080390582 185.62702248367714,71.76431001571109 185.08237024582922,71.87519349532886 183.81718848497258,71.63124952008366 182.6314351754554,71.75691777511747 182.2342929186998,71.75691777511747 182.14919100652332,71.7199565559713 178.20613574280287,71.38730437124468 176.35091405757703,71.23206593821305 175.93107795756077,71.09900404591099 175.1140996007598,71.07682702991951 173.3893675141735,71.09161170831794 173.26455137634184,71.06943468908867 172.8447152763256,71.07682702991951 172.77663374657277,71.11378871785564 172.59508300060406,71.08421936965169 172.27169573438005,71.09900404591099 172.18659382223268,71.17292736253148 172.11283883167198,71.09900404591099 171.86320655597956,71.10639638241628 170.22357638159883,71.18771201290656 169.8718218112772,71.17292736253148 169.724311830214,71.20249665899246 169.44063878964516,71.20249665899246 169.11725152339204,71.2246736200359 168.90733347338391,71.2246736200359 168.90166001260513,72.10435191822398 168.92435385583667,72.34829361748052" stroke="#ff4d00" stroke-linecap="round" stroke-linejoin="round" stroke-width="0.5"><title>2024-06-22 27.1km</title><desc>11711771666</desc></polyline><polyline fill="none" points="15.56921420886647,137.1554715283637 15.418083961238153,137.07974240904878 14.906566200195812,136.9131381524494 14.871689989231527,136.77682538009685 14.871689989231527,136.62536653452116 14.883315392886288,136.54963702899113 14.871689989231527,136.261864404456 14.813562970899511,136.11040480827796 14.83681377832545,136.04982090802514 14.685683530697133,135.95894499137648 14.453175457485486,135.74690087686758 14.290419806260616,135.64087865733745 14.360172228247393,135.48941815608123 14.360172228247393,135.42883389377675 14.313670613570139,134.80784316852805 14.313670613570139,133.97480100164103 14.232292787986808,132.14208472677274 14.232292787986808,131.7179804874686 14.197416577022523,131.4907810757868 14.220667384273838,131.0060873372713 14.232292787986808,130.83947334246477 14.33692142093787,130.4456573836651 14.476426264795009,130.06698678493558 14.453175457485486,129.97610563592752 14.627556512423325,129.35508232342545 14.685683530697133,129.1884656813054 14.674058127042372,128.23420158375666 14.581054897804279,128.1433188316514 14.56942949409131,127.90096443752554 14.56942949409131,127.81008139395999 14.650807319732849,127.7191982709046 14.650807319732849,127.5374317863243 14.546178686781786,127.46169565727905 14.534553283127025,127.37081222950656 14.48805166844977,126.35594188592222 14.48805166844977,125.55312697999034 14.557804090436548,124.91692963007517 14.66243272338761,124.43220522502088 14.82518837461248,124.37161451539578 14.848439181922004,124.26558068851591 14.99956942955032,123.41730617770372 15.057696447824128,123.20523646788206 15.080947255133651,122.87198319218442 15.034445640456397,121.94795715495275 15.034445640456397,121.40262645719486 14.976318622182589,120.569476808545 14.98794402583735,120.2210667924519 14.964693218586035,120.14532533002057 14.99956942955032,120.06958381236473 14.964693218586035,119.72117211986188 14.976318622182589,119.44850128468534 14.941442411218304,119.37275925903668 14.941442411218304,119.19097817209695 14.929817007563543,118.63048448521295 14.941442411218304,118.55474186314677 14.894940796599258,118.28206796655286 14.906566200195812,117.90335303403845 14.871689989231527,117.34285240036843 14.790312163648196,116.96413404404302 14.697308934351895,116.69145597265742 14.56942949409131,116.41877718557225 14.383423035498708,116.16124656284228 14.360172228247393,116.07035324944445 14.25554359529633,115.9946087608696 13.639397201361135,115.16141574164794 13.51151776110055,114.90388200198504 13.453390742768534,114.81298758848425 13.430139935400803,114.70694400555658 13.418514531804249,114.5251547544467 13.453390742768534,114.4342600095697 13.418514531804249,114.20702279947 13.441765339113772,114.13127695232834 13.418514531804249,114.0403818628256 13.406889128149487,112.96478393181314 13.52314316475531,112.8587384622806 13.395263724436518,112.76784225933807 13.360387513472233,111.67708162077906 13.267384284175932,109.93487073374126 13.267384284175932,109.48037613166525 13.186006458534393,108.35928094436531 13.186006458534393,108.23808073991677 13.33713670616271,108.16233054033364 13.348762109875679,108.02598004187166 13.16275565122487,107.98052983596426 13.0,105.84434772525128 13.0,105.79889656477462 13.023250807309523,105.76859578004951 13.441765339113772,105.6019413061149 14.534553283127025,105.37468477441143 15.022820236859843,105.2231801436501 15.115823466097936,105.25348108751496 15.278579117381014,105.19287919102499 15.336706135654822,105.08682578711887 16.057481162599288,104.81411653698888 16.15048439183738,104.84441760014306 16.31324004306225,104.78381546498713 16.46437029063236,104.72321329449915 16.510871905309614,104.61715941106377 16.999138859042432,104.42020191166375 18.20818083966151,103.9808338364528 18.894079655525275,103.76872444534092 19.1033369214274,103.73842306837469 19.173089343414176,103.69297098639072 20.10312163620256,103.45055954650161 21.34703982778592,103.23844907247258 21.42841765342746,103.25359983501403 23.49773950484814,103.11724289291305 24.404520990327,103.10209211047186 26.590096878411714,103.02633816534217 27.822389666340314,102.99603657183616 27.92701829923317,103.04148895881372 28.020021528587677,103.04148895881372 28.71754574816441,102.99603657183616 29.10118406888796,102.98088577177987 29.159311087219976,102.92028254937031 31.403013993578497,102.84452847164357 32.32142088271212,102.84452847164357 33.1584499462042,102.95058416498068 33.786221743852366,103.10209211047186 34.30936490854947,103.26875059528538 34.844133476901334,103.49601173456904 35.809041980654,104.13234027924773 35.843918191676494,104.23839465765195 35.96017222822411,104.22324403879611 36.169429494126234,104.3747501280086 36.22755651240004,104.46565367545554 36.47168998926645,104.69291219599108 37.27384284173604,105.35953432126553 37.34359526372282,105.61709172387054 37.16921420884319,105.75344538435456 37.738858988159336,107.253323836645 38.08762109797681,108.086580285526 38.1806243272149,108.58653094654437 38.19224973092787,108.9501299159383 38.25037674920168,109.26827797017904 38.43638320779428,109.32887748905341 38.44800861139083,109.58642505005264 38.63401507004164,109.63187455329171 39.15715823468054,109.61672472109785 39.23853606026387,109.73792331697769 40.052314316504635,109.70762368128635 40.133692142087966,109.61672472109785 40.4010764262639,109.61672472109785 40.49407965550199,109.6773240367329 41.470613563025836,109.61672472109785 43.37717976322165,109.58642505005264 43.446932185208425,109.57127521118673 43.49343379982747,109.49552598378796 44.20258342305897,109.48037613166525 44.30721205595182,109.55612537009438 45.02798708289629,109.52582568133948 45.28374596341746,109.49552598378796 45.37674919271376,109.4349265620549 45.46975242195185,109.49552598378796 45.55113024759339,109.51067583366967 45.667384284199215,109.48037613166525 45.93476856837515,109.48037613166525 46.01614639401669,109.41977670112101 46.10914962325478,109.41977670112101 46.20215285255108,109.41977670112101 46.28353067813441,109.45007642082783 46.550914962310344,109.4349265620549 46.63229278795188,109.40462683801161 46.981054897769354,109.38947697263939 47.074058127065655,109.40462683801161 47.32981700752862,109.37432710506255 47.60882669541752,109.40462683801161 47.78320775029715,109.40462683801161 47.86458557593869,109.37432710506255 48.213347685697954,109.40462683801161 48.562109795515426,109.38947697263939 48.81786867597839,109.29857773405092 50.701184068922885,109.20767841592897 51.177825618942734,109.14707882631046 51.23595263721654,109.16222872701474 51.38708288484486,109.1319289233943 52.096232508076355,109.0713292895889 53.003013993555214,109.0713292895889 53.29364908504067,109.02587954105547 53.37502691068221,109.0713292895889 53.5610333692166,109.0713292895889 53.63078579120338,109.02587954105547 54.339935414434876,109.04102945942577 54.421313240076415,109.17737862553622 56.43250807322329,109.0713292895889 58.29257265874185,109.02587954105547 59.09472551132785,108.96527984538261 60.74553283100249,108.90468011436315 61.512809472566005,108.84408034798253 61.66393972019432,108.8895301760931 62.22195909585571,108.8895301760931 63.6402583423187,108.82893040089402 64.67491926805815,108.82893040089402 65.11668460711371,108.78348054629896 65.29106566199334,108.81378045158635 65.68632938642986,108.78348054629896 65.76770721212961,108.82893040089402 66.02346609259257,111.35894094376272 66.20947255118517,112.07096872811235 66.24434876209125,112.31336005179037 66.41872981702909,113.02538129444292 66.46523143164814,113.31321828390355 66.5698600645992,113.69194994973805 66.58148546825396,113.85859144527785 66.68611410120502,114.34336518520286 66.80236813786905,115.009925383878 66.91862217441667,115.84311961806088 66.98837459634524,116.14609768281662 66.98837459634524,116.31273524175049 67.0,116.47937253346026 66.98837459634524,117.10047281134757 66.95349838538095,117.448893292727 66.88374596339418,117.78216396405332 66.88374596339418,117.87305577979714 66.8139935414656,118.22147367015714 65.75608180841664,120.78155189844983 65.4886975242407,121.4783670030738 65.4305705059669,121.67529216389812 65.34919268026715,122.05399334713002 65.19806243275525,122.5841726847284 65.13993541448144,122.75079991779785 65.10505920345895,122.91742688357044 64.59354144241661,126.21961526366067 64.55866523145232,126.38623666658532 64.47728740586899,126.5528578022786 64.43078579119174,126.62859459381434 64.29128094727639,126.74977334550931 64.03552206675522,126.84065731646115 63.62863293866394,126.94668851546885 63.12874058127636,127.03757231422787 62.96598493005149,127.03757231422787 62.500968783628196,127.02242501993169 62.187082884891424,126.96183582079539 61.14079655543901,126.67403664226731 60.88503767491784,126.62859459381434 60.5595263724681,126.53771043735469 59.83875134552363,126.65888929500215 58.51345532829873,126.79521534092055 58.15306781488471,126.79521534092055 57.33928955870215,126.74977334550931 57.24628632940585,126.7800680113287 57.141657696454786,126.73462600925996 56.85102260496933,126.6891839873424 55.897739504871424,126.62859459381434 55.52572658774443,126.5528578022786 53.04951560817426,126.32564709644794 46.237029063515365,125.85607672983315 46.155651237932034,125.82578179459233 45.493003229319584,125.75004441785131 45.01636167924153,125.64401199770509 44.93498385359999,125.65915949289774 44.272335845045745,125.4622418828003 43.83057050593197,125.41679930437385 42.08675995696103,125.35620916889457 40.66846071043983,125.40165177382005 39.59892357379431,125.38650424108346 39.482669537188485,125.44709435886034 39.25016146397684,125.43194683273032 39.19203444564482,125.4622418828003 39.12228202371625,125.85607672983315 39.12228202371625,126.8558046372491 39.15715823468054,127.03757231422787 39.18040904199006,127.52228456494777 39.18040904199006,127.90096443752554 39.21528525301255,128.68861415178253 39.19203444564482,128.90067267009 39.12228202371625,129.03699577474617 39.00602798705222,129.23390661015583 39.00602798705222,129.32478840839758 39.01765339076519,129.40052317949448 39.075780409039,129.46111095660308 39.226910656667314,129.58228640491143 39.2617868676316,129.70346171190613 39.3547900969279,129.91551815907587 39.2617868676316,130.05183993230457 39.296663078595884,130.7182993602837 39.296663078595884,130.79403311568603 39.2617868676316,130.85462008028844 39.2617868676316,130.91520700960245 39.1687836383353,130.96064718333218 38.889773950504605,130.9000602805827 37.1343379978789,130.94550046096992" stroke="#4dd2ff" stroke-linecap="round" stroke-linejoin="round" stroke-width="0.5"><title>2024-06-18 12.9km</title><desc>11680680583</desc></polyline><polyline fill="none" points="139.36478045023978,147.0 139.2579377036891,146.96203711847193 139.18023388803704,146.83549406012753 139.18023388803704,146.6077160904024 139.19965984195005,146.44320940725447 139.18023388803704,146.32931998248387 139.1316690031672,146.24073921548552 139.1510949571384,146.19012159377598 139.05396518751513,146.13950394256972 138.84027969447197,145.9749963722861 138.79171480966033,145.96234193089185 138.69458504003705,145.8864152437818 138.7528629018343,145.73456167036056 138.7431499248487,145.57005333279085 138.7431499248487,145.1271447207837 138.71401099395007,144.93732605253172 138.71401099395007,144.50706886799162 138.69458504003705,144.21601132825162 138.64602015528362,142.2671661395434 138.64602015528362,142.08999622581177 138.71401099395007,141.64706985968223 138.76257587881992,141.4698986804724 138.95683541800827,140.93838297350158 139.02482625667471,140.64731346924236 139.05396518751513,140.4195192634943 139.05396518751513,140.0145503107051 138.97626137186307,139.93861842174374 139.0151132796891,139.6095794687717 139.04425221058773,139.55895798072015 139.04425221058773,139.43240413139574 138.92769648705143,139.38178253998922 138.85970564832678,138.0909219860696 138.84999267139938,137.6100082446428 138.89855755621102,137.02784594042168 139.02482625667471,136.4203680692226 139.18994686496444,136.3697447213999 139.30650258850073,135.62304691183817 139.36478045023978,135.3952395217566 139.36478045023978,135.31930359220132 139.33564151934115,135.24336759622383 139.33564151934115,135.07883937705628 139.35506747325417,135.0029031707454 139.34535449632676,134.6738455090017 139.32592854241375,134.19291283660277 139.29678961151512,134.04103880751063 139.28707663458772,133.82588347810815 139.28707663458772,133.74994617571792 139.30650258850073,133.6740088068691 139.29678961151512,133.4082274928005 139.2676506806747,133.2690083844427 139.2579377036891,133.05385114144156 139.24822472670348,132.7121297181875 139.2676506806747,132.6615042077392 139.2676506806747,132.44634545893496 139.23851174977608,132.3957197934651 139.22879877284868,131.5097658682207 139.19965984195005,131.38320028356247 139.20937281887745,131.10475534776197 139.19965984195005,130.59848953966866 139.16080793406582,130.32004208653962 139.06367816450074,130.05425050257327 138.9956873258343,129.91502601471439 138.84027969447197,129.67454682796233 138.7334369479213,129.5353217310403 138.72372397093568,129.48469436770392 138.65573313221103,129.45938067495445 138.57802931650076,129.37078269224003 138.4906125239213,129.20624334154127 138.20893619209528,128.8645067703692 138.1020934455446,128.64933860937163 138.08266749163158,128.5860537546323 137.9952506989939,128.52276885371975 137.9855377220665,128.43416991495906 137.95639879116789,127.07986059389805 138.08266749163158,126.99126018224342 137.95639879116789,126.90265968011954 137.94668581418227,126.82671632061101 137.91754688328365,125.85210397517949 137.8301300907042,124.24460255867598 137.8398430676316,123.99145001573197 137.8301300907042,123.94081941857439 137.77185222890694,122.99149025224324 137.90783390641445,122.90288566691015 137.92725986026926,122.75099188157765 137.74271329806652,122.70036056071694 137.52902780496515,120.06749117204163 137.49017589713912,119.25736144418624 137.43189803540008,117.76366493201203 137.4513239892549,117.7003721391302 137.43189803540008,117.63707930011878 137.36390719661722,116.24462516221683 137.26677742705215,114.91544355095539 137.50960185105214,114.7002408036642 138.44204763910966,114.42174233849073 138.8694186253124,114.30781089061202 138.98597434884869,114.4344013790469 139.5396140354569,114.26983370805101 139.7921514363843,114.15590206067282 139.85042929818155,114.10526572493836 139.87956822908018,114.00399296485557 139.8892812060658,113.86474272672785 139.86014227516716,113.81410622107796 139.83100334426854,113.63687821871281 139.84071632119594,113.57358241580368 139.71444762073224,112.45956872829265 139.74358655163087,112.38361272878683 139.72416059771786,111.90255652127962 139.73387357470347,111.32022175450402 139.83100334426854,109.96564533091441 139.8989941829932,109.49723547896428 139.86985525215277,109.40861711441539 139.8989941829932,109.04148292565515 139.8989941829932,108.53508839216374 139.84071632119594,107.82613108018268 139.68530868989183,106.92726616003347 139.5396140354569,106.35755822029023 139.5007621276891,106.29425710719079 139.33564151934115,105.81316713835258 139.33564151934115,105.7625259338165 139.2773636576021,105.71188469976187 139.2676506806747,105.61060214289319 139.11224304931238,105.3573952335355 139.08310411841376,105.20547073324269 139.04425221058773,105.15482917403278 138.83056671748636,104.6484119561137 138.7722888556891,104.57244911846647 138.7334369479213,104.44584424126515 138.6265942013124,104.26859710284043 138.616881224385,104.1546523226425 138.58774229348637,104.12933124004485 138.54889038566034,104.04070739279996 138.51975145481993,103.68621109848755 138.80142778658774,103.42033792725124 139.21908579586307,103.34437401438481 139.29678961151512,103.42033792725124 140.5497636392247,103.28107070286205 140.56918959319592,103.09116049115255 141.0548384411377,103.00253558342229 142.230108653137,102.90124986376759 144.25040786073077,102.82528549639392 144.33782465331024,103.01519629005634 144.4058154920349,102.82528549639392 145.1828536487883,102.78730328778329 145.2022796027013,102.74932106251799 145.1828536487883,102.63537428703421 145.2022796027013,102.48344502019609 145.37711318797665,102.58473122763098 145.4256780727883,102.774642547869 145.54223379626637,102.774642547869 145.590798681078,102.72399956981099 145.5810857040924,102.2049073400267 145.590798681078,102.10362068918766 145.590798681078,101.86306441945635 145.590798681078,101.52122015196073 145.5616597501794,101.38194987906172 145.5810857040924,101.07808668942744 145.5616597501794,100.88817165538785 145.5810857040924,100.77422243549518 145.571372727165,100.66027306588512 145.60051165806362,100.47035711727221 145.590798681078,100.19181297398609 145.61993761191843,99.40682012213801 145.65878951980267,99.07762745751097 145.67821547371568,98.72311088324204 145.68792845064308,98.19133330549084 145.66850249673007,98.12802623384778 145.66850249673007,97.97608907349058 145.67821547371568,97.90012039353314 145.63936356588965,97.53293750243756 145.62965058890404,97.25438392772776 145.54223379626637,96.29210106039682 145.52280784229515,95.78563210594439 145.52280784229515,95.68433796021418 145.48395593452733,95.38045481341396 145.46452998061432,95.13987990056194 145.49366891145473,95.02592313003697 145.48395593452733,94.97527562844334 145.4353910497157,94.19023557202308 145.52280784229515,93.96231938624987 145.60051165806362,93.86102311145078 146.02788264420815,93.83569902426825 146.0958734829328,93.73440260165808 146.17357729864307,93.73440260165808 149.92278640490258,93.58245774589886 149.99077724356903,93.68375434596965 150.15589785185875,93.6710922774073 150.2336016675108,93.56979566258087 154.52673748345114,93.44317472768307 156.67330539150862,93.32921572820487 160.60706105997087,93.24058084737044 160.68476487562293,93.34187784668029 160.84988548391266,93.34187784668029 160.93730227655033,93.22791871415393 161.50065494014416,93.2152565790966 162.21941523515852,93.2152565790966 162.3068320277962,93.31655360793957 162.38453584344825,93.2152565790966 170.28118611127138,93.0 170.34917694993783,93.02532433115266 170.4268807656481,93.11395943193202 171.18449296848848,93.11395943193202 172.01009600999532,93.07597297125176 172.4860318810097,93.07597297125176 172.72885630500969,93.22791871415393 172.77742118976312,93.24058084737044 172.7482822588645,93.34187784668029 172.77742118976312,93.56979566258087 172.78713416669052,94.21555955569056 172.82598607451655,94.49412288823805 172.90368989028502,94.76002341664571 173.19507919903845,95.40577844965446 173.2727830146905,95.78563210594439 173.31163492251653,95.9122496217824 173.30192194553092,96.11483726267033 173.34077385341516,96.49468781428004 173.46704255387885,97.40632235208614 173.5447463695309,97.68487543897936 173.58359827735694,98.19133330549084 173.62245018524118,98.33060870045301 173.72929293173365,98.59649746992363 173.82642270135693,99.06496617622179 173.82642270135693,99.28020770665898 173.87498758611036,99.59673839896277 173.9138394939946,100.19181297398609 173.81670972442953,100.98945972526417 173.80699674744392,101.33130608801002 173.7875707935309,101.40727176349174 173.74871888570487,101.68581200446351 173.72929293173365,101.8250817895605 173.6515891160816,102.00233392006339 173.5447463695309,102.10362068918766 173.49618148471927,102.21756816308334 173.45732957689324,102.24288980360143 173.2727830146905,102.17958568839094 173.1270883603138,102.17958568839094 172.45689295011107,102.2049073400267 172.31119829573436,102.25555062112107 172.27234638790833,102.30619387266051 172.30148531874875,102.36949789548817 172.43746699619805,102.44546266193356 172.5054578349227,102.45812344985461 173.6515891160816,102.42014108046715 173.74871888570487,102.63537428703421 173.76814483955968,102.73666031708126 173.74871888570487,102.78730328778329 173.7875707935309,102.82528549639392 173.7584318626905,102.83794622888672 173.7875707935309,103.07849979560706 173.9235524709802,103.10382118487178 174.10809903318295,103.25574936532212 174.3120715492987,103.4709804988961 174.428627272835,103.68621109848755 174.5548959732987,103.68621109848755 174.66173871984938,103.77483530784957 174.84628528211033,103.8761200077206 175.24451733741444,104.0280468357887 177.59505776152946,104.69905381088756 178.00300279376097,104.77501653768559 178.1584104251815,104.85097919794498 178.5469295035582,104.95226264153462 178.72176308877533,104.97758348396746 179.00343942060135,105.07886677977513 179.35310659109382,105.15482917403278 179.41138445289107,105.20547073324269 179.92617223173147,105.34473486865318 180.0912928400212,105.45867808598268 180.17870963265887,105.54730048484635 180.25641344831092,105.72454501103493 180.28555237920955,106.05371245623246 180.28555237920955,106.52214089821791 180.32440428703558,107.05386741639813 180.32440428703558,107.25642904238339 180.42153405665886,108.15529055257502 180.45067298749927,108.71232681505353 180.44096001051366,108.90222472356254 180.4700989414123,109.57319400511915 180.4992378723109,109.64915246474993 180.50895084929653,109.86436773936293 180.4895248953253,110.0922421541618 180.52837680315133,111.24426475766813 180.45067298749927,111.67468686057691 180.46038596442668,111.76330291084014 180.4992378723109,111.87723769964214 180.4895248953253,111.95319414241385 180.56722871103557,112.58616191303736 180.56722871103557,112.80136990328901 180.81005313497735,114.26983370805101 180.95574778935406,115.57370746498782 181.06259053596295,116.89022031336208 181.120868397702,117.32061441252881 181.120868397702,117.43454190500051 181.17914625949925,117.83961622251809 181.19857221335405,118.16873771329847 181.31512793689035,119.27001977936015 181.35397984471638,119.47255289073655 181.363692821702,119.8016681887093 181.41225770645542,120.38394604299538 181.53852640691912,121.61178001789085 181.59680426871637,122.38391413618956 181.645369153528,122.82693880745501 181.6259431995568,122.9408590717212 181.645369153528,123.23198795648932 181.70364701526705,123.47248499431589 181.7619248770061,123.64969291150919 181.7716378539335,123.96613472086756 181.93675846222322,125.48503934567998 182.18929586320883,126.72545840453677 182.25728670193348,127.00391738942562 182.2767126558465,127.15580373189005 182.4126943332376,127.7886606312677 182.46125921804924,127.9152314574385 182.60695387242595,128.94044834692613 182.72350959590403,129.5100080530974 182.73322257288964,129.8390852908924 182.71379661897663,130.48457932590827 182.6652317342232,130.85162281281373 182.59724089549854,131.21866474762646 182.07274013973074,132.54759670126077 181.99503632402048,132.80072429043503 181.82020273874514,133.16775798356684 181.53852640691912,133.87650830947678 181.44139663735405,134.18025667766778 181.2568500751513,134.92696689798322 181.15972030552803,135.19274356202368 181.09172946686158,135.72429444885347 180.89746992767323,136.86332110338844 180.82947908894857,137.40751745121815 180.69349741149927,138.14154433017393 180.65464550367324,138.25544449653535 180.56722871103557,138.35668896332936 180.41182107967325,138.45793331213645 180.28555237920955,138.50855544224032 179.62506994599244,138.66042165541148 179.03257835144177,138.67307716118376 178.61492034222465,138.58448858201882 177.72132646199316,138.35668896332936 177.6630486001959,138.35668896332936 177.22596463706577,138.2681000613302 176.90543639741372,138.33137785774306 175.81758297799388,138.47058884741273 175.29308222216787,138.48324438087002 174.77829444338568,138.4452777749757 174.59374788112473,138.48324438087002 174.52575704240007,138.41996669518994 170.97080747538712,138.1035775748678 165.5606793090701,137.7365647507031 164.5213907744619,137.57204125686985 164.46311291272286,137.58469692129438 163.81234345649136,137.3568946790474 163.64722284814343,137.33158328188438 162.09314653469482,137.31892758056347 161.9183129494195,137.34423898137902 161.62692364066606,137.33158328188438 160.27681984333321,137.34423898137902 159.90772671886953,137.31892758056347 159.84944885713048,137.36955037484586 159.83002290315926,137.4454845109576 159.78145801840583,137.48345155411516 159.7523190875072,137.48345155411516 159.71346717968117,137.3568946790474 159.4900687096524,137.36955037484586 159.4706427557394,137.39486176092032 159.46092977875378,137.98967720926157 159.4997816865798,139.1413295778184 159.4997816865798,139.25522843241197 159.4803557326668,139.369127137521 159.50949466356542,139.72347770899069 159.51920764049282,140.22969030207605 159.4997816865798,140.39420875924407 159.4706427557394,140.47014024974487 159.40265191701474,140.45748500594345 159.3540870322031,140.59669258631038 159.41236489400035,140.76121034802782 159.4803557326668,140.78652074519778 159.57748550229007,140.84979670594475 159.55805954831885,140.97634848904272 159.65518931794213,141.12821038525 159.58719847921748,141.22945150182932 159.6260503870435,141.64706985968223 159.57748550229007,141.79893058262678 159.53863359440584,141.84955076462938 159.44150382484077,141.83689572186995 159.05298474646406,141.91282595053053 157.4114916403778,142.00141113339487" stroke="#4dd2ff" stroke-linecap="round" stroke-linejoin="round" stroke-width="0.5"><title>2024-06-16 17.5km</title><desc>11665911436</desc></polyline><polyline fill="none" points="13.0,165.13180607254617 14.672131147584878,164.63504874906357 15.778688524616882,164.37865699339454 16.66393442626577,164.2344363678858 17.831967213132884,164.10624009730236 24.5081967212609,163.80177335505869 26.106557377032004,163.7697241752394 27.790983606595546,163.62550275020476 29.942622950824443,163.5293550282804 31.77459016389912,163.46525650023978 33.02868852461688,163.48128113578423 33.803278688516,163.40115793485165 35.168032786867116,163.3691086380495 36.80327868857421,163.2088620141003 42.606557377032004,162.79221969763603 44.29098360653734,162.7601702232496 45.25000000005821,162.7281207394335 46.46721311478177,162.59992271087685 48.45901639346266,162.45569974987302 49.553278688516,162.42365017729753 51.69262295082444,162.40762538747367 56.229508196760435,162.3275014033643 57.69262295088265,162.37557580082648 59.30327868857421,162.3916005952924 59.659836065606214,162.35955100398132 63.11475409835111,162.23135254524095 63.88934426230844,162.27942698478728 64.03688524587778,162.3275014033643 64.13524590164889,162.43967496476398 64.18442622950533,162.58389794675895 64.33196721307468,163.94599454872514 64.60245901643066,165.6766341023249 64.73770491807954,166.76628205499583 65.09426229511155,170.66008273683838 65.5983606557129,175.69137387832598 65.67213114752667,176.81296788273175 65.77049180329777,177.4698961963877 65.9549180328031,179.216345049339 66.16393442626577,180.38596958440758 66.75409836065955,183.22185682997224 66.97540983610088,184.80799913233932 67.0,185.2245579607843 66.95081967214355,186.21788417852804 66.88934426230844,186.6184164031365 66.840163934452,186.87475626070227 66.72950819676043,187.19518024161516 65.62295081967022,189.95078790539264 65.51229508197866,190.20711998881598 65.35245901637245,190.65569969581702 64.98360655741999,192.06550971046818 64.51639344263822,195.23751611130137 64.3934426230262,195.63801545967 64.20901639346266,195.8943342765706 63.93852459016489,196.07055311635486 63.63114754098933,196.16667236443027 63.213114754122216,196.26279152844654 62.70901639346266,196.29483123109094 62.303278688516,196.29483123109094 61.971311475441325,196.23075181645254 60.22540983615909,195.7821948677083 59.401639344287105,195.8943342765706 58.04918032785645,196.02249346084136 57.69262295088265,196.0385133483578 57.323770491813775,196.02249346084136 52.331967213132884,195.55791570676956 48.409836065606214,195.31761609775276 47.52459016395733,195.2214961070058 44.30327868857421,194.98119576234603 43.95901639346266,194.91711558165844 43.393442622967996,194.756914966536 42.86475409840932,194.64477439693292 42.581967213132884,194.53263371292996 42.39754098362755,194.51661360585422 40.23360655741999,194.56467392003105 38.05737704917556,194.5806940200855 37.38114754098933,194.62875430624263 36.82786885247333,194.59671411781164 35.401639344287105,194.62875430624263 28.442622950766236,194.86905542165914 27.729508196760435,194.86905542165914 27.803278688516002,196.45502960422164 27.76639344263822,197.76864745475905" stroke="#4dd2ff" stroke-linecap="round" stroke-linejoin="round" stroke-width="0.5"><title>2024-06-10 10.8km</title><desc>11618274362</desc></polyline><polyline fill="none" points="150.0034602076048,191.71020867076004 149.96842560556252,191.02549288389855 149.88667820068076,190.41685285799758 149.86332179931924,190.00601883416675 149.82828719727695,189.26042703090934 149.85164359863847,188.89523726571497 149.82828719727695,188.81915590375138 149.75821799307596,188.78872334351036 149.13927335635526,188.83437218060135 143.53373702423414,188.98653482680675 137.42603806225816,189.2299945992636 136.5735294117476,189.27564324341074 135.6275951556745,189.36694047172932 135.25389273354085,189.35172427256475 135.12543252593605,189.29085945366387 135.02032871969277,189.21477838014107 134.93858131486923,189.00175107921677 134.90354671276873,188.75829077429808 134.8801903114072,187.70836170418625 134.92690311424667,187.0692692730081 134.84515570936492,186.24757325414248 134.74005190312164,183.4476715751589 134.72837370244088,182.61072986064391 134.77508650516393,182.0324753009627 134.7517301038606,181.78899873837508 134.66998269892065,181.30204390911967 134.6232698961976,180.48030248246505 134.5882352941553,180.19116970092 134.52984429063508,179.91725369534106 134.366349480988,179.5520312361259 133.47880622837692,178.31939599991892 133.3503460207139,178.10634645873506 133.24524221452884,177.83242498095933 133.21020761242835,177.61937444561772 133.1985294118058,177.26936190757988 133.28027681662934,176.61498749176098 133.2919550173101,176.1736628945364 133.1985294118058,174.39312746097858 133.1985294118058,173.63220561677008 133.11678200692404,172.18643882629112 133.07006920414278,170.05579862338345 133.0,168.89914715135092 133.0350346020423,168.7926128183026 133.2218858131091,168.71651679949719 133.98096885817358,168.54910536285024 134.4948096885928,168.41213216944743 136.32828719721874,167.68160543458362 138.62889273354085,166.87497622333467 139.4930795847322,166.6162447781171 140.60250865051057,166.41839088711276 141.26816608995432,166.3422931368841 142.03892733564135,166.2814148966936 146.2430795847904,166.11399955305387 148.82396193774184,165.9770231629882 149.78157439443748,165.9770231629882 151.5333044982981,165.9161447096849 152.1172145328601,165.93136432635947 152.80622837372357,166.007462376263 153.39013840834377,166.1292191408138 153.88062283740146,166.2509757632797 154.44117647060193,166.4792690474278 154.95501730107935,166.72278133323562 155.27032871975098,166.92063464706007 155.6557093426236,167.20980420007982 156.2045847750851,167.71204415062675 156.47318339103367,168.00121151041094 156.77681660902454,168.38169365764043 156.9169550173101,168.57954382586468 157.05709342565387,168.86870878158516 157.88624567480292,171.01459209842142 158.00302768166875,171.47115732339444 158.10813148791203,172.1255639956653 158.14316608995432,172.18643882629112 158.23659169551684,172.21687622832542 158.59861591696972,172.23209492598835 158.72707612457452,172.24731362145394 158.72707612457452,172.3842817806144 158.80882352939807,172.59734300426499 158.90224913496058,172.70387345294148 159.04238754324615,172.74952932620363 159.46280276821926,172.76474794618116 162.61591695499374,172.64299892415147 163.81877162633464,172.61256164647057 165.10337370244088,172.53646841331647 165.8741349481279,172.52124976005143 166.93685121112503,172.47559378687583 169.29584775090916,172.4147191249358 170.6738754325197,172.33862574756495 171.31617647060193,172.20165752841422 172.12197231833125,172.1560014154311 173.3715397923952,172.1407827066796 173.80363321799086,172.23209492598835 173.94377162633464,172.23209492598835 180.07482698961394,171.95815802828292 181.69809688581154,171.89728306451434 182.7491349481279,171.89728306451434 185.29498269897886,171.82118930977595 185.47015570936492,171.82118930977595 185.6102941177087,171.85162681832298 185.71539792395197,171.92772055082605 185.75043252599426,172.00381422787177 185.78546712803654,172.1712201219707 186.0307093425654,174.30181713268394 186.7080449827481,177.52806694015453 186.9416089965962,178.98897744073474 187.0,179.58246648983186 186.95328719727695,180.38899748009135 186.88321799307596,180.9216088678004 186.8014705882524,181.28682653410215 185.63365051907022,184.16287099473993 185.36505190312164,184.9845834264779 185.17820069205482,185.65412210612703 185.09645328723127,186.0497565797341 184.61764705885435,189.1843459351876 184.54757785471156,189.397372863481 184.48918685130775,189.53431851630012 184.4074394463678,189.67126398948312 184.2439446367207,189.82342541562684 184.0454152249731,189.92993828189356 183.8235294118058,190.00601883416675 183.34472318342887,190.09731542365626 182.9476643598755,190.12774760238244 182.55060553638032,190.11253151413985 182.2352941177087,190.06688323603157 180.97404844290577,189.74734473027638 180.46020761254476,189.67126398948312 180.17993079585722,189.67126398948312 178.43987889279379,189.8842899239753 177.79757785471156,189.8842899239753 176.05752595158992,189.74734473027638 173.25475778547116,189.4734538038756 165.9091695502284,188.95610231528553 165.11505190306343,188.83437218060135 164.14576124574523,188.57569517295633 163.58520761248656,188.49961357811844 159.89489619375672,188.49961357811844 159.49783737020334,188.51482990152726 159.2525951557327,188.57569517295633 159.11245674744714,188.68220931260294 159.04238754324615,188.77350706001016 159.00735294120386,188.88002099774167 158.98399653984234,189.03218357736478 159.04238754324615,191.32981156591995 159.01903114188462,191.7254245261356 158.94896193774184,192.3949199659619 158.97231833910337,192.59272461503133 159.07742214534665,192.9883327885982 159.1241349481279,193.27743012109568 159.14749134948943,193.55131106592307 159.10077854670817,193.77954463763308 159.0540657439269,193.87083792658814 158.97231833910337,193.9317000749288 158.8672145328601,193.99256218768278 158.68036332185147,194.02299323078478 157.12716262973845,194.0838552903151" stroke="#4dd2ff" stroke-linecap="round" stroke-linejoin="round" stroke-width="0.5"><title>2024-06-01 13.6km</title><desc>11547136752</desc></polyline><polyline fill="none" points="23.58085084197228,213.0 23.727844120032387,216.95051840153974 23.727844120032387,217.3525705782813 23.75724277566769,218.00350437615634 23.75724277566769,218.37363888972686 23.80134075906244,218.72462562652072 23.811140310921473,218.97350542720596 23.820939862780506,219.29258002691495 23.811140310921473,219.8350015142787 23.87483739806339,220.6964806646538 23.894436501839664,221.17507287473563 23.92873493337538,222.01738246970126 23.938534485234413,223.07662761519168 23.97773269272875,223.77214212947365 24.114926418900723,223.75938049467004 24.928289224102627,223.73385721393788 26.00134015385993,223.73385721393788 26.775504751567496,223.72747639141744 26.89799914995092,223.73385721393788 27.00579422051669,223.75938049467004 27.06949130765861,223.81042701158003 27.13318839482963,223.90613907051738 27.24588324132492,224.21241625442053 27.35857808784931,224.4357420183478 27.466373158385977,224.81220287291217 27.63786531612277,225.15675743101383 27.70646217922331,225.31627251281316 27.75056016264716,225.52683153180988 27.75056016264716,225.9670880300655 27.789758370112395,226.2095462421712 27.799557921971427,226.32439440080634 27.760359714506194,227.5494227015115 27.726061282970477,227.76635122808148 27.647664868010907,228.02794008219644 27.436974502779776,228.55749322726115 27.285081448819255,228.83821760098363 27.236083689465886,228.94667880932684 27.19688548197155,229.08703997465636 27.157687274506316,229.28482085386713 27.113589291082462,229.6421001799863 27.093990187364398,230.3885493743037 27.108689515152946,230.84789640681993 27.13808817078825,231.1541250877017 27.270382121001603,231.74743706934532 27.476172710274113,232.39815710619223 27.569268453051336,232.6342002223464 27.721161507011857,232.92765745936777 27.980849631567253,233.3487013682534 28.18664022081066,233.65491258024485 28.485526552860392,234.04405290934665 28.96080481854733,234.70749730916577 29.367486221162835,235.3262777486525 30.126951491110958,236.41071724782523 30.342541632213397,236.76155957832816 30.499334462132538,237.05498918973535 30.646327740163542,237.39306869857683 30.73942348296987,237.68011529182695 30.87661720914184,238.24782413147477 30.915815416607074,238.58589444290192 30.945214072213275,239.03877700167868 30.95501362410141,239.7276598121207 30.935414520354243,240.25707165427957 30.95501362410141,240.72269365412285 30.96971295188996,243.36325092353945 31.00401138345478,244.38371355136042 31.013810935313813,244.4793807053211 31.038309814961394,244.53040310208598 31.0971071262029,244.5814254395118 31.214701748656807,244.61969215360295 31.4743898731831,244.65795883432656 31.650781806878513,244.65158105653245 31.89087082768674,244.61969215360295 32.24855447091977,244.54315869200582 33.69888814765727,244.2752905245834 34.77193907741457,244.13497797439777 35.53140434733359,244.06482153094476 36.06058014833252,243.99466497526373 36.334967600676464,243.9882871009977 37.2169272689498,244.02017646303284 37.481515169434715,244.0010428485948 38.01559074636316,243.89899676390996 38.12338581692893,243.89899676390996 38.177283352211816,243.92450830734742 38.21158178377664,243.9882871009977 38.22138133563567,244.1094665533965 38.24098043938284,244.70898102335195 38.34877550994861,246.794462200618 38.417372373020044,248.3058957534704 38.432071700837696,248.3760454130679 38.4614703564439,248.40155435238557 38.574165202939184,248.45894941157894 38.701559377252124,248.48445830267883 40.19599103741348,248.5482304654979 40.357683643262135,248.5482304654979 41.21024465595838,248.58011651215202 41.6806231457158,248.60562533276607 41.808017319999635,248.63113413855535 41.85701507938211,248.66302012493543 41.89131351088872,248.70128327797647 41.90601283873548,248.79056383862917 41.93051171838306,249.4856705596103 41.964810149918776,249.88104744936936 41.97950947773643,250.43584449520495 42.048106340836966,251.78773435096446 42.013807909272145,252.2277272511201 42.048106340836966,252.76336482515762 42.048106340836966,253.27348976750363 42.097104100190336,254.23633443116705 42.092204324231716,254.40212012143093 42.05300611676648,254.64442115712882 42.07260522051365,254.70180804852498 42.1461018595146,254.73368962241148 42.45478774342337,254.77832378693347 42.96436444064602,254.82933420507106 43.62583419188741,254.91222600802575 43.90512142018997,254.93773114665964 44.21870708002825,254.93773114665964 44.718484225391876,254.90584972105353 46.99688003514893,254.63804483123022 47.325165022775764,254.62529217666452 47.506456732342485,254.60616318782922 47.530955612048274,254.57428152126886 48.44231393595692,254.4786363825442 48.682402956765145,254.47226003253672 48.888193546037655,254.49138907975794 49.09888391121058,254.53602349079665 49.33407315611839,254.60616318782922 49.53496396943228,254.69543173095735 49.72605523088714,254.79745270069543 49.87304850894725,254.89947343314634 50.08863865007879,255.06525661741034 51.02449585363502,255.8750347060668 51.99955126471468,256.69754990415095 52.56302549724933,257.1885012390994 52.955007572018076,257.50092195549223 53.58707866765326,258.0875017806975 53.80756858471432,258.272400317368 54.224049539188854,258.5911890679927 55.297100468946155,259.50928772876796 55.5126906100777,259.70693145528276 55.630285232531605,259.840818635148 55.73808030309738,260.01295869468595 55.831176045845496,260.19147359865747 55.87527402926935,260.3253593000336 55.909572460805066,260.47199555183033 56.007567979511805,262.5312268052003 56.056565738865174,263.3217419263019 56.081064618512755,264.1632423748015 56.12026282600709,264.8517307396687 56.14476170571288,265.07484965160984 56.19375946503715,265.35534038860715 56.27705565595534,265.6868271301355 56.39465027838014,266.0884327126514 56.419149158056825,266.23504970796057 56.419149158056825,266.45816158710295 56.37995095056249,266.7258943448578 56.3260534152796,266.87250921056693 56.27705565595534,266.94262919058383 56.22805789660197,266.97450187174036 56.14476170571288,266.993625469313 56.05166596293566,267.0 55.346098228299525,266.9043819426588 54.9345170497254,266.87250921056693 54.64053049366339,266.87250921056693 49.1331823427754,266.987250937731 48.49131169531029,266.993625469313 48.26592200229061,266.987250937731 47.91313813495799,266.9362546515804 47.69264821789693,266.8852583061671 47.540755163907306,266.83426190150203 47.31046569495811,266.74501805076943 46.34031005986617,266.29879607489784 46.11002059088787,266.17767789858044 45.85033246636158,265.99918734526 45.66414098080713,265.8398201663513 45.46814994342276,265.6422040607722 45.36035487285699,265.514709326857 45.24276025040308,265.35534038860715 44.45879610083648,264.112242806983 44.29710349495872,263.87636903478415 44.130511113180546,263.6787440873559 43.973718283261405,263.51299344519794 43.82182522927178,263.3854925252235 43.62093441595789,263.2324909322124 43.38084539512056,263.0858639050166 43.155455702129984,262.9711119767635 42.949665112857474,262.8882353975059 42.73897474765545,262.82448407619086 42.415589535958134,262.7479823683607 41.69042269757483,262.65235504599696 41.63162538636243,262.63322955652256 41.6512244901096,262.6268543915103 41.75901956067537,262.63322955652256 41.75411978474585,262.6204792255776 41.71982135318103,262.61410405870265 41.587527402938576,262.63322955652256 41.401335917413235,262.61410405870265 41.151447344745975,262.5822282104964 40.85256101269624,262.51210126291335 40.70556773463613,262.4547245860849 40.62227154374705,262.4100982300188 40.391982074826956,262.23796757433956 40.249888572696364,262.1168381896641 40.200890813342994,262.03395999695203 40.19109126148396,261.9447063835869 40.26948767644353,261.4028055481467 40.328284987655934,261.09041261377206 40.30868588393787,261.11591416117153 40.264587900514016,261.28804921843766 40.19109126148396,261.88732896485453 40.1714921577659,261.938331118552 40.122494398383424,261.925580585681 40.073496639030054,261.88732896485453 39.92650336099905,261.72794685247936 39.867706049757544,261.6323173071687 39.79910918668611,261.4601836004367 39.75011142733274,261.2752984966246 39.57371949366643,260.1787225581902 39.49532307870686,259.9109498520411 39.397327560029225,259.6495511102694 39.28953248943435,259.4200289798209 39.19643674668623,259.254262250015 38.58396475479822,258.3807887524599 38.44187125269673,258.1321325332974 38.35857506180764,257.95360925045316 38.28017864684807,257.75595762572266 38.2017822318885,257.4945460447525 38.15278447253513,257.29051641153274 37.942094107333105,257.3287720400331 37.83919881269685,257.3351479748708 35.73229516064748,257.2267569565556 35.3893108452321,257.1821252829541 35.306014654343016,257.15662144907037 35.26681644684868,257.1056137368505 35.25211711906013,257.0418540131941 35.242317567171995,256.7676861454893 35.21781868749531,256.4871405073427 35.22271846345393,256.3851234668473 35.20311935967766,256.25760183265083 35.18842003188911,255.6518690082885 35.17372070410056,255.46695942728547 35.14432204849436,255.4159497505534 35.0120280982519,255.3649400145041 34.90423302765703,255.25654412847507 34.85033549237414,255.2437916536801 34.79153818116174,255.25016789153233 33.70378792358679,255.39044488994477 33.65968994019204,255.37131623475943 33.64009083644487,255.33305889935218 33.64499061240349,255.28842529922258 33.67438926800969,255.21828669298338 33.67928904393921,255.18640547126415 33.63519106054446,255.16090047719263 33.55189486962627,255.12901921377124 33.50779688623152,255.12901921377124 33.439200023101876,255.1417717219265 33.34120450442424,255.18002922414234 33.130514139222214,255.2756728337008 33.06191727609257,255.33305889935218 32.93942287773825,255.47971183722984 32.8953248943144,255.51796904472576 32.81202870342531,255.53072143979807 32.76303094410105,255.51796904472576 32.72383273660671,255.49884044514693 32.71893296067719,255.46058322094905 32.73853206442436,255.4159497505534 33.22360988197033,254.84846309657587 33.262808089435566,254.75281855563298 33.257908313535154,254.68905541248023 33.21871010604082,254.5934105239794 33.07661660393933,254.38299103530517 32.93942287773825,254.19807610599673 32.875725790596334,254.12793575648902 32.78752982374863,254.07692452277843 32.47884393983986,253.99403114148663 32.292652454343624,253.89838473768395 32.09176164100063,253.73897360123738 32.023164777929196,253.6752089844631 31.930069035151973,253.54130298755263 31.851672620192403,253.40739658190796 31.773276205232833,253.19697140432618 31.72917822180898,252.9801686504943 31.454790769465035,250.65903672969944 31.42539211382973,250.2700438143911 31.395993458252633,249.58132658557588 31.405793010111665,249.24971813704178 31.395993458252633,248.28676400866243 31.415592561970698,248.01891870500185 31.42539211382973,247.67454376823662 31.395993458252633,247.38118520789794 31.391093682294013,246.53936279275513 31.36659480261733,245.86334218588672 31.3567952507874,244.3518244536681 31.361695026687812,243.64388051332935 31.32249681922258,240.97144858663887 31.32249681922258,239.9891773041054 31.288198387657758,239.3704626688086 31.263699508010177,238.66881695138363 31.22450130051584,238.28609637305635 31.165703989303438,237.9480237500684 31.087307574343868,237.63546372297424 30.930514744424727,237.17618780399062 30.808020346041303,236.8955168184766 30.61202930865693,236.52553868323594 30.455236478708684,236.27675852645552 30.234746561647626,235.94504945484732 29.632074121647747,235.10938662995613 29.27929025431513,234.64370501469966 28.769713557121577,233.9100869564245 28.519824984425213,233.5081866413857 28.059246046555927,232.8064470995887 27.902453216607682,232.5193685948616 27.770159266365226,232.23228821015073 27.642765092052286,231.93244669000342 27.569268453051336,231.68364046738498 27.505571365880314,231.36465606487764 27.436974502779776,230.79685808535214 27.427174950920744,230.40130907910134 27.446774054667912,229.92281760760306 27.583967780839885,229.06789984221905 27.62316598833422,228.6021540433394 27.652564643940423,228.43627078279314 27.755459938547574,228.09174200491543 27.97594985566684,227.51114108537513 28.02004783906159,227.34525369575204 28.029847390920622,227.22402789859188 28.02004783906159,227.14108373892668 28.00044873531442,227.05813942229724 27.961250527849188,226.95605389407137 27.92205232035485,226.91139140069936 27.91225276849582,226.87948959183632 27.877954336930998,226.6944586426289 27.87305456100148,226.35629661369967 27.9073529925372,225.80757531694326 27.892653664719546,225.59701764670172 27.84365590539528,225.41198128320684 27.770159266365226,225.18866049381904 27.564368677092716,224.7802995360871 27.505571365880314,224.6207825035017 27.48107248620363,224.44212273774974 27.476172710274113,224.05927793002047 27.446774054667912,223.9189006625711 27.402676071273163,223.7976653879232 27.373277415637858,223.74661885614842 27.304680552566424,223.6891914368607 27.2115848097892,223.6509064488455 27.10378973922343,223.63814477872802 26.912698477739468,223.625383104918 25.942542842618423,223.64452561427242 24.825393929466372,223.64452561427242 24.413812750950456,223.6317639422923 24.261919696931727,223.61262142738633 24.183523281972157,223.59347890410208 24.124725970759755,223.5488129839614 24.090427539224038,223.48500444764795 24.075728211406386,223.40843408142246 24.065928659547353,223.25529294764056 24.065928659547353,222.66824697726042 24.056129107659217,222.41938815992762 24.051229331758805,222.03652568143298 24.016930900193984,221.5770862919162 23.987532244587783,221.04106758278795 23.982632468658267,220.30084049115248 23.953233813052066,219.8350015142787 23.914035605586832,219.38830195376795 23.889536725881044,218.8841641229301 23.87973717402201,218.38002049186252 23.889536725881044,217.92054276313138 23.845438742486294,217.57593130461464 23.825839638739126,217.129208713337 23.6739465847495,213.03191191499718" stroke="#ff1f00" stroke-linecap="round" stroke-linejoin="round" stroke-width="0.5"><title>2024-05-24 31.2km</title><desc>11483634688</desc></polyline><polyline fill="none" points="164.3780458670517,266.9392854031503 163.9379111554008,266.7908716089878 163.85506226852885,266.70991842977674 163.82399393591913,266.56150390013136 163.78774754790356,265.15828846355726 163.72043282730738,264.30824303663394 163.61687171866652,263.85622839588177 163.71525477187242,263.45818199708447 163.71525477187242,262.4866645474067 163.6945425501326,261.7445194222164 163.87577449023956,260.7729659974684 163.8602403239347,259.2481257447798 163.8291719913541,258.42496100826247 163.73596699361224,256.6976169087611 163.66865227298695,256.52217991658836 163.39421533513814,256.48169436239914 163.28029811562737,256.4344611710585 163.2336956167419,256.299508930133 163.10424423101358,252.9053306314272 163.01103923324263,252.67589408802814 162.881587847427,251.03606448915525 162.86605368115124,249.82808698872395 162.91265618003672,249.7066126454847 163.77739143703366,249.4231712708679 164.23823837042437,249.28819857732742 164.14503337265342,248.70106277797458 164.0932528183621,248.08692425535264 164.1243211509136,247.33105026538033 164.1916358715389,246.1094777968392 164.06218448578147,245.3265746109646 163.8602403239347,244.73263921666876 163.54437894263538,244.03745514733964 163.5081325546198,243.83497238560085 163.53402283176547,243.67973500131484 163.75667921529384,243.59199190147774 164.77157807984622,243.45025269624603 165.64666944768396,243.37600817730345 166.92047108375118,243.31526257316364 167.0188541369571,243.23426831020697 167.15866163361352,243.0047837949205 167.205264132499,242.9440377032115 167.23115440964466,241.58735420026278 167.26222274222528,240.80437446542783 167.16383968901937,239.44087811403733 167.15348357814946,238.52960814129256 167.117237190163,237.84108114159244 167.14312746730866,236.64625995930692 167.1068810792931,236.61250750014005 167.0602785804076,236.64625995930692 167.02403219239204,237.00403451177772 166.97742969350656,237.09179011134256 166.8738685848657,237.11879180077085 166.4130216515041,237.10529095803213 166.36641915261862,237.01078494843387 166.30428248745739,236.6192579939525 166.23178971142625,236.56525401593535 165.73987444545492,236.55175301157578 165.34116417725454,236.5180004834474 165.2583152903826,236.43024379498456 165.25313723491854,236.0184601865367 165.18582251435146,234.4658004862431 165.19617862519226,235.59992226949544 165.16511029258254,235.8496953531976 164.75604391351226,235.86994716570553 165.21171279149712,235.68092990391233 165.14957612630678,233.60168902810256 165.05637112853583,233.44641728889837 164.60588030604413,233.52067775097385 164.48160697566345,233.57468528482423 164.46089475398185,233.71645476106642 164.45053864308284,234.3105316487272 164.3003750355856,234.39154154203788 162.74695840623463,234.4793020996367 162.67964368563844,234.57381328307383 162.66928757476853,235.0193634031093 162.6175070204772,235.08011990502564 162.40002869235468,235.1476270357598 162.24986508482834,235.13412561751102 161.9909623132844,235.1273749068896 161.7475937079871,235.05311702514518 161.69063509828993,234.94510534790243 161.66474482111516,234.60081644286402 161.61296426679473,234.51305611589123 161.58189593424322,234.54005931116262 161.49904704731307,234.4995545123602 160.79483150868327,234.55356090288842 159.9663426397019,234.57381328307383 159.88349375280086,234.5265577154969 159.83171319848043,233.93248360334474 159.7799326441891,233.77046206625892 159.65565931380843,233.70295292492665 159.20516849131673,233.68270016331007 159.13785377069144,233.5611834072879 159.10678543811082,232.83882721036935 158.9566218306427,228.8285324303979 158.9773340523243,228.57196974707767 159.0860732164001,228.3626675561536 159.26730515650706,228.2006264994634 159.47960542916553,228.13986095679502 161.37995177239645,228.04533662054018 162.21361869684188,227.99807437992786 163.47706422201009,227.95756384951164 163.3993933905731,227.14059390984403 163.37350311342743,226.1142971617228 163.31654450364294,224.64233178859286 163.26994200475747,224.55455255608467 163.07317589840386,224.4937822205684 162.3534261934692,224.51403900795776 161.89775731554255,224.48702995612257 161.8356206503522,224.41275498224786 161.78901815146673,223.960350291316 161.77866204062593,221.66449704339902 161.79419620687258,221.25933463247202 161.71134732000064,220.95546049355835 161.6492106548103,219.8277323354705 161.61296426679473,218.95659414265174 161.62332037766464,218.38257938249444 161.54564954619855,217.20751516776363 161.5301153798937,216.69425935418258 161.39030788326636,216.47139650233294 161.07444650196703,216.25528604387728 160.89321456188918,216.19450479533043 160.5825312359957,216.1607374004925 160.10615013635834,216.1404769517576 159.66601542467833,215.95137900178815 158.51130906355684,214.86405077332165 158.36632351146545,214.79651401463707 157.9210107443796,214.37778390767562 157.60514936308027,214.14140233302896 157.36695881324704,214.35752267721546 156.9216460461612,214.81002137427276 156.80772882667952,214.79651401463707 156.64720910831238,214.6209179800935 156.4038405030442,214.3305076894685 155.730693296995,214.05360315448343 155.11968275613617,213.74292779865937 155.04718998007593,213.72266628984653 154.94362887149327,213.58758933745412 154.72615054337075,213.43900423378363 153.92355195153505,213.0 153.7630322331388,213.01350788475247 153.69571751254261,213.14858651526447 153.576622237626,213.79695844535672 153.59215640393086,214.01983419526005 153.56108807132114,214.16166365824756 153.4989514061599,214.24946263148013 153.06399474994396,214.04009557376776 152.99668002934777,214.07386451821367 152.8931189207069,214.148156109095 152.83616031095153,214.4925973790414 152.7947358675301,214.8708044437808 152.74295531323878,215.82306209507806 152.78955781209515,216.43087586835463 152.92418725331663,217.86933661874355 153.08470697165467,219.7939675951202 153.22969252371695,221.2728401033928 153.146843636845,221.5834648453274 153.04328252820414,222.36677014262023 153.05363863910316,223.5417032000587 153.1261314151052,224.52754352792908 153.25558280089172,226.24933750927084 153.34360974322772,228.0250813804778 153.31771946605295,228.30190222643796 153.18826808026643,228.4099294240259 153.18826808026643,228.45719124358584 153.3125414106471,228.49094965652694 154.0840716699022,228.4774462943169 154.1358522241935,228.6124797390912 154.21870111109456,230.48940378058614 154.22905722196447,231.5358571222605 154.07371555900318,233.31814893718547 154.13067416878766,234.61431801685103 154.58116499127937,238.15834485613595 154.63812360100565,238.82661662341343 154.68990415532608,239.67038031361153 154.78828720853198,239.85938126986366 155.06272414635168,240.11588133218174 155.2698463636043,240.41287962711067 155.29055858534412,240.7031261180491 155.23359997561784,240.9663713601949 155.26466830819845,242.44456681329757 155.3578733059694,244.03745514733964 155.48214663629187,246.0284884265675 155.57017357862787,246.87886974196954 155.63748829922406,249.09923614477157 155.6219541329483,250.58392017974256 155.6012419112085,251.30599928369702 155.64784441009397,251.81212277846498 155.7203371861542,253.41818467315534 155.75140551873483,254.1334716062156 155.78247385131544,254.82850397653237 155.82907635017182,254.9297214119506 156.0413766228594,254.9904517668947 156.6989896626328,254.98370395362144 156.91128993529128,255.0579298455923 157.0096729884972,255.14565120078623 157.05627548735356,255.2941023460735 157.03556326564285,256.02285560575547 156.9630704896117,256.4681991697762 156.98378271132242,256.67062664558034 157.08216576449922,256.7246071562331 157.23232937205466,256.7988302555459 157.41873936756747,256.84606307492504 158.19026962679345,256.80557780412346 161.93918175896397,256.6166460719469 162.17219425339135,256.65713150808006 162.22915286311763,256.7650924978807 162.26022119572735,257.68275074123085 162.3327139717585,259.0929400702553 162.3327139717585,259.8553690339795 162.41038480319548,260.86067651920894 162.74695840623463,261.86596216620455 162.7935609051201,262.1223402458345 162.84534145941143,263.3299968348292 162.91783423544257,263.6470857996137 163.1249564526952,264.3149894903763 163.20780533959623,266.46705804257 163.23887367220595,266.89206288389687 163.28029811562737,266.9662696782434 164.33144336816622,266.97976180988917" stroke="#ff5300" stroke-linecap="round" stroke-linejoin="round" stroke-width="0.5"><title>2024-05-19 26.5km</title><desc>11444336332</desc></polyline></svg>