<?xml version="1.0" encoding="utf-8" ?>
<svg baseProfile="full" height="200mm" version="1.1" viewBox="0,0,200,200" width="200mm" xmlns="http://www.w3.org/2000/svg" xmlns:ev="http://www.w3.org/2001/xml-events" xmlns:xlink="http://www.w3.org/1999/xlink"><defs /><rect fill="#1a1a1a" height="200" width="200" x="0" y="0" /><text alignment-baseline="middle" fill="#e1ed5e" style="dominant-baseline: central; font-size:9.0px; font-family:Arial;" text-anchor="middle" x="100.0" y="100.0">2024</text><line stroke="#e1ed5e" stroke-width="0.3" x1="100.0" x2="100.0" y1="15.0" y2="10.0" /><path d="M 100.0 14.0 a86.0,86.0 0 0,1 42.35913384403234,11.155469271406648" fill="none" id="id1" stroke="none" /><text fill="#e1ed5e" style="font-size:6.75px; font-family:Arial;" text-anchor="middle"><textPath startOffset="22.145653131862478" xlink:href="#id1">January</textPath></text><line stroke="#e1ed5e" stroke-width="0.3" x1="143.13028292997686" x2="145.6673583964461" y1="26.7553504044142" y2="22.446841604673864" /><path d="M 143.63769802327073 25.89364864446614 a86.0,86.0 0 0,1 29.32050498858742,28.57503671076993" fill="none" id="id2" stroke="none" /><text fill="#e1ed5e" style="font-size:6.75px; font-family:Arial;" text-anchor="middle"><textPath startOffset="20.669276256404974" xlink:href="#id2">February</textPath></text><line stroke="#e1ed5e" stroke-width="0.3" x1="172.87174338648825" x2="177.1583165268699" y1="56.24261187166439" y2="53.66864786411523" /><path d="M 173.72905801456457 55.72781907015455 a86.0,86.0 0 0,1 12.242430191666344,42.057860355516425" fill="none" id="id3" stroke="none" /><text fill="#e1ed5e" style="font-size:6.75px; font-family:Arial;" text-anchor="middle"><textPath startOffset="22.145653131862474" xlink:href="#id3">March</textPath></text><path d="M 119.58574465831526 92.42381321644754 l 10.755447999172805 -4.16043833941864 a32.532081721832135,32.532081721832135 0 0,0 0.1970039326980061,0.5225763369566591 l -10.825282615685252 3.975193722267823" fill="#ff5c08" stroke="none" /><path d="M 119.71291397450082 92.76114493625339 l 12.505031917150113 -4.592020932717903 a34.321504400609655,34.321504400609655 0 0,0 0.19834533037590674,0.5548071899250244 l -12.582017417569963 4.376678786411961" fill="#ff770a" stroke="none" /><path d="M 120.26092885502905 94.47779374421319 l 12.120464738863534 -3.303486561889894 a33.562590853427544,33.562590853427544 0 0,0 0.14673328056150445,0.5571701664411445 l -12.175387500229768 3.094935891075951" fill="#ff6c09" stroke="none" /><path d="M 120.35273937422433 94.82641323984039 l 20.564502395015637 -5.227416091951911 a42.218497537596804,42.218497537596804 0 0,0 0.17251779526033575,0.7039314765041432 l -20.651207716792264 4.873628790839673" fill="#ffe515" stroke="none" /><path d="M 120.96210409425399 98.7389718711861 l 9.657301394634908 -0.5809592707063519 a30.674760146951293,30.674760146951293 0 0,0 0.027108323434680254,0.5258942325859909 l -9.665851307526161 0.41509324474363035" fill="#ff4006" stroke="none" /><path d="M 120.98066250479742 99.09900007780936 l 6.011374681570491 -0.2581542941799541 a27.016915256327803,27.016915256327803 0 0,0 0.015921084889365975,0.46352501512652194 l -6.014920453456704 0.1549230144893122" fill="#ff0801" stroke="none" /><path d="M 120.99303781780057 99.45929381324524 l 5.502610950471801 -0.1417277389793376 a26.50443584977138,26.50443584977138 0 0,0 0.007810691152146594,0.4549336020261968 l -5.504233073222613 0.04724722098407442" fill="#ff0000" stroke="none" /><line stroke="#e1ed5e" stroke-width="0.3" x1="184.99686870605535" x2="189.99668451229388" y1="99.2704041080226" y2="99.22748670261217" /><path d="M 185.99683186730306 99.26182062694052 a86.0,86.0 0 0,1 -10.086455211305974,41.156179273409016" fill="none" id="id4" stroke="none" /><text fill="#e1ed5e" style="font-size:6.75px; font-family:Arial;" text-anchor="middle"><textPath startOffset="21.40746469413373" xlink:href="#id4">April</textPath></text><path d="M 120.99922638620191 99.81974689727618 l 8.462628847419401 -0.07264149063842822 a29.462940611592238,29.462940611592238 0 0,0 0.0,0.5057891867245091 l -8.462628847419401 -0.07264149063842719" fill="#ff2e04" stroke="none" /><path d="M 120.9064616781168 101.97986365728391 l 15.371840315859568 1.4557292599540184 a36.44061599725127,36.44061599725127 0 0,0 -0.06432221197678244,0.6222590524685034 l -15.34458571140112 -1.7193928347054532" fill="#ff950d" stroke="none" /><path d="M 119.83427380445688 106.89939002012753 l 12.256650543069721 4.263499297768289 a33.97701463345873,33.97701463345873 0 0,0 -0.19635451039671448,0.5492385121234827 l -12.181655862629064 -4.473272766272693" fill="#ff720a" stroke="none" /><line stroke="#e1ed5e" stroke-width="0.3" x1="174.33088141563837" x2="178.70328620479359" y1="141.23008692659167" y2="143.65538615756765" /><path d="M 175.20536237346943 141.71514677278685 a86.0,86.0 0 0,1 -30.301960400862466,31.631185727798858" fill="none" id="id5" stroke="none" /><text fill="#e1ed5e" style="font-size:6.75px; font-family:Arial;" text-anchor="middle"><textPath startOffset="22.145653131862474" xlink:href="#id5">May</textPath></text><path d="M 118.36410011445183 110.18625677009912 l 23.752943503953464 13.175357358595523 a48.16233360057089,48.16233360057089 0 0,0 -0.4072392147700561,0.7195526715907933 l -23.52327092416203 -13.58116680028544" fill="#ccff1d" stroke="none" /><path d="M 114.39649973595853 115.28858382429668 l 33.59859717510481 35.68054587653328 a70.00986723285789,70.00986723285789 0 0,0 -0.8820250754321906,0.8163892419502431 l -32.98114232835865 -36.252052864615905" fill="#3aff95" stroke="none" /><path d="M 113.03279911837588 116.46651593811092 l 35.81789391823724 45.25473888741401 a78.71406168782542,78.71406168782542 0 0,0 -1.066725674939243,0.8294923368653229 l -35.03575829866276 -45.86293227590013" fill="#46fff6" stroke="none" /><line stroke="#e1ed5e" stroke-width="0.3" x1="143.1302829299769" x2="145.66735839644613" y1="173.24464959558577" y2="177.55315839532614" /><path d="M 143.63769802327073 174.10635135553383 a86.0,86.0 0 0,1 -40.68552437913181,11.842963189579606" fill="none" id="id6" stroke="none" /><text fill="#e1ed5e" style="font-size:6.75px; font-family:Arial;" text-anchor="middle"><textPath startOffset="21.407464694133747" xlink:href="#id6">June</textPath></text><path d="M 110.65571695917076 118.09573695890943 l 12.798369693152928 21.734429729841168 a46.22268230153207,46.22268230153207 0 0,0 -0.6871937890587695,0.396751519098521 l -12.42338343623376 -21.950928146215862" fill="#e5ff1a" stroke="none" /><path d="M 109.3889696526874 118.78422872680471 l 11.27318243003651 22.553916465603947 a46.21435682380823,46.21435682380823 0 0,0 -0.7126688473493257,0.34860204552991675 l -10.884353333425116 -22.744112261231088" fill="#e5ff1a" stroke="none" /><path d="M 107.74402155503746 119.51999308798841 l 7.3788128244383335 18.599428514878355 a41.00963817209511,41.00963817209511 0 0,0 -0.6565989456458349,0.25398657752767484 l -7.058441616298969 -18.72335498054407" fill="#ffd513" stroke="none" /><path d="M 105.69591212413111 120.21278271476187 l 8.781250130069747 31.161558846933612 a53.37519271939175,53.37519271939175 0 0,0 -0.8840421312618809,0.24094961403616783 l -8.24502659787317 -31.307708955113924" fill="#8dff24" stroke="none" /><path d="M 104.9986988182912 120.39639698878246 l 5.688256520431191 23.21002772565645 a44.89689622666444,44.89689622666444 0 0,0 -0.7501370134673285,0.17703029266109802 l -5.288987353223983 -23.304254161963772" fill="#f6ff19" stroke="none" /><path d="M 103.94208987418118 120.62667999033965 l 1.2874384102821514 6.736421782285594 a27.858343538283982,27.858343538283982 0 0,0 -0.4704946111348416,0.08573979114889002 l -1.1716090655962528 -6.757529747365847" fill="#ff1502" stroke="none" /><path d="M 103.58742460773223 120.69131181640829 l 8.555464236032071 49.34564418728603 a71.08181874245642,71.08181874245642 0 0,0 -1.2040667643140726,0.19812872786673366 l -7.7071199686649265 -49.48523891364844" fill="#3cffa2" stroke="none" /><path d="M 102.51750503828377 120.84855314841334 l 7.552515114851298 62.54565944524002 a84.0,84.0 0 0,0 -1.4330563935968028,0.16057695797211657 l -6.477722819653695 -62.666092163719114" fill="#4dd2ff" stroke="none" /><line stroke="#e1ed5e" stroke-width="0.3" x1="101.45913802915013" x2="101.54496967792366" y1="184.9874750549273" y2="189.98673829345242" /><path d="M 101.47630435890484 185.9873277026323 a86.0,86.0 0 0,1 -42.54439059252881,-10.42667462771756" fill="none" id="id7" stroke="none" /><text fill="#e1ed5e" style="font-size:6.75px; font-family:Arial;" text-anchor="middle"><textPath startOffset="22.145653131862474" xlink:href="#id7">July</textPath></text><line stroke="#e1ed5e" stroke-width="0.3" x1="58.13341422392154" x2="55.67067388415222" y1="173.97424548756322" y2="178.32567169271397" /><path d="M 57.64086615596768 174.84453072859336 a86.0,86.0 0 0,1 -31.369924170532247,-30.572349798747897" fill="none" id="id8" stroke="none" /><text fill="#e1ed5e" style="font-size:6.75px; font-family:Arial;" text-anchor="middle"><textPath startOffset="22.145653131862474" xlink:href="#id8">August</textPath></text><line stroke="#e1ed5e" stroke-width="0.3" x1="26.387840678322732" x2="22.057713659400548" y1="142.50000000000003" y2="145.00000000000006" /><path d="M 25.521815274538298 143.00000000000003 a86.0,86.0 0 0,1 -11.493303480769221,-40.785679425670985" fill="none" id="id9" stroke="none" /><text fill="#e1ed5e" style="font-size:6.75px; font-family:Arial;" text-anchor="middle"><textPath startOffset="21.40746469413373" xlink:href="#id9">September</textPath></text><line stroke="#e1ed5e" stroke-width="0.3" x1="15.003131293944662" x2="10.003315487706104" y1="100.72959589197737" y2="100.7725132973878" /><path d="M 14.003168132696942 100.73817937305945 a86.0,86.0 0 0,1 10.791469493833604,-42.45332614584628" fill="none" id="id10" stroke="none" /><text fill="#e1ed5e" style="font-size:6.75px; font-family:Arial;" text-anchor="middle"><textPath startOffset="22.145653131862435" xlink:href="#id10">October</textPath></text><line stroke="#e1ed5e" stroke-width="0.3" x1="26.387840678322718" x2="22.05771365940052" y1="57.49999999999999" y2="54.99999999999999" /><path d="M 25.521815274538284 56.99999999999999 a86.0,86.0 0 0,1 29.574782752854787,-30.34633250058573" fill="none" id="id11" stroke="none" /><text fill="#e1ed5e" style="font-size:6.75px; font-family:Arial;" text-anchor="middle"><textPath startOffset="21.40746469413373" xlink:href="#id11">November</textPath></text><line stroke="#e1ed5e" stroke-width="0.3" x1="56.869717070023135" x2="54.33264160355391" y1="26.7553504044142" y2="22.446841604673864" /><path d="M 56.362301976729285 25.89364864446614 a86.0,86.0 0 0,1 42.16139366436587,-11.88097634709845" fill="none" id="id12" stroke="none" /><text fill="#e1ed5e" style="font-size:6.75px; font-family:Arial;" text-anchor="middle"><textPath startOffset="22.145653131862474" xlink:href="#id12">December</textPath></text></svg>