<?xml version="1.0" encoding="utf-8" ?>
<svg baseProfile="full" height="200mm" version="1.1" viewBox="0,0,200,200" width="200mm" xmlns="http://www.w3.org/2000/svg" xmlns:ev="http://www.w3.org/2001/xml-events" xmlns:xlink="http://www.w3.org/1999/xlink"><defs /><rect fill="#1a1a1a" height="200" width="200" x="0" y="0" /><text alignment-baseline="middle" fill="#e1ed5e" style="dominant-baseline: central; font-size:9.0px; font-family:Arial;" text-anchor="middle" x="100.0" y="100.0">2024</text><line stroke="#e1ed5e" stroke-width="0.3" x1="100.0" x2="100.0" y1="15.0" y2="10.0" /><path d="M 100.0 14.0 a86.0,86.0 0 0,1 42.35913384403234,11.155469271406648" fill="none" id="id1" stroke="none" /><text fill="#e1ed5e" style="font-size:6.75px; font-family:Arial;" text-anchor="middle"><textPath startOffset="22.145653131862478" xlink:href="#id1">January</textPath></text><line stroke="#e1ed5e" stroke-width="0.3" x1="143.13028292997686" x2="145.6673583964461" y1="26.7553504044142" y2="22.446841604673864" /><path d="M 143.63769802327073 25.89364864446614 a86.0,86.0 0 0,1 29.32050498858742,28.57503671076993" fill="none" id="id2" stroke="none" /><text fill="#e1ed5e" style="font-size:6.75px; font-family:Arial;" text-anchor="middle"><textPath startOffset="20.669276256404974" xlink:href="#id2">February</textPath></text><line stroke="#e1ed5e" stroke-width="0.3" x1="172.87174338648825" x2="177.1583165268699" y1="56.24261187166439" y2="53.66864786411523" /><path d="M 173.72905801456457 55.72781907015455 a86.0,86.0 0 0,1 12.242430191666344,42.057860355516425" fill="none" id="id3" stroke="none" /><text fill="#e1ed5e" style="font-size:6.75px; font-family:Arial;" text-anchor="middle"><textPath startOffset="22.145653131862474" xlink:href="#id3">March</textPath></text><path d="M 119.58574465831526 92.42381321644754 l 10.624529420151374 -4.109796220601751 a32.39170972130762,32.39170972130762 0 0,0 0.19615388453999172,0.5203214832257295 l -10.693513988505806 3.9268064571818644" fill="#ff5b08" stroke="none" /><path d="M 119.71291397450082 92.76114493625339 l 12.35281687140429 -4.536125459521963 a34.15935100386694,34.15935100386694 0 0,0 0.19740823948754993,0.5521859799298697 l -12.428865280935783 4.323404523211177" fill="#ff750a" stroke="none" /><path d="M 120.26092885502905 94.47779374421319 l 11.972930761588636 -3.263275520329165 a33.40967518283114,33.40967518283114 0 0,0 0.1460647440324307,0.5546316243479629 l -12.027184986425796 3.0572633916084033" fill="#ff6a09" stroke="none" /><path d="M 120.35273937422433 94.82641323984039 l 20.31418502729229 -5.163786395935088 a41.960219542407245,41.960219542407245 0 0,0 0.17146239175492484,0.6996250700447374 l -20.399834945563505 4.814305501282257" fill="#ffe215" stroke="none" /><path d="M 120.96210409425399 98.7389718711861 l 9.539749789544675 -0.5738876580505097 a30.55699602862638,30.55699602862638 0 0,0 0.027004251298720323,0.5238752609514629 l -9.548195630299968 0.41004060372231627" fill="#ff4006" stroke="none" /><path d="M 120.98066250479742 99.09900007780936 l 5.9382024035457075 -0.2550119617206351 a26.943675536744635,26.943675536744635 0 0,0 0.01587792467726575,0.4622684526431459 l -5.941705015219822 0.15303724451336922" fill="#ff0801" stroke="none" /><path d="M 120.99303781780057 99.45929381324524 l 5.435631499072016 -0.1400025859037501 a26.437434185143175,26.437434185143175 0 0,0 0.007790946181453504,0.45378355647141383 l -5.437233876852135 0.04667211346326988" fill="#ff0000" stroke="none" /><line stroke="#e1ed5e" stroke-width="0.3" x1="184.99686870605535" x2="189.99668451229388" y1="99.2704041080226" y2="99.22748670261217" /><path d="M 185.99683186730306 99.26182062694052 a86.0,86.0 0 0,1 -10.086455211305974,41.156179273409016" fill="none" id="id4" stroke="none" /><text fill="#e1ed5e" style="font-size:6.75px; font-family:Arial;" text-anchor="middle"><textPath startOffset="21.40746469413373" xlink:href="#id4">April</textPath></text><path d="M 120.99922638620191 99.81974689727618 l 8.359619159345495 -0.07175727635622325 a29.35992712863015,29.35992712863015 0 0,0 0.0,0.5040207581600993 l -8.359619159345495 -0.07175727635622224" fill="#ff2d04" stroke="none" /><path d="M 120.9064616781168 101.97986365728391 l 15.184729607755974 1.4380096813583383 a36.252668130669505,36.252668130669505 0 0,0 -0.06399046065524143,0.6190496593731324 l -15.157806754619067 -1.698463863014402" fill="#ff930d" stroke="none" /><path d="M 119.83427380445688 106.89939002012753 l 12.107458870832147 4.211602689671109 a33.819054470768776,33.819054470768776 0 0,0 -0.1954416523736724,0.5466850857655008 l -12.03337704841453 -4.418822731817531" fill="#ff700a" stroke="none" /><line stroke="#e1ed5e" stroke-width="0.3" x1="174.33088141563837" x2="178.70328620479359" y1="141.23008692659167" y2="143.65538615756765" /><path d="M 175.20536237346943 141.71514677278685 a86.0,86.0 0 0,1 -30.301960400862466,31.631185727798858" fill="none" id="id5" stroke="none" /><text fill="#e1ed5e" style="font-size:6.75px; font-family:Arial;" text-anchor="middle"><textPath startOffset="22.145653131862474" xlink:href="#id5">May</textPath></text><path d="M 118.36410011445183 110.18625677009912 l 23.463815462857184 13.014982908026894 a47.83170542793074,47.83170542793074 0 0,0 -0.4044435703869684,0.7146130358393483 l -23.23693852744884 -13.415852713965366" fill="#d0ff1d" stroke="none" /><path d="M 114.39649973595853 115.28858382429668 l 33.1896248478139 35.246231437448664 a69.41330424667191,69.41330424667191 0 0,0 -0.8745092275426265,0.8094326853487565 l -32.57968584895731 -35.8107818689298" fill="#39ff8e" stroke="none" /><path d="M 113.03279911837588 116.46651593811092 l 35.3819076370822 44.70388446372273 a78.0115486036372,78.0115486036372 0 0,0 -1.0572052826762144,0.822089222258014 l -34.60929240977075 -45.30467473760154" fill="#45ffef" stroke="none" /><line stroke="#e1ed5e" stroke-width="0.3" x1="143.1302829299769" x2="145.66735839644613" y1="173.24464959558577" y2="177.55315839532614" /><path d="M 143.63769802327073 174.10635135553383 a86.0,86.0 0 0,1 -40.68552437913181,11.842963189579606" fill="none" id="id6" stroke="none" /><text fill="#e1ed5e" style="font-size:6.75px; font-family:Arial;" text-anchor="middle"><textPath startOffset="21.407464694133747" xlink:href="#id6">June</textPath></text><path d="M 110.65571695917076 118.09573695890943 l 12.642584050923302 21.469871651340792 a45.91566415349403,45.91566415349403 0 0,0 -0.682629342472054,0.3941162346329791 l -12.27216224059085 -21.683734783249943" fill="#e8ff1a" stroke="none" /><path d="M 109.3889696526874 118.78422872680471 l 11.13596183030852 22.27938334571234 a45.90744001601314,45.90744001601314 0 0,0 -0.7079359015143902,0.34628692455110954 l -10.751865679532061 -22.467264020360673" fill="#e8ff1a" stroke="none" /><path d="M 107.74402155503746 119.51999308798841 l 7.28899567410533 18.373030623134035 a40.76607478018201,40.76607478018201 0 0,0 -0.6526992900171519,0.252478106956356 l -6.972524121594648 -18.495448618228433" fill="#ffd213" stroke="none" /><path d="M 105.69591212413111 120.21278271476187 l 8.674362086991593 30.782250890198867 a52.98111204263207,52.98111204263207 0 0,0 -0.8775150555995352,0.23917063053977927 l -8.144665630457363 -30.92662201488279" fill="#91ff24" stroke="none" /><path d="M 104.9986988182912 120.39639698878246 l 5.619017334781138 22.9275082202742 a44.60601594931495,44.60601594931495 0 0,0 -0.7452769879228922,0.17588333986577454 l -5.224608193118367 -23.020587703786198" fill="#f9ff18" stroke="none" /><path d="M 103.94208987418118 120.62667999033965 l 1.2717673190115035 6.654424010784709 a27.774861698146594,27.774861698146594 0 0,0 -0.4690847011788428,0.08548285858833529 l -1.1573478842816036 -6.675275043304407" fill="#ff1502" stroke="none" /><path d="M 103.58742460773223 120.69131181640829 l 8.451324527417787 48.744994022049475 a70.4722076369892,70.4722076369892 0 0,0 -1.1937404602853403,0.19642953846842537 l -7.613306564079375 -48.88288955901357" fill="#3bff9b" stroke="none" /><path d="M 102.51750503828377 120.84855314841334 l 7.460583607493331 61.78433468599627 a83.23314486955967,83.23314486955967 0 0,0 -1.4199736954106121,0.1591110143524568 l -6.3988740104819195 -61.9033014608557" fill="#4cd9ff" stroke="none" /><line stroke="#e1ed5e" stroke-width="0.3" x1="101.45913802915013" x2="101.54496967792366" y1="184.9874750549273" y2="189.98673829345242" /><path d="M 101.47630435890484 185.9873277026323 a86.0,86.0 0 0,1 -42.54439059252881,-10.42667462771756" fill="none" id="id7" stroke="none" /><text fill="#e1ed5e" style="font-size:6.75px; font-family:Arial;" text-anchor="middle"><textPath startOffset="22.145653131862474" xlink:href="#id7">July</textPath></text><path d="M 99.63950707515114 120.99690560180557 l -0.6703080846377363 39.04208545331887 a60.04783924204492,60.04783924204492 0 0,0 -1.0304972276977764,-0.026541953160170214 l 1.3404186264062565 -39.02482578280865" fill="#42ff2d" stroke="none" /><path d="M 96.76829788921471 120.74984581791261 l -9.695106332355873 62.24953745373786 a84.0,84.0 0 0,0 -1.422889987787746,-0.23413600601732654 l 10.762273823196683 -62.07393544922487" fill="#4dd2ff" stroke="none" /><path d="M 96.05791012581884 120.62667999033965 l -7.693077296532458 40.25343120049566 a61.98197361893959,61.98197361893959 0 0,0 -1.043373595620123,-0.20870394050580104 l 8.38294737768354 -40.115437863326996" fill="#30ff31" stroke="none" /><path d="M 95.35216902796893 120.47920084513623 l -9.268911604947721 40.84053476036548 a62.87913563879937,62.87913563879937 0 0,0 -1.0505841379182377,-0.24793499595640578 l 9.968627896605847 -40.67540362076284" fill="#31ff3d" stroke="none" /><path d="M 93.61358852112213 120.00534299687104 l -12.580554580136441 39.40840803929965 a62.36777704609869,62.36777704609869 0 0,0 -1.0171212162735133,-0.33434794638352094 l 13.255198534057698 -39.18663917151411" fill="#30ff36" stroke="none" /><path d="M 93.27111125876986 119.89276391827306 l -13.409855790580487 39.64385586963018 a62.85044253692159,62.85044253692159 0 0,0 -1.0190577575351352,-0.35448118703955855 l 14.088419320160643 -39.40781625002203" fill="#31ff3d" stroke="none" /><path d="M 91.26138138417905 119.09545874513695 l -15.022686147432308 32.82728039533333 a57.10140492055802,57.10140492055802 0 0,0 -0.8878215790645826,-0.4155453277417597 l 15.58399644036838 -32.56455883602105" fill="#62ff29" stroke="none" /><path d="M 90.6110303473126 118.78422872680471 l -19.179027639009263 38.37090279930146 a63.89710110032288,63.89710110032288 0 0,0 -0.9769342749870848,-0.49882960174070484 l 19.834889135709933 -38.036015245887924" fill="#32ff4a" stroke="none" /><line stroke="#e1ed5e" stroke-width="0.3" x1="58.13341422392154" x2="55.67067388415222" y1="173.97424548756322" y2="178.32567169271397" /><path d="M 57.64086615596768 174.84453072859336 a86.0,86.0 0 0,1 -31.369924170532247,-30.572349798747897" fill="none" id="id8" stroke="none" /><text fill="#e1ed5e" style="font-size:6.75px; font-family:Arial;" text-anchor="middle"><textPath startOffset="22.145653131862474" xlink:href="#id8">August</textPath></text><path d="M 89.65649057296885 118.27599006163327 l -13.769781734298865 24.32988492950377 a48.95621915948445,48.95621915948445 0 0,0 -0.7278333507937169,-0.420214781005943 l 14.185407552952983 -24.089923251221656" fill="#c2ff1e" stroke="none" /><path d="M 88.1277618465304 117.32195027204791 l -23.64917934458848 34.504859428041925 a62.83143564141021,62.83143564141021 0 0,0 -0.8844419430571663,-0.6174091654767326 l 24.23801637881941 -34.093805446760065" fill="#31ff3c" stroke="none" /><path d="M 82.576782715395 111.72311816256416 l -20.771878403020782 13.976246809031734 a46.03610207793639,46.03610207793639 0 0,0 -0.4355356385827006,-0.6594564679942967 l 21.008738480524208 -13.617610462698376" fill="#e6ff1a" stroke="none" /><line stroke="#e1ed5e" stroke-width="0.3" x1="26.387840678322732" x2="22.057713659400548" y1="142.50000000000003" y2="145.00000000000006" /><path d="M 25.521815274538298 143.00000000000003 a86.0,86.0 0 0,1 -11.493303480769221,-40.785679425670985" fill="none" id="id9" stroke="none" /><text fill="#e1ed5e" style="font-size:6.75px; font-family:Arial;" text-anchor="middle"><textPath startOffset="21.40746469413373" xlink:href="#id9">September</textPath></text><line stroke="#e1ed5e" stroke-width="0.3" x1="15.003131293944662" x2="10.003315487706104" y1="100.72959589197737" y2="100.7725132973878" /><path d="M 14.003168132696942 100.73817937305945 a86.0,86.0 0 0,1 10.791469493833604,-42.45332614584628" fill="none" id="id10" stroke="none" /><text fill="#e1ed5e" style="font-size:6.75px; font-family:Arial;" text-anchor="middle"><textPath startOffset="22.145653131862435" xlink:href="#id10">October</textPath></text><line stroke="#e1ed5e" stroke-width="0.3" x1="26.387840678322718" x2="22.05771365940052" y1="57.49999999999999" y2="54.99999999999999" /><path d="M 25.521815274538284 56.99999999999999 a86.0,86.0 0 0,1 29.574782752854787,-30.34633250058573" fill="none" id="id11" stroke="none" /><text fill="#e1ed5e" style="font-size:6.75px; font-family:Arial;" text-anchor="middle"><textPath startOffset="21.40746469413373" xlink:href="#id11">November</textPath></text><line stroke="#e1ed5e" stroke-width="0.3" x1="56.869717070023135" x2="54.33264160355391" y1="26.7553504044142" y2="22.446841604673864" /><path d="M 56.362301976729285 25.89364864446614 a86.0,86.0 0 0,1 42.16139366436587,-11.88097634709845" fill="none" id="id12" stroke="none" /><text fill="#e1ed5e" style="font-size:6.75px; font-family:Arial;" text-anchor="middle"><textPath startOffset="22.145653131862474" xlink:href="#id12">December</textPath></text></svg>