<?xml version="1.0" encoding="utf-8" ?>
<svg baseProfile="full" height="200mm" version="1.1" viewBox="0,0,200,200" width="200mm" xmlns="http://www.w3.org/2000/svg" xmlns:ev="http://www.w3.org/2001/xml-events" xmlns:xlink="http://www.w3.org/1999/xlink"><defs /><rect fill="#1a1a1a" height="200" width="200" x="0" y="0" /><text alignment-baseline="middle" fill="#e1ed5e" style="dominant-baseline: central; font-size:9.0px; font-family:Arial;" text-anchor="middle" x="100.0" y="100.0">2025</text><line stroke="#e1ed5e" stroke-width="0.3" x1="100.0" x2="100.0" y1="15.0" y2="10.0" /><path d="M 100.0 14.0 a86.0,86.0 0 0,1 42.46469731375804,11.215312516191453" fill="none" id="id13" stroke="none" /><text fill="#e1ed5e" style="font-size:6.75px; font-family:Arial;" text-anchor="middle"><textPath startOffset="22.20632615414155" xlink:href="#id13">January</textPath></text><line stroke="#e1ed5e" stroke-width="0.3" x1="143.23703022742887" x2="145.7803849466894" y1="26.81831364943548" y2="22.513508569990506" /><path d="M 143.74570117128098 25.957352633546492 a86.0,86.0 0 0,1 28.547481713284135,27.462654790039103" fill="none" id="id14" stroke="none" /><text fill="#e1ed5e" style="font-size:6.75px; font-family:Arial;" text-anchor="middle"><textPath startOffset="19.985693538727396" xlink:href="#id14">February</textPath></text><path d="M 111.90073688211348 82.69761687909136 l 5.242843707529874 -7.622527190485786 a30.25150425127075,30.25150425127075 0 0,0 0.4265013518835271,0.29879145290022824 l -5.373276198997052 7.531150894821622" fill="#ff5107" stroke="none" /><path d="M 113.6212207817346 84.01681056812373 l 5.937240208632109 -6.966779004446541 a30.15351467971702,30.15351467971702 0 0,0 0.39214818341078805,0.3400670403614676 l -6.056282190689661 6.863546970665402" fill="#ff4f07" stroke="none" /><path d="M 114.68862486808459 84.99185889309783 l 6.485327860573397 -6.626400805394239 a30.27192887660701,30.27192887660701 0 0,0 0.36926592562227417,0.3676801803853274 l -6.598429586362994 6.513784774358792" fill="#ff5107" stroke="none" /><path d="M 114.94478906791727 85.2469230424477 l 2.7306501825896867 -2.695621336963717 a24.837033334748494,24.837033334748494 0 0,0 0.2977318511406351,0.30683884396900485 l -2.776646297433431 2.648218297444598" fill="#ff0000" stroke="none" /><path d="M 115.4437574822437 85.77008943001954 l 6.8176614303424286 -6.281807556335922 a30.27046997479728,30.27046997479728 0 0,0 0.349777240044091,0.3862327646565588 l -6.924782311002556 6.163522004409814" fill="#ff5107" stroke="none" /><path d="M 115.9244219780498 86.31012108654704 l 12.068373769053077 -10.374918211057205 a36.91491669207523,36.91491669207523 0 0,0 0.4100884889651622,0.48541542236684193 l -12.245172871505355 10.165643839061257" fill="#ffaf10" stroke="none" /><path d="M 117.04232023915458 87.72973835380427 l 10.565522912768943 -7.607046971849543 a34.01911817490612,34.01911817490612 0 0,0 0.33806479278587004,0.47816867463396856 l -10.694900325358695 7.424051796883781" fill="#ff870c" stroke="none" /><line stroke="#e1ed5e" stroke-width="0.3" x1="172.23445277983987" x2="176.4835382374775" y1="55.19839476539836" y2="52.563006222186495" /><path d="M 173.08426987136738 54.67131705675599 a86.0,86.0 0 0,1 12.851231095245387,41.99856678651699" fill="none" id="id15" stroke="none" /><text fill="#e1ed5e" style="font-size:6.75px; font-family:Arial;" text-anchor="middle"><textPath startOffset="22.20632615414155" xlink:href="#id15">March</textPath></text><path d="M 120.73433829027371 96.67025291283417 l 6.2377308823311175 -1.001723129293662 a27.317652711897768,27.317652711897768 0 0,0 0.0705629364139229,0.4649215869808146 l -6.25404971218434 0.8942024299207653" fill="#ff2603" stroke="none" /><path d="M 120.96714384426684 98.82574320788733 l 16.252714741571356 -0.9102270112377908 a37.27818324269873,37.27818324269873 0 0,0 0.03036643842348149,0.6409875206767199 l -16.265974788228334 0.6303283839380711" fill="#ffb410" stroke="none" /><line stroke="#e1ed5e" stroke-width="0.3" x1="184.98032266829074" x2="189.97916517819016" y1="98.17113171792111" y2="98.06355123074" /><path d="M 185.9800911702706 98.14961562048488 a86.0,86.0 0 0,1 -9.607161424134198,41.387399972396054" fill="none" id="id16" stroke="none" /><text fill="#e1ed5e" style="font-size:6.75px; font-family:Arial;" text-anchor="middle"><textPath startOffset="21.466115282336823" xlink:href="#id16">April</textPath></text><path d="M 120.9764740272857 100.99374915477107 l 30.66005654454998 1.4525036589441576 a51.69444305072578,51.69444305072578 0 0,0 -0.04975873013771287,0.888475552633079 l -30.630511463524737 -1.98005092791266" fill="#96ff23" stroke="none" /><path d="M 120.95626037817324 101.35467743843564 l 29.10379630484641 1.8813593415772785 a50.16454135291916,50.16454135291916 0 0,0 -0.0631199912175841,0.861222131097429 l -29.067099754964488 -2.382054609171478" fill="#a8ff21" stroke="none" /><path d="M 120.49622156327973 104.57218783832717 l 61.488664689839204 13.716563514981502 a84.0,84.0 0 0,0 -0.3269577362777887,1.4085253706057403 l -61.24344638763086 -14.772957542935806" fill="#4dd2ff" stroke="none" /><path d="M 119.54520255179757 107.68017299344265 l 11.500634681876047 4.519107113733692 a33.35665517813654,33.35665517813654 0 0,0 -0.21459032912780285,0.5325955984704034 l -11.421141738490851 -4.716402080046908" fill="#ff7d0b" stroke="none" /><path d="M 118.81262510543309 109.33194174019688 l 13.494280544434359 6.693794149449439 a36.06328276064362,36.06328276064362 0 0,0 -0.2806433162199186,0.5537358875402079 l -13.377058558428171 -6.925084248692341" fill="#ffa30f" stroke="none" /><line stroke="#e1ed5e" stroke-width="0.3" x1="174.80103733775053" x2="179.2010983576182" y1="140.37084112569926" y2="142.7455964860345" /><path d="M 175.68104954172406 140.8457921977663 a86.0,86.0 0 0,1 -30.038265399797805,32.042727171017184" fill="none" id="id17" stroke="none" /><text fill="#e1ed5e" style="font-size:6.75px; font-family:Arial;" text-anchor="middle"><textPath startOffset="22.206326154141568" xlink:href="#id17">May</textPath></text><path d="M 116.71984013943494 112.70617746262583 l 6.0903107792761055 4.628307981336985 a28.64938691388234,28.64938691388234 0 0,0 -0.3017642417253645,0.3900709606591794 l -6.009739720332673 -4.7324569361094175" fill="#ff3905" stroke="none" /><path d="M 116.498646956653 112.99209946851258 l 10.92219738107791 8.600843157776056 a34.90211849524699,34.90211849524699 0 0,0 -0.37574970586258755,0.46880553222204463 l -10.772529763160469 -8.787576523576352" fill="#ff930d" stroke="none" /><line stroke="#e1ed5e" stroke-width="0.3" x1="143.8653032363475" x2="146.44561519142675" y1="172.8068346515853" y2="177.08958963109032" /><path d="M 144.38136562736335 173.6633856474863 a86.0,86.0 0 0,1 -40.68145358897372,12.25698825130547" fill="none" id="id18" stroke="none" /><text fill="#e1ed5e" style="font-size:6.75px; font-family:Arial;" text-anchor="middle"><textPath startOffset="21.466115282336833" xlink:href="#id18">June</textPath></text><line stroke="#e1ed5e" stroke-width="0.3" x1="102.19456741930631" x2="102.32365962044197" y1="184.97166512339345" y2="189.96999836594603" /><path d="M 102.22038585953345 185.97133177190398 a86.0,86.0 0 0,1 -42.740103519485714,-10.115201625700543" fill="none" id="id19" stroke="none" /><text fill="#e1ed5e" style="font-size:6.75px; font-family:Arial;" text-anchor="middle"><textPath startOffset="22.20632615414155" xlink:href="#id19">July</textPath></text><line stroke="#e1ed5e" stroke-width="0.3" x1="58.666819895761336" x2="56.23545636021788" y1="174.27360380694188" y2="178.64263932499728" /><path d="M 58.180547188652646 175.14741091055294 a86.0,86.0 0 0,1 -31.652253787137756,-30.449443065178592" fill="none" id="id20" stroke="none" /><text fill="#e1ed5e" style="font-size:6.75px; font-family:Arial;" text-anchor="middle"><textPath startOffset="22.20632615414155" xlink:href="#id20">August</textPath></text><line stroke="#e1ed5e" stroke-width="0.3" x1="26.63291911575756" x2="22.317208475507996" y1="142.92168965132927" y2="145.44649492493687" /><path d="M 25.769776987707644 143.4266507060508 a86.0,86.0 0 0,1 -11.730757126820373,-40.83630448921669" fill="none" id="id21" stroke="none" /><text fill="#e1ed5e" style="font-size:6.75px; font-family:Arial;" text-anchor="middle"><textPath startOffset="21.46611528233685" xlink:href="#id21">September</textPath></text><line stroke="#e1ed5e" stroke-width="0.3" x1="15.007084014347285" x2="10.007500721073583" y1="101.09737516637583" y2="101.16192664675087" /><path d="M 14.007167355692545 101.11028546245083 a86.0,86.0 0 0,1 10.666146001902534,-42.60595125391555" fill="none" id="id22" stroke="none" /><text fill="#e1ed5e" style="font-size:6.75px; font-family:Arial;" text-anchor="middle"><textPath startOffset="22.20632615414155" xlink:href="#id22">October</textPath></text><line stroke="#e1ed5e" stroke-width="0.3" x1="26.266209847984243" x2="21.928928074336255" y1="57.711370442889674" y2="55.22380399835377" /><path d="M 25.398753493254645 57.213857153982495 a86.0,86.0 0 0,1 29.58750427330803,-30.492523968695096" fill="none" id="id23" stroke="none" /><text fill="#e1ed5e" style="font-size:6.75px; font-family:Arial;" text-anchor="middle"><textPath startOffset="21.46611528233685" xlink:href="#id23">November</textPath></text><line stroke="#e1ed5e" stroke-width="0.3" x1="56.762969772571076" x2="54.21961505331055" y1="26.818313649435495" y2="22.513508569990535" /><path d="M 56.25429882871897 25.957352633546506 a86.0,86.0 0 0,1 42.265352541879196,-11.944610805530505" fill="none" id="id24" stroke="none" /><text fill="#e1ed5e" style="font-size:6.75px; font-family:Arial;" text-anchor="middle"><textPath startOffset="22.20632615414155" xlink:href="#id24">December</textPath></text></svg>