<?xml version="1.0" encoding="utf-8" ?>
<svg baseProfile="full" height="200mm" version="1.1" viewBox="0,0,200,200" width="200mm" xmlns="http://www.w3.org/2000/svg" xmlns:ev="http://www.w3.org/2001/xml-events" xmlns:xlink="http://www.w3.org/1999/xlink"><defs /><rect fill="#1a1a1a" height="200" width="200" x="0" y="0" /><text alignment-baseline="middle" fill="#e1ed5e" style="dominant-baseline: central; font-size:9.0px; font-family:Arial;" text-anchor="middle" x="100.0" y="100.0">2024</text><line stroke="#e1ed5e" stroke-width="0.3" x1="100.0" x2="100.0" y1="15.0" y2="10.0" /><path d="M 100.0 14.0 a86.0,86.0 0 0,1 42.35913384403234,11.155469271406648" fill="none" id="id1" stroke="none" /><text fill="#e1ed5e" style="font-size:6.75px; font-family:Arial;" text-anchor="middle"><textPath startOffset="22.145653131862478" xlink:href="#id1">January</textPath></text><line stroke="#e1ed5e" stroke-width="0.3" x1="143.13028292997686" x2="145.6673583964461" y1="26.7553504044142" y2="22.446841604673864" /><path d="M 143.63769802327073 25.89364864446614 a86.0,86.0 0 0,1 29.32050498858742,28.57503671076993" fill="none" id="id2" stroke="none" /><text fill="#e1ed5e" style="font-size:6.75px; font-family:Arial;" text-anchor="middle"><textPath startOffset="20.669276256404974" xlink:href="#id2">February</textPath></text><line stroke="#e1ed5e" stroke-width="0.3" x1="172.87174338648825" x2="177.1583165268699" y1="56.24261187166439" y2="53.66864786411523" /><path d="M 173.72905801456457 55.72781907015455 a86.0,86.0 0 0,1 12.242430191666344,42.057860355516425" fill="none" id="id3" stroke="none" /><text fill="#e1ed5e" style="font-size:6.75px; font-family:Arial;" text-anchor="middle"><textPath startOffset="22.145653131862474" xlink:href="#id3">March</textPath></text><path d="M 119.58574465831526 92.42381321644754 l 10.171567337631563 -3.9345807563492845 a31.906039970227845,31.906039970227845 0 0,0 0.19321282310490479,0.512519968350043 l -10.23761084455091 3.759392507805084" fill="#ff5708" stroke="none" /><path d="M 119.71291397450082 92.76114493625339 l 11.826171649410316 -4.342734039209352 a33.598320317273405,33.598320317273405 0 0,0 0.1941660209768299,0.5431169177157689 l -11.898977840431089 4.139082165112666" fill="#ff700a" stroke="none" /><path d="M 120.26092885502905 94.47779374421319 l 11.462481457231824 -3.124150292559484 a32.88060588555495,32.88060588555495 0 0,0 0.14375169037180197,0.5458485828447123 l -11.514422628408356 2.9269212053419733" fill="#ff6509" stroke="none" /><path d="M 120.35273937422433 94.82641323984039 l 19.44811791120876 -4.943635521755769 a41.06660964040125,41.06660964040125 0 0,0 0.16781082623013108,0.6847254366037884 l -19.530116263955186 4.609054260543886" fill="#ffd914" stroke="none" /><path d="M 120.96210409425399 98.7389718711861 l 9.133035782692358 -0.5494207533582477 a30.149546752280123,30.149546752280123 0 0,0 0.026644174587003362,0.5168898689394203 l -9.141121546735935 0.39255909104209674" fill="#ff3d05" stroke="none" /><path d="M 120.98066250479742 99.09900007780936 l 5.685035376492954 -0.24413988026831643 a26.69027517024562,26.69027517024562 0 0,0 0.015728595684382955,0.4579209019475864 l -5.688388659174186 0.1465127137566101" fill="#ff0801" stroke="none" /><path d="M 120.99303781780057 99.45929381324524 l 5.203890885792703 -0.1340337697462229 a26.20561671684237,26.20561671684237 0 0,0 0.007722631026253333,0.4498045411675439 l -5.2054249484176225 0.04468231260961262" fill="#ff0000" stroke="none" /><line stroke="#e1ed5e" stroke-width="0.3" x1="184.99686870605535" x2="189.99668451229388" y1="99.2704041080226" y2="99.22748670261217" /><path d="M 185.99683186730306 99.26182062694052 a86.0,86.0 0 0,1 -10.086455211305974,41.156179273409016" fill="none" id="id4" stroke="none" /><text fill="#e1ed5e" style="font-size:6.75px; font-family:Arial;" text-anchor="middle"><textPath startOffset="21.40746469413373" xlink:href="#id4">April</textPath></text><path d="M 120.99922638620191 99.81974689727618 l 8.003218385838512 -0.06869800435942158 a29.00351322527967,29.00351322527967 0 0,0 0.0,0.49790221416649594 l -8.003218385838512 -0.06869800435942061" fill="#ff2b04" stroke="none" /><path d="M 120.9064616781168 101.97986365728391 l 14.537349712267721 1.3767021321772612 a35.602391770443354,35.602391770443354 0 0,0 -0.06284264213622649,0.6079455564186841 l -14.51157467764983 -1.6260522108788766" fill="#ff8d0d" stroke="none" /><path d="M 119.83427380445688 106.89939002012753 l 11.591274147040682 4.03204684774919 a33.27253185509404,33.27253185509404 0 0,0 -0.19228327657817593,0.5378505465479371 l -11.520350700418565 -4.230432350678049" fill="#ff6b09" stroke="none" /><line stroke="#e1ed5e" stroke-width="0.3" x1="174.33088141563837" x2="178.70328620479359" y1="141.23008692659167" y2="143.65538615756765" /><path d="M 175.20536237346943 141.71514677278685 a86.0,86.0 0 0,1 -30.301960400862466,31.631185727798858" fill="none" id="id5" stroke="none" /><text fill="#e1ed5e" style="font-size:6.75px; font-family:Arial;" text-anchor="middle"><textPath startOffset="22.145653131862474" xlink:href="#id5">May</textPath></text><path d="M 118.36410011445183 110.18625677009912 l 22.46346821964112 12.460107155054894 a46.687772865125474,46.687772865125474 0 0,0 -0.3947709867765016,0.6975225074087144 l -22.246263867843236 -12.843886432562732" fill="#dcff1b" stroke="none" /><path d="M 114.39649973595853 115.28858382429668 l 31.77463120483871 33.74355722369938 a67.34927013786285,67.34927013786285 0 0,0 -0.8485053239148461,0.7853638603666226 l -31.190696109609895 -34.284038830198384" fill="#37ff76" stroke="none" /><path d="M 113.03279911837588 116.46651593811092 l 33.873449056656135 42.79799632480838 a75.58094026683848,75.58094026683848 0 0,0 -1.024265903574328,0.7964753618363335 l -33.13377320844658 -43.37317273826551" fill="#42ffd5" stroke="none" /><line stroke="#e1ed5e" stroke-width="0.3" x1="143.1302829299769" x2="145.66735839644613" y1="173.24464959558577" y2="177.55315839532614" /><path d="M 143.63769802327073 174.10635135553383 a86.0,86.0 0 0,1 -40.68552437913181,11.842963189579606" fill="none" id="id6" stroke="none" /><text fill="#e1ed5e" style="font-size:6.75px; font-family:Arial;" text-anchor="middle"><textPath startOffset="21.407464694133747" xlink:href="#id6">June</textPath></text><path d="M 110.65571695917076 118.09573695890943 l 12.103585006949041 20.55453343822623 a44.853419354121996,44.853419354121996 0 0,0 -0.6668369221225269,0.3849984764930239 l -11.748955616966114 -20.759278811995426" fill="#f4ff19" stroke="none" /><path d="M 109.3889696526874 118.78422872680471 l 10.661195536005591 21.32953272377417 a44.84554584134108,44.84554584134108 0 0,0 -0.6915604946174445,0.3382768924557093 l -10.293474792126077 -21.509403366327103" fill="#f4ff19" stroke="none" /><path d="M 107.74402155503746 119.51999308798841 l 6.978239448633496 17.589721933953843 a39.92337558461179,39.92337558461179 0 0,0 -0.6392069641159567,0.2472589854496014 l -6.67526022202401 -17.706920807541483" fill="#ffc912" stroke="none" /><path d="M 105.69591212413111 120.21278271476187 l 8.304542685108036 29.46989229844552 a51.617641667684985,51.617641667684985 0 0,0 -0.8549321815194809,0.23301556778767998 l -7.79742910265386 -29.60810836037734" fill="#a0ff22" stroke="none" /><path d="M 104.9986988182912 120.39639698878246 l 5.379458320633183 21.95002569283651 a43.59960618549829,43.59960618549829 0 0,0 -0.7284619009569157,0.1719150251269121 l -5.001864265936388 -22.039136861609645" fill="#fffa17" stroke="none" /><path d="M 103.94208987418118 120.62667999033965 l 1.217547282479111 6.370721868440608 a27.486024861970517,27.486024861970517 0 0,0 -0.4642065872044305,0.08459390372367112 l -1.1080059617236233 -6.390683946095643" fill="#ff1402" stroke="none" /><path d="M 103.58742460773223 120.69131181640829 l 8.091014022678706 46.66681877950505 a68.36302865014386,68.36302865014386 0 0,0 -1.1580127262039777,0.19055055342133467 l -7.288723793421656 -46.798835331422055" fill="#38ff82" stroke="none" /><path d="M 102.51750503828377 120.84855314841334 l 7.142511968362304 59.15024523132457 a80.57992101491939,80.57992101491939 0 0,0 -1.3747091786423287,0.15403903083582363 l -6.126066888119176 -59.26414002266736" fill="#48f4ff" stroke="none" /><line stroke="#e1ed5e" stroke-width="0.3" x1="101.45913802915013" x2="101.54496967792366" y1="184.9874750549273" y2="189.98673829345242" /><path d="M 101.47630435890484 185.9873277026323 a86.0,86.0 0 0,1 -42.54439059252881,-10.42667462771756" fill="none" id="id7" stroke="none" /><text fill="#e1ed5e" style="font-size:6.75px; font-family:Arial;" text-anchor="middle"><textPath startOffset="22.145653131862474" xlink:href="#id7">July</textPath></text><path d="M 99.63950707515114 120.99690560180557 l -0.6417304287303134 37.37758026598231 a58.38308874990279,58.38308874990279 0 0,0 -1.0019279937567191,-0.025806111035898263 l 1.2832717365577764 -37.36105643759636" fill="#53ff2b" stroke="none" /><path d="M 96.76829788921471 120.74984581791261 l -9.281768914679224 59.595614723996995 a81.31408234000243,81.31408234000243 0 0,0 -1.377392781282593,-0.22664945800062136 l 10.30343919901488 -59.4274992675007" fill="#49edff" stroke="none" /><path d="M 96.05791012581884 120.62667999033965 l -7.3650936112866985 38.53728196657648 a60.23476398902429,60.23476398902429 0 0,0 -1.013961941111113,-0.2028207858825739 l 8.025552037928769 -38.40517178403105" fill="#3fff2d" stroke="none" /><path d="M 95.35216902796893 120.47920084513623 l -8.873744408619379 39.099355180101824 a61.09367674994723,61.09367674994723 0 0,0 -1.020752703874546,-0.2408948587488782 l 9.543629266233813 -38.94126417770672" fill="#36ff2e" stroke="none" /><path d="M 93.61358852112213 120.00534299687104 l -12.044200076654668 37.72828519636085 a60.60411922192475,60.60411922192475 0 0,0 -0.9883587065902166,-0.32489313815458676 l 12.69008152089263 -37.51597113680424" fill="#3bff2e" stroke="none" /><path d="M 93.27111125876986 119.89276391827306 l -12.838145179692539 37.95369503485815 a61.066206938689355,61.066206938689355 0 0,0 -0.9901281421775221,-0.34441796509091355 l 13.487779093915083 -37.72771863719865" fill="#36ff2e" stroke="none" /><path d="M 91.26138138417905 119.09545874513695 l -14.382214750226131 31.427734805753687 a55.56227157092548,55.56227157092548 0 0,0 -0.8638908928973539,-0.40434455828431576 l 14.919594356994974 -31.176214015898847" fill="#72ff27" stroke="none" /><path d="M 90.6110303473126 118.78422872680471 l -18.36135638445059 36.735012553925365 a62.06824266527433,62.06824266527433 0 0,0 -0.9489725293283426,-0.48455213517202533 l 18.989256135492514 -36.41440246708051" fill="#30ff34" stroke="none" /><line stroke="#e1ed5e" stroke-width="0.3" x1="58.13341422392154" x2="55.67067388415222" y1="173.97424548756322" y2="178.32567169271397" /><path d="M 57.64086615596768 174.84453072859336 a86.0,86.0 0 0,1 -31.369924170532247,-30.572349798747897" fill="none" id="id8" stroke="none" /><text fill="#e1ed5e" style="font-size:6.75px; font-family:Arial;" text-anchor="middle"><textPath startOffset="22.145653131862474" xlink:href="#id8">August</textPath></text><path d="M 89.65649057296885 118.27599006163327 l -13.182726179783542 23.292614015251974 a47.76434451270315,47.76434451270315 0 0,0 -0.7101137202179385,-0.4099843475230765 l 13.58063236786188 -23.062882770452727" fill="#cfff1d" stroke="none" /><path d="M 88.1277618465304 117.32195027204791 l -22.64092936925388 33.03379258211318 a61.0480103758179,61.0480103758179 0 0,0 -0.8593376924365083,-0.599884448849157 l 23.204662152864152 -32.64026331745889" fill="#37ff2e" stroke="none" /><path d="M 82.576782715395 111.72311816256416 l -19.886298164385938 13.380388902287882 a44.96872257462479,44.96872257462479 0 0,0 -0.42543743754913166,-0.644166504563602 l 20.113060040855796 -13.037042519385219" fill="#f2ff19" stroke="none" /><line stroke="#e1ed5e" stroke-width="0.3" x1="26.387840678322732" x2="22.057713659400548" y1="142.50000000000003" y2="145.00000000000006" /><path d="M 25.521815274538298 143.00000000000003 a86.0,86.0 0 0,1 -11.493303480769221,-40.785679425670985" fill="none" id="id9" stroke="none" /><text fill="#e1ed5e" style="font-size:6.75px; font-family:Arial;" text-anchor="middle"><textPath startOffset="21.40746469413373" xlink:href="#id9">September</textPath></text><path d="M 81.63589988554817 110.18625677009913 l -24.718153828636314 13.710743255159729 a49.266085850450466,49.266085850450466 0 0,0 -0.403875513590736,-0.7430854555598203 l 24.94987469184238 -13.284402966125322" fill="#bcff1f" stroke="none" /><path d="M 81.4637452351635 109.86951160357371 l -45.688798765317955 24.326711910707147 a72.76152282346666,72.76152282346666 0 0,0 -0.5775599401793791,-1.1075473394265989 l 46.09966677447228 -23.538818328176045" fill="#3effb6" stroke="none" /><path d="M 81.1358732173502 109.22738970284198 l -14.335914872460657 7.0124143459759445 a36.95908550607108,36.95908550607108 0 0,0 -0.27388572912275444,-0.572315835318148 l 14.454179859543325 -6.765286008592692" fill="#ffa00e" stroke="none" /><path d="M 80.9802524753101 108.90220220490708 l -15.775961140607773 7.383946388780293 a38.41848484175211,38.41848484175211 0 0,0 -0.27444616966635044,-0.5997144103687766 l 15.900391775129181 -7.112042996196828" fill="#ffb410" stroke="none" /><path d="M 80.68587082218212 108.24405325689762 l -23.079404896951278 9.851225564261581 a46.093935034493484,46.093935034493484 0 0,0 -0.3043827387094517,-0.7304077662573811 l 23.245113480197215 -9.453585288562918" fill="#e4ff1a" stroke="none" /><path d="M 80.41425534168474 107.57618678355246 l -32.3785864082362 12.524732793963187 a55.7165924214315,55.7165924214315 0 0,0 -0.3374019504011059,-0.8949987592020647 l 32.588819042451746 -11.967065754566978" fill="#70ff27" stroke="none" /><path d="M 80.05021161711548 106.5578916946017 l -59.849365148653554 19.673675083805072 a84.0,84.0 0 0,0 -0.4385411368909806,-1.3737238652344332 l 60.17827100132179 -18.643382184879247" fill="#4dd2ff" stroke="none" /><path d="M 79.56144815229197 104.8234425847677 l -13.876007287322025 3.274699937399016 a35.257181976737726,35.257181976737726 0 0,0 -0.13395905589659407,-0.5902483173849884 l 13.930177204776285 -3.0360172860750017" fill="#ff880c" stroke="none" /><path d="M 79.34024301695615 103.76489593502545 l -13.188419358511613 2.40336933648461 a34.40561782774365,34.40561782774365 0 0,0 -0.10089886920066805,-0.5819578647183813 l 13.227733045204515 -2.176618438845636" fill="#ff7c0b" stroke="none" /><line stroke="#e1ed5e" stroke-width="0.3" x1="15.003131293944662" x2="10.003315487706104" y1="100.72959589197737" y2="100.7725132973878" /><path d="M 14.003168132696942 100.73817937305945 a86.0,86.0 0 0,1 10.791469493833604,-42.45332614584628" fill="none" id="id10" stroke="none" /><text fill="#e1ed5e" style="font-size:6.75px; font-family:Arial;" text-anchor="middle"><textPath startOffset="22.145653131862435" xlink:href="#id10">October</textPath></text><path d="M 79.00696218219943 99.45929381324524 l -35.08970750991783 -0.9037863936938018 a56.10134474599242,56.10134474599242 0 0,0 0.03306055719663118,-0.962522050548031 l 35.06902226572434 1.5060147088059712" fill="#6cff28" stroke="none" /><path d="M 79.03789590574601 98.7389718711861 l -25.185927200862775 -1.5151228382294535 a46.23145905773354,46.23145905773354 0 0,0 0.05445634126894581,-0.7917832505263791 l 25.156206898428763 1.9472495129101577" fill="#e2ff1b" stroke="none" /><line stroke="#e1ed5e" stroke-width="0.3" x1="26.387840678322718" x2="22.05771365940052" y1="57.49999999999999" y2="54.99999999999999" /><path d="M 25.521815274538284 56.99999999999999 a86.0,86.0 0 0,1 29.574782752854787,-30.34633250058573" fill="none" id="id11" stroke="none" /><text fill="#e1ed5e" style="font-size:6.75px; font-family:Arial;" text-anchor="middle"><textPath startOffset="21.40746469413373" xlink:href="#id11">November</textPath></text><line stroke="#e1ed5e" stroke-width="0.3" x1="56.869717070023135" x2="54.33264160355391" y1="26.7553504044142" y2="22.446841604673864" /><path d="M 56.362301976729285 25.89364864446614 a86.0,86.0 0 0,1 42.16139366436587,-11.88097634709845" fill="none" id="id12" stroke="none" /><text fill="#e1ed5e" style="font-size:6.75px; font-family:Arial;" text-anchor="middle"><textPath startOffset="22.145653131862474" xlink:href="#id12">December</textPath></text></svg>