<?xml version="1.0" encoding="utf-8" ?>
<svg baseProfile="full" height="200mm" version="1.1" viewBox="0,0,200,200" width="200mm" xmlns="http://www.w3.org/2000/svg" xmlns:ev="http://www.w3.org/2001/xml-events" xmlns:xlink="http://www.w3.org/1999/xlink"><defs /><rect fill="#1a1a1a" height="200" width="200" x="0" y="0" /><text alignment-baseline="middle" fill="#e1ed5e" style="dominant-baseline: central; font-size:9.0px; font-family:Arial;" text-anchor="middle" x="100.0" y="100.0">2024</text><line stroke="#e1ed5e" stroke-width="0.3" x1="100.0" x2="100.0" y1="15.0" y2="10.0" /><path d="M 100.0 14.0 a86.0,86.0 0 0,1 42.35913384403234,11.155469271406648" fill="none" id="id1" stroke="none" /><text fill="#e1ed5e" style="font-size:6.75px; font-family:Arial;" text-anchor="middle"><textPath startOffset="22.145653131862478" xlink:href="#id1">January</textPath></text><line stroke="#e1ed5e" stroke-width="0.3" x1="143.13028292997686" x2="145.6673583964461" y1="26.7553504044142" y2="22.446841604673864" /><path d="M 143.63769802327073 25.89364864446614 a86.0,86.0 0 0,1 29.32050498858742,28.57503671076993" fill="none" id="id2" stroke="none" /><text fill="#e1ed5e" style="font-size:6.75px; font-family:Arial;" text-anchor="middle"><textPath startOffset="20.669276256404974" xlink:href="#id2">February</textPath></text><line stroke="#e1ed5e" stroke-width="0.3" x1="172.87174338648825" x2="177.1583165268699" y1="56.24261187166439" y2="53.66864786411523" /><path d="M 173.72905801456457 55.72781907015455 a86.0,86.0 0 0,1 12.242430191666344,42.057860355516425" fill="none" id="id3" stroke="none" /><text fill="#e1ed5e" style="font-size:6.75px; font-family:Arial;" text-anchor="middle"><textPath startOffset="22.145653131862474" xlink:href="#id3">March</textPath></text><path d="M 119.58574465831526 92.42381321644754 l 11.740522225120447 -4.541486211819762 a33.58828658438853,33.58828658438853 0 0,0 0.20339997318006128,0.5395425942306324 l -11.816752882114947 4.339275337394972" fill="#ff6509" stroke="none" /><path d="M 119.71291397450082 92.76114493625339 l 13.650347727071237 -5.012596762397925 a35.541599615322966,35.541599615322966 0 0,0 0.20539630884199275,0.5745300316051238 l -13.734384205957173 4.777531774411884" fill="#ff820c" stroke="none" /><path d="M 120.26092885502905 94.47779374421319 l 13.23055865793412 -3.606047595900973 a34.713178393973394,34.713178393973394 0 0,0 0.15176356815565317,0.5762709877773367 l -13.290511706894504 3.3783961037508377" fill="#ff760a" stroke="none" /><path d="M 120.35273937422433 94.82641323984039 l 22.447972175198323 -5.706186744823069 a44.16186568360314,44.16186568360314 0 0,0 0.18045899656977638,0.7363342877882519 l -22.542618698284393 5.319996632426721" fill="#fffa17" stroke="none" /><path d="M 120.96210409425399 98.7389718711861 l 10.541798134965449 -0.6341683982054738 a31.560855906395254,31.560855906395254 0 0,0 0.027891396238706494,0.5410856357845191 l -10.55113112066073 0.45311096904422404" fill="#ff4706" stroke="none" /><path d="M 120.98066250479742 99.09900007780936 l 6.561946843863006 -0.28179823179500607 a27.56799487097291,27.56799487097291 0 0,0 0.016245836447503572,0.4729798024066672 l -6.565817367307358 0.16911216482421887" fill="#ff0901" stroke="none" /><path d="M 120.99303781780057 99.45929381324524 l 6.006586258905619 -0.1547083552010996 a27.008578297804135,27.008578297804135 0 0,0 0.007959258772321197,0.4635869210825926 l -6.008356949276607 0.05157451814944063" fill="#ff0000" stroke="none" /><line stroke="#e1ed5e" stroke-width="0.3" x1="184.99686870605535" x2="189.99668451229388" y1="99.2704041080226" y2="99.22748670261217" /><path d="M 185.99683186730306 99.26182062694052 a86.0,86.0 0 0,1 -10.086455211305974,41.156179273409016" fill="none" id="id4" stroke="none" /><text fill="#e1ed5e" style="font-size:6.75px; font-family:Arial;" text-anchor="middle"><textPath startOffset="21.40746469413373" xlink:href="#id4">April</textPath></text><path d="M 120.99922638620191 99.81974689727618 l 9.237707445911528 -0.07929460821826642 a30.238047764064753,30.238047764064753 0 0,0 0.0,0.5190954218841854 l -9.237707445911528 -0.0792946082182653" fill="#ff3304" stroke="none" /><path d="M 120.9064616781168 101.97986365728391 l 16.779722507442912 1.5890571672665565 a37.85479724314794,37.85479724314794 0 0,0 -0.06681841747119606,0.6464075762518765 l -16.74997169749005 -1.8768692658013646" fill="#ffa30f" stroke="none" /><path d="M 119.83427380445688 106.89939002012753 l 13.379217501447812 4.653986357991203 a35.16555858310627,35.16555858310627 0 0,0 -0.2032231528550252,0.5684513275382586 l -13.297354178548844 -4.882972641910382" fill="#ff7d0b" stroke="none" /><line stroke="#e1ed5e" stroke-width="0.3" x1="174.33088141563837" x2="178.70328620479359" y1="141.23008692659167" y2="143.65538615756765" /><path d="M 175.20536237346943 141.71514677278685 a86.0,86.0 0 0,1 -30.301960400862466,31.631185727798858" fill="none" id="id5" stroke="none" /><text fill="#e1ed5e" style="font-size:6.75px; font-family:Arial;" text-anchor="middle"><textPath startOffset="22.145653131862474" xlink:href="#id5">May</textPath></text><path d="M 118.36410011445183 110.18625677009912 l 25.928437489693025 14.382067200212555 a50.65008815515307,50.65008815515307 0 0,0 -0.4282745578610036,0.756720107264852 l -25.67772956681064 -14.825044077576528" fill="#b1ff20" stroke="none" /><path d="M 114.39649973595853 115.28858382429668 l 36.675838783984176 38.94846982664847 a74.49860234011861,74.49860234011861 0 0,0 -0.9385767741864284,0.868732650049325 l -36.001832238483786 -39.57232022283017" fill="#40ffc8" stroke="none" /><path d="M 113.03279911837588 116.46651593811092 l 39.098397355127624 49.39954781433276 a84.0,84.0 0 0,0 -1.1383602214590773,0.8851957935168273 l -38.24462718903332 -50.063444659470385" fill="#4dd2ff" stroke="none" /><line stroke="#e1ed5e" stroke-width="0.3" x1="143.1302829299769" x2="145.66735839644613" y1="173.24464959558577" y2="177.55315839532614" /><path d="M 143.63769802327073 174.10635135553383 a86.0,86.0 0 0,1 -40.68552437913181,11.842963189579606" fill="none" id="id6" stroke="none" /><text fill="#e1ed5e" style="font-size:6.75px; font-family:Arial;" text-anchor="middle"><textPath startOffset="21.407464694133747" xlink:href="#id6">June</textPath></text><path d="M 110.65571695917076 118.09573695890943 l 13.970551839340049 23.725051277561292 a48.53278730565796,48.53278730565796 0 0,0 -0.7215381786931262,0.4165802616990703 l -13.561221192786524 -23.96137843653653" fill="#cbff1d" stroke="none" /><path d="M 109.3889696526874 118.78422872680471 l 12.305675121841519 24.619593488648565 a48.52369931078699,48.52369931078699 0 0,0 -0.748281080461312,0.366021773296748 l -11.881233792118138 -24.827209012042537" fill="#cbff1d" stroke="none" /><path d="M 107.74402155503746 119.51999308798841 l 8.054626452285834 20.302920331190553 a42.84228882833787,42.84228882833787 0 0,0 -0.6859412305881326,0.26533680368742846 l -7.704912959204171 -20.43819702301602" fill="#ffe915" stroke="none" /><path d="M 105.69591212413111 120.21278271476187 l 9.585510740636257 34.015596025378045 a56.34038467703157,56.34038467703157 0 0,0 -0.9331539842459757,0.25433526795769257 l -9.000175355455587 -34.175131787479884" fill="#6eff28" stroke="none" /><path d="M 104.9986988182912 120.39639698878246 l 6.209234808763422 25.33579692632877 a47.08557461131592,47.08557461131592 0 0,0 -0.7867054358948878,0.1856603407833501 l -5.773397219128655 -25.438653410758345" fill="#deff1b" stroke="none" /><path d="M 103.94208987418118 120.62667999033965 l 1.4053528286830856 7.353399845249792 a28.486488219265908,28.486488219265908 0 0,0 -0.48110323497526736,0.08767303580446921 l -1.278914860156761 -7.376441054985626" fill="#ff1702" stroke="none" /><path d="M 103.58742460773223 120.69131181640829 l 9.33904547881993 53.86513256707429 a75.66873216861677,75.66873216861677 0 0,0 -1.281765254658508,0.2109139848851669 l -8.413002721108349 -54.01751255045513" fill="#42ffd5" stroke="none" /><line stroke="#e1ed5e" stroke-width="0.3" x1="101.45913802915013" x2="101.54496967792366" y1="184.9874750549273" y2="189.98673829345242" /><path d="M 101.47630435890484 185.9873277026323 a86.0,86.0 0 0,1 -42.54439059252881,-10.42667462771756" fill="none" id="id7" stroke="none" /><text fill="#e1ed5e" style="font-size:6.75px; font-family:Arial;" text-anchor="middle"><textPath startOffset="22.145653131862474" xlink:href="#id7">July</textPath></text><line stroke="#e1ed5e" stroke-width="0.3" x1="58.13341422392154" x2="55.67067388415222" y1="173.97424548756322" y2="178.32567169271397" /><path d="M 57.64086615596768 174.84453072859336 a86.0,86.0 0 0,1 -31.369924170532247,-30.572349798747897" fill="none" id="id8" stroke="none" /><text fill="#e1ed5e" style="font-size:6.75px; font-family:Arial;" text-anchor="middle"><textPath startOffset="22.145653131862474" xlink:href="#id8">August</textPath></text><line stroke="#e1ed5e" stroke-width="0.3" x1="26.387840678322732" x2="22.057713659400548" y1="142.50000000000003" y2="145.00000000000006" /><path d="M 25.521815274538298 143.00000000000003 a86.0,86.0 0 0,1 -11.493303480769221,-40.785679425670985" fill="none" id="id9" stroke="none" /><text fill="#e1ed5e" style="font-size:6.75px; font-family:Arial;" text-anchor="middle"><textPath startOffset="21.40746469413373" xlink:href="#id9">September</textPath></text><line stroke="#e1ed5e" stroke-width="0.3" x1="15.003131293944662" x2="10.003315487706104" y1="100.72959589197737" y2="100.7725132973878" /><path d="M 14.003168132696942 100.73817937305945 a86.0,86.0 0 0,1 10.791469493833604,-42.45332614584628" fill="none" id="id10" stroke="none" /><text fill="#e1ed5e" style="font-size:6.75px; font-family:Arial;" text-anchor="middle"><textPath startOffset="22.145653131862435" xlink:href="#id10">October</textPath></text><line stroke="#e1ed5e" stroke-width="0.3" x1="26.387840678322718" x2="22.05771365940052" y1="57.49999999999999" y2="54.99999999999999" /><path d="M 25.521815274538284 56.99999999999999 a86.0,86.0 0 0,1 29.574782752854787,-30.34633250058573" fill="none" id="id11" stroke="none" /><text fill="#e1ed5e" style="font-size:6.75px; font-family:Arial;" text-anchor="middle"><textPath startOffset="21.40746469413373" xlink:href="#id11">November</textPath></text><line stroke="#e1ed5e" stroke-width="0.3" x1="56.869717070023135" x2="54.33264160355391" y1="26.7553504044142" y2="22.446841604673864" /><path d="M 56.362301976729285 25.89364864446614 a86.0,86.0 0 0,1 42.16139366436587,-11.88097634709845" fill="none" id="id12" stroke="none" /><text fill="#e1ed5e" style="font-size:6.75px; font-family:Arial;" text-anchor="middle"><textPath startOffset="22.145653131862474" xlink:href="#id12">December</textPath></text></svg>