<?xml version="1.0" encoding="utf-8" ?>
<svg baseProfile="full" height="200mm" version="1.1" viewBox="0,0,200,200" width="200mm" xmlns="http://www.w3.org/2000/svg" xmlns:ev="http://www.w3.org/2001/xml-events" xmlns:xlink="http://www.w3.org/1999/xlink"><defs /><rect fill="#1a1a1a" height="200" width="200" x="0" y="0" /><text alignment-baseline="middle" fill="#e1ed5e" style="dominant-baseline: central; font-size:9.0px; font-family:Arial;" text-anchor="middle" x="100.0" y="100.0">2024</text><line stroke="#e1ed5e" stroke-width="0.3" x1="100.0" x2="100.0" y1="15.0" y2="10.0" /><path d="M 100.0 14.0 a86.0,86.0 0 0,1 42.35913384403234,11.155469271406648" fill="none" id="id1" stroke="none" /><text fill="#e1ed5e" style="font-size:6.75px; font-family:Arial;" text-anchor="middle"><textPath startOffset="22.145653131862478" xlink:href="#id1">January</textPath></text><line stroke="#e1ed5e" stroke-width="0.3" x1="143.13028292997686" x2="145.6673583964461" y1="26.7553504044142" y2="22.446841604673864" /><path d="M 143.63769802327073 25.89364864446614 a86.0,86.0 0 0,1 29.32050498858742,28.57503671076993" fill="none" id="id2" stroke="none" /><text fill="#e1ed5e" style="font-size:6.75px; font-family:Arial;" text-anchor="middle"><textPath startOffset="20.669276256404974" xlink:href="#id2">February</textPath></text><line stroke="#e1ed5e" stroke-width="0.3" x1="172.87174338648825" x2="177.1583165268699" y1="56.24261187166439" y2="53.66864786411523" /><path d="M 173.72905801456457 55.72781907015455 a86.0,86.0 0 0,1 12.242430191666344,42.057860355516425" fill="none" id="id3" stroke="none" /><text fill="#e1ed5e" style="font-size:6.75px; font-family:Arial;" text-anchor="middle"><textPath startOffset="22.145653131862474" xlink:href="#id3">March</textPath></text><path d="M 119.58574465831526 92.42381321644754 l 7.99469104240309 -3.0925182407258816 a29.571974914376646,29.571974914376646 0 0,0 0.17907846800560923,0.4750269121867571 l -8.04660019422314 2.954823048344967" fill="#ff4306" stroke="none" /><path d="M 119.71291397450082 92.76114493625339 l 9.295183860374173 -3.4133202652414645 a30.902080500140794,30.902080500140794 0 0,0 0.17858434451359353,0.4995321954714626 l -9.35240837493171 3.253253113389085" fill="#ff5708" stroke="none" /><path d="M 120.26092885502905 94.47779374421319 l 9.009329121855947 -2.4555327148689043 a30.337968308990618,30.337968308990618 0 0,0 0.132635458179908,0.5036384385825872 l -9.050154060840585 2.300513771913519" fill="#ff4f07" stroke="none" /><path d="M 120.35273937422433 94.82641323984039 l 15.285913064853531 -3.88561932598771 a36.77203778123642,36.77203778123642 0 0,0 0.15026188176401373,0.6131197545900479 l -15.350362473133837 3.622643746789567" fill="#ffaa0f" stroke="none" /><path d="M 120.96210409425399 98.7389718711861 l 7.178421666806676 -0.4318360218815912 a28.191399027746552,28.191399027746552 0 0,0 0.02491369318811898,0.4833189921028843 l -7.184776949451368 0.30854523640197623" fill="#ff2f04" stroke="none" /><path d="M 120.98066250479742 99.09900007780936 l 4.4683478849952625 -0.19189008429933385 a25.472466280006373,25.472466280006373 0 0,0 0.015010940151300492,0.4370271441327615 l -4.470983512143411 0.11515667560245241" fill="#ff0600" stroke="none" /><path d="M 120.99303781780057 99.45929381324524 l 4.090175925628522 -0.10534842299133401 a25.091532401535872,25.091532401535872 0 0,0 0.0073943173600567805,0.4306819160569383 l -4.091381674587245 0.03511959096532937" fill="#ff0000" stroke="none" /><line stroke="#e1ed5e" stroke-width="0.3" x1="184.99686870605535" x2="189.99668451229388" y1="99.2704041080226" y2="99.22748670261217" /><path d="M 185.99683186730306 99.26182062694052 a86.0,86.0 0 0,1 -10.086455211305974,41.156179273409016" fill="none" id="id4" stroke="none" /><text fill="#e1ed5e" style="font-size:6.75px; font-family:Arial;" text-anchor="middle"><textPath startOffset="21.40746469413373" xlink:href="#id4">April</textPath></text><path d="M 120.99922638620191 99.81974689727618 l 6.2904030633451296 -0.05399554482142582 a27.290634802482366,27.290634802482366 0 0,0 0.0,0.46849729509050464 l -6.2904030633451296 -0.05399554482142506" fill="#ff2103" stroke="none" /><path d="M 120.9064616781168 101.97986365728391 l 11.426126934731576 1.0820661004184626 a32.47724896367911,32.47724896367911 0 0,0 -0.05732637704099403,0.5545806955746039 l -11.405868165208915 -1.2780513182759978" fill="#ff6e0a" stroke="none" /><path d="M 119.83427380445688 106.89939002012753 l 9.110558138915337 3.1691250469326326 a30.646015921905388,30.646015921905388 0 0,0 -0.17710453719585934,0.49539291103240896 l -9.054813431675534 -3.325052914345963" fill="#ff5307" stroke="none" /><line stroke="#e1ed5e" stroke-width="0.3" x1="174.33088141563837" x2="178.70328620479359" y1="141.23008692659167" y2="143.65538615756765" /><path d="M 175.20536237346943 141.71514677278685 a86.0,86.0 0 0,1 -30.301960400862466,31.631185727798858" fill="none" id="id5" stroke="none" /><text fill="#e1ed5e" style="font-size:6.75px; font-family:Arial;" text-anchor="middle"><textPath startOffset="22.145653131862474" xlink:href="#id5">May</textPath></text><path d="M 118.36410011445183 110.18625677009912 l 17.65593071310171 9.793447140772226 a41.190183165215416,41.190183165215416 0 0,0 -0.34828581994287494,0.6153876717363536 l -17.48521152813746 -10.095091582607703" fill="#ffe515" stroke="none" /><path d="M 114.39649973595853 115.28858382429668 l 24.974357543616865 26.52190225168789 a57.42979321605463,57.42979321605463 0 0,0 -0.7235339773601498,0.6696922477094682 l -24.515393794942746 -26.94671224552974" fill="#58ff2a" stroke="none" /><path d="M 113.03279911837588 116.46651593811092 l 26.62399517787624 33.63854816994376 a63.89975573605523,63.89975573605523 0 0,0 -0.8659635725104379,0.6733785117179625 l -26.04262166073057 -34.09062773328252" fill="#33ff50" stroke="none" /><line stroke="#e1ed5e" stroke-width="0.3" x1="143.1302829299769" x2="145.66735839644613" y1="173.24464959558577" y2="177.55315839532614" /><path d="M 143.63769802327073 174.10635135553383 a86.0,86.0 0 0,1 -40.68552437913181,11.842963189579606" fill="none" id="id6" stroke="none" /><text fill="#e1ed5e" style="font-size:6.75px; font-family:Arial;" text-anchor="middle"><textPath startOffset="21.407464694133747" xlink:href="#id6">June</textPath></text><path d="M 110.65571695917076 118.09573695890943 l 9.513226371517224 16.155538168774036 a39.74841031976966,39.74841031976966 0 0,0 -0.5909406234479787,0.3411797280227771 l -9.234493280208847 -16.316464794072985" fill="#ffd213" stroke="none" /><path d="M 109.3889696526874 118.78422872680471 l 8.379531061813536 16.76467534895237 a39.74222186326021,39.74222186326021 0 0,0 -0.6128624391414154,0.29978172991253266 l -8.090508373410051 -16.906050828962123" fill="#ffd213" stroke="none" /><path d="M 107.74402155503746 119.51999308798841 l 5.4847858309243085 13.825243221216894 a35.87347389606449,35.87347389606449 0 0,0 -0.5743646173605331,0.22217657275234423 l -5.246648951070246 -13.91735968210728" fill="#ff9e0e" stroke="none" /><path d="M 105.69591212413111 120.21278271476187 l 6.527239196486181 23.16286921754047 a45.06498206766482,45.06498206766482 0 0,0 -0.7464018537942031,0.203435144353225 l -6.128655941757282 -23.271504856037836" fill="#e7ff1a" stroke="none" /><path d="M 104.9986988182912 120.39639698878246 l 4.228169152440675 17.252373008219102 a38.76293300095392,38.76293300095392 0 0,0 -0.6476508007985745,0.1528438255267613 l -3.9313861979022207 -17.322412977392087" fill="#ffc512" stroke="none" /><path d="M 103.94208987418118 120.62667999033965 l 0.9569729059282321 5.0072866220755925 a26.097912951227975,26.097912951227975 0 0,0 -0.4407630119337422,0.08032170336277043 l -0.8708751604434328 -5.022976499369727" fill="#ff0f01" stroke="none" /><path d="M 103.58742460773223 120.69131181640829 l 6.359409045226761 36.679381425678116 a58.226591371960076,58.226591371960076 0 0,0 -0.9863099272162894,0.16229692318848946 l -5.7288216149574 -36.783144347362274" fill="#4fff2b" stroke="none" /><path d="M 102.51750503828377 120.84855314841334 l 5.6139014331117965 46.49115716486305 a67.82887553453202,67.82887553453202 0 0,0 -1.1571738542290817,0.12966374400005326 l -4.814991677281916 -46.58067666937007" fill="#38ff80" stroke="none" /><line stroke="#e1ed5e" stroke-width="0.3" x1="101.45913802915013" x2="101.54496967792366" y1="184.9874750549273" y2="189.98673829345242" /><path d="M 101.47630435890484 185.9873277026323 a86.0,86.0 0 0,1 -42.54439059252881,-10.42667462771756" fill="none" id="id7" stroke="none" /><text fill="#e1ed5e" style="font-size:6.75px; font-family:Arial;" text-anchor="middle"><textPath startOffset="22.145653131862474" xlink:href="#id7">July</textPath></text><path d="M 99.63950707515114 120.99690560180557 l -0.5043899666501493 29.378186883117237 a50.382516464350346,50.382516464350346 0 0,0 -0.8646280065411144,-0.022269750401808987 l 1.0086312872620076 -29.36519941536538" fill="#a7ff21" stroke="none" /><path d="M 96.76829788921471 120.74984581791261 l -7.295323556017469 46.841210541637615 a68.40591472372415,68.40591472372415 0 0,0 -1.1587391805458267,-0.19067009120684053 l 8.098340239616359 -46.70907445193511" fill="#39ff86" stroke="none" /><path d="M 96.05791012581884 120.62667999033965 l -5.788847083848192 30.289694076634834 a51.83790391411688,51.83790391411688 0 0,0 -0.8726133912547057,-0.1745471172142771 l 6.307956960633856 -30.185857562757697" fill="#96ff23" stroke="none" /><path d="M 95.35216902796893 120.47920084513623 l -6.974622748029983 30.731474732082194 a52.512995758669845,52.512995758669845 0 0,0 -0.8773867486909948,-0.20706088369081732 l 7.501141650460865 -30.60721770474515" fill="#8eff24" stroke="none" /><path d="M 93.61358852112213 120.00534299687104 l -9.46655075560485 29.65383541125024 a52.12821128503791,52.12821128503791 0 0,0 -0.8501298615342754,-0.2794545712109671 l 9.97420335478687 -29.48695991863725" fill="#93ff23" stroke="none" /><path d="M 93.27111125876986 119.89276391827306 l -10.090579048661862 29.831003978973015 a52.49140492151466,52.49140492151466 0 0,0 -0.8510962091915846,-0.2960554416943334 l 10.601181029898468 -29.65339010471009" fill="#8fff24" stroke="none" /><path d="M 91.26138138417905 119.09545874513695 l -11.304193308356323 24.701702460840544 a48.16539877889856,48.16539877889856 0 0,0 -0.7488831572471781,-0.3505151309190303 l 11.726565179474992 -24.504011098350986" fill="#c1ff1e" stroke="none" /><path d="M 90.6110303473126 118.78422872680471 l -14.431735694267013 28.873138825015772 a53.27898915328381,53.27898915328381 0 0,0 -0.814592051035083,-0.4159365054566708 l 14.925254967015679 -28.621144367886266" fill="#86ff25" stroke="none" /><line stroke="#e1ed5e" stroke-width="0.3" x1="58.13341422392154" x2="55.67067388415222" y1="173.97424548756322" y2="178.32567169271397" /><path d="M 57.64086615596768 174.84453072859336 a86.0,86.0 0 0,1 -31.369924170532247,-30.572349798747897" fill="none" id="id8" stroke="none" /><text fill="#e1ed5e" style="font-size:6.75px; font-family:Arial;" text-anchor="middle"><textPath startOffset="22.145653131862474" xlink:href="#id8">August</textPath></text><path d="M 89.65649057296885 118.27599006163327 l -10.361414264451852 18.30762619374726 a42.03635145194069,42.03635145194069 0 0,0 -0.6249555022363479,-0.360818227447696 l 10.6741622345486 -18.127061069023394" fill="#fff016" stroke="none" /><path d="M 88.1277618465304 117.32195027204791 l -17.795412369771753 25.964038469838815 a52.47710271091505,52.47710271091505 0 0,0 -0.7386899601107139,-0.5156629617106685 l 18.23849742105623 -25.654730692323017" fill="#8fff24" stroke="none" /><path d="M 82.576782715395 111.72311816256416 l -15.630315813097956 10.516774037883819 a39.83903682731915,39.83903682731915 0 0,0 -0.37690680926311737,-0.5706849478689893 l 15.8085470612818 -10.246909211675769" fill="#ffd313" stroke="none" /><line stroke="#e1ed5e" stroke-width="0.3" x1="26.387840678322732" x2="22.057713659400548" y1="142.50000000000003" y2="145.00000000000006" /><path d="M 25.521815274538298 143.00000000000003 a86.0,86.0 0 0,1 -11.493303480769221,-40.785679425670985" fill="none" id="id9" stroke="none" /><text fill="#e1ed5e" style="font-size:6.75px; font-family:Arial;" text-anchor="middle"><textPath startOffset="21.40746469413373" xlink:href="#id9">September</textPath></text><path d="M 81.63589988554817 110.18625677009913 l -19.428077939122662 10.776427333984241 a43.21669639017618,43.21669639017618 0 0,0 -0.3542835837062489,-0.6518418902278367 l 19.61020687244424 -10.441330610281817" fill="#ffff18" stroke="none" /><path d="M 81.4637452351635 109.86951160357371 l -35.91067316399412 19.12041078311698 a61.68373822064958,61.68373822064958 0 0,0 -0.4896276874687527,-0.9389256505518574 l 36.233608920437824 -18.50113888946062" fill="#30ff34" stroke="none" /><path d="M 81.1358732173502 109.22738970284198 l -11.267802336763724 5.511646759686774 a33.54358878088499,33.54358878088499 0 0,0 -0.24857515127470922,-0.5194264622577626 l 11.360756745998346 -5.3174077953639065" fill="#ff7d0b" stroke="none" /><path d="M 80.9802524753101 108.90220220490708 l -12.399655926132223 5.803665068761374 a34.69065357522521,34.69065357522521 0 0,0 -0.2478160457435844,-0.5415227836253438 l 12.497456436730863 -5.589953302921342" fill="#ff8d0d" stroke="none" /><path d="M 80.68587082218212 108.24405325689762 l -18.14004719911867 7.74290747542089 a40.72343602314723,40.72343602314723 0 0,0 -0.2689184808610669,-0.6453064577310109 l 18.27029152451622 -7.4303685082485975" fill="#ffdf14" stroke="none" /><path d="M 80.41425534168474 107.57618678355246 l -25.449056780650967 9.84424187076219 a48.286692526483755,48.286692526483755 0 0,0 -0.29240884140264406,-0.7756491920807284 l 25.614296305868045 -9.405924398487317" fill="#c0ff1e" stroke="none" /><path d="M 80.05021161711548 106.5578916946017 l -47.04065436181491 15.463197434847723 a70.51700352098072,70.51700352098072 0 0,0 -0.3681500820742401,-1.1532248885903782 l 47.299169159666405 -14.653403512565953" fill="#3bff9f" stroke="none" /><path d="M 79.56144815229197 104.8234425847677 l -10.906322249261574 2.573862354449881 a32.205919526053734,32.205919526053734 0 0,0 -0.12236583674890267,-0.5391664547277715 l 10.948898947568145 -2.3862615657830837" fill="#ff6a09" stroke="none" /><path d="M 79.34024301695615 103.76489593502545 l -10.36588901288238 1.8890102840781837 a31.536603574242925,31.536603574242925 0 0,0 -0.09248511841880028,-0.5334295860758298 l 10.396788948793414 -1.7107876650817613" fill="#ff6008" stroke="none" /><line stroke="#e1ed5e" stroke-width="0.3" x1="15.003131293944662" x2="10.003315487706104" y1="100.72959589197737" y2="100.7725132973878" /><path d="M 14.003168132696942 100.73817937305945 a86.0,86.0 0 0,1 10.791469493833604,-42.45332614584628" fill="none" id="id10" stroke="none" /><text fill="#e1ed5e" style="font-size:6.75px; font-family:Arial;" text-anchor="middle"><textPath startOffset="22.145653131862435" xlink:href="#id10">October</textPath></text><path d="M 79.00696218219943 99.45929381324524 l -27.579955084425162 -0.7103618101388962 a48.58910176791215,48.58910176791215 0 0,0 0.02863358775808568,-0.833635665592109 l 27.563696809670226 1.1837037402951438" fill="#bcff1f" stroke="none" /><path d="M 79.03789590574601 98.7389718711861 l -19.79574041086169 -1.1908625859575583 a40.831527730178934,40.831527730178934 0 0,0 0.048095726458261066,-0.6993013071420897 l 19.772380723238363 1.530507317253973" fill="#ffe015" stroke="none" /><path d="M 79.0935383218832 98.0201363427161 l -28.959888232679496 -2.742531525117008 a50.08945866831401,50.08945866831401 0 0,0 0.08841411403442809,-0.8553263504644932 l 28.908541726163406 3.2392623978644144" fill="#aaff21" stroke="none" /><path d="M 80.68587082218212 91.75594674310238 l -57.94238753345363 -24.732159770692828 a84.0,84.0 0 0,0 0.5774644719320907,-1.3213517208965326 l 57.50928917950456 25.72317356136523" fill="#4dd2ff" stroke="none" /><path d="M 80.9802524753101 91.09779779509293 l -7.109752188035318 -3.3277230164338265 a28.849988321607647,28.849988321607647 0 0,0 0.21379317097412653,-0.44674550084547837 l 7.051579759101287 3.449281019344392" fill="#ff3905" stroke="none" /><path d="M 81.46374523516351 90.13048839642627 l -12.238247097695638 -6.516177257513813 a34.86489300628014,34.86489300628014 0 0,0 0.2858168317235412,-0.5258707781506559 l 12.124584916356747 6.725302869139089" fill="#ff8f0d" stroke="none" /><path d="M 81.63589988554816 89.8137432299009 l -8.546016444267599 -4.740331261551587 a30.77267299846544,30.77267299846544 0 0,0 0.2601999996969184,-0.4597484675820285 l 8.463383079549311 4.88633649923272" fill="#ff5507" stroke="none" /><line stroke="#e1ed5e" stroke-width="0.3" x1="26.387840678322718" x2="22.05771365940052" y1="57.49999999999999" y2="54.99999999999999" /><path d="M 25.521815274538284 56.99999999999999 a86.0,86.0 0 0,1 29.574782752854787,-30.34633250058573" fill="none" id="id11" stroke="none" /><text fill="#e1ed5e" style="font-size:6.75px; font-family:Arial;" text-anchor="middle"><textPath startOffset="21.40746469413373" xlink:href="#id11">November</textPath></text><path d="M 81.81346652052679 89.5 l -9.705325563732925 -5.603372326794163 a32.20674465358832,32.20674465358832 0 0,0 0.2805457289656417,-0.47642798093830635 l 9.607706124637506 5.7691514760260425" fill="#ff6a09" stroke="none" /><path d="M 82.576782715395 88.27688183743585 l -8.686411950996135 -5.844605622878548 a31.469630722685114,31.469630722685114 0 0,0 0.30542065332930257,-0.44561786081425875 l 8.584801560851519 5.9928582187628425" fill="#ff5f08" stroke="none" /><path d="M 82.78059297857968 87.97951657250589 l -13.459005859597193 -9.395431369069863 a37.41398700314989,37.41398700314989 0 0,0 0.3721531899406601,-0.5234800676723554 l 13.29573757112656 9.62508866345174" fill="#ffb310" stroke="none" /><path d="M 82.98947788004972 87.6856937992154 l -11.111269142477882 -8.043701982511624 a34.71719517758797,34.71719517758797 0 0,0 0.35361609210478345,-0.47974814287702244 l 10.97155103078928 8.233256434657509" fill="#ff8d0d" stroke="none" /><path d="M 83.42222388311158 87.10902102172516 l -12.10995379763498 -9.416773319441674 a36.34035855938845,36.34035855938845 0 0,0 0.3871694348694026,-0.4891759331299267 l 11.946517932124015 9.623269196486284" fill="#ffa40f" stroke="none" /><path d="M 84.58840730492382 85.73525988315684 l -6.056903178502381 -5.606179157707794 a29.25320064351216,29.25320064351216 0 0,0 0.3442741849326845,-0.3656072539450709 l 5.959773159833424 5.7093278715973765" fill="#ff3f05" stroke="none" /><line stroke="#e1ed5e" stroke-width="0.3" x1="56.869717070023135" x2="54.33264160355391" y1="26.7553504044142" y2="22.446841604673864" /><path d="M 56.362301976729285 25.89364864446614 a86.0,86.0 0 0,1 42.16139366436587,-11.88097634709845" fill="none" id="id12" stroke="none" /><text fill="#e1ed5e" style="font-size:6.75px; font-family:Arial;" text-anchor="middle"><textPath startOffset="22.145653131862474" xlink:href="#id12">December</textPath></text></svg>